<!DOCTYPE svg PUBLIC "-//W3C//DTD SVG 1.1//EN" "http://www.w3.org/Graphics/SVG/1.1/DTD/svg11.dtd">
<!-- Uploaded to: SVG Repo, www.svgrepo.com, Transformed by: SVG Repo Mixer Tools -->
<svg fill="#9e9e9e" version="1.1" id="Capa_1" xmlns="http://www.w3.org/2000/svg" xmlns:xlink="http://www.w3.org/1999/xlink" width="122px" height="122px" viewBox="-873.2 -873.2 2637.42 2637.42" xml:space="preserve" stroke="#9e9e9e" stroke-width="0.00891024">
<g id="SVGRepo_bgCarrier" stroke-width="0"/>
<g id="SVGRepo_tracerCarrier" stroke-linecap="round" stroke-linejoin="round"/>
<g id="SVGRepo_iconCarrier"> <g> <path d="M2.8,180.875c46.6,134,144.7,286.2,282.9,424.399c138.2,138.2,290.4,236.301,424.4,282.9c18.2,6.3,38.3,1.8,52-11.8 l92.7-92.7l21.6-21.6c19.5-19.5,19.5-51.2,0-70.7l-143.5-143.4c-19.5-19.5-51.2-19.5-70.7,0l-38.899,38.9 c-20.2,20.2-52.4,22.2-75,4.6c-44.7-34.8-89-73.899-131.9-116.8c-42.9-42.9-82-87.2-116.8-131.9c-17.601-22.6-15.601-54.7,4.6-75 l38.9-38.9c19.5-19.5,19.5-51.2,0-70.7l-143.5-143.5c-19.5-19.5-51.2-19.5-70.7,0l-21.6,21.6l-92.7,92.7 C1,142.575-3.5,162.675,2.8,180.875z"/> </g> </g>
</svg>