<?xml version="1.0" encoding="utf-8"?>
<!-- Generator: Adobe Illustrator 27.5.0, SVG Export Plug-In . SVG Version: 6.00 Build 0)  -->
<svg version="1.1" xmlns="http://www.w3.org/2000/svg" xmlns:xlink="http://www.w3.org/1999/xlink" x="0px" y="0px"
	 viewBox="0 0 750 500" style="enable-background:new 0 0 750 500;" xml:space="preserve">
<g id="Background_Complete">
	<g>
		<g>
			
				<rect x="79.385" y="132.884" transform="matrix(0.0082 -1 1 0.0082 -69.0499 286.0877)" style="fill:#F5F5F5;" width="60.62" height="89.937"/>
		</g>
		<g>
			<g>
				<g>
					<path style="fill:#E0E0E0;" d="M155.192,148.643c0.018,0.021-0.273,0.296-0.844,0.8c-0.636,0.548-1.474,1.271-2.522,2.173
						c-2.282,1.918-5.468,4.596-9.38,7.884c-8.035,6.651-19.033,15.755-31.214,25.838l-0.257,0.213l-0.26-0.211
						c-0.198-0.161-0.413-0.335-0.628-0.51c-12.393-10.122-23.607-19.282-31.807-25.979c-3.993-3.312-7.249-6.012-9.58-7.945
						c-1.071-0.911-1.929-1.64-2.578-2.192c-0.584-0.508-0.882-0.786-0.864-0.808c0.018-0.022,0.35,0.213,0.968,0.68
						c0.674,0.522,1.563,1.212,2.675,2.073c2.37,1.884,5.681,4.515,9.743,7.744c8.238,6.649,19.506,15.744,31.958,25.793
						c0.215,0.175,0.43,0.349,0.628,0.51l-0.516,0.002c12.242-10.01,23.294-19.048,31.368-25.65c3.98-3.205,7.222-5.816,9.544-7.685
						c1.088-0.854,1.958-1.538,2.619-2.056C154.849,148.854,155.174,148.621,155.192,148.643z"/>
				</g>
			</g>
		</g>
		<g>
			<g>
				<path style="fill:#E0E0E0;" d="M64.762,208.525c-0.171-0.147,6.66-8.401,15.255-18.434
					c8.599-10.036,15.706-18.051,15.877-17.904c0.171,0.146-6.658,8.399-15.257,18.435
					C72.042,200.656,64.933,208.671,64.762,208.525z"/>
			</g>
		</g>
		<g>
			<g>
				<path style="fill:#E0E0E0;" d="M125.795,171.674c0.179-0.137,6.794,8.166,14.773,18.544
					c7.982,10.382,14.306,18.906,14.127,19.044c-0.179,0.137-6.792-8.164-14.775-18.546
					C131.942,180.338,125.616,171.812,125.795,171.674z"/>
			</g>
		</g>
	</g>
	<g>
		<g>
			
				<rect x="626.812" y="87.836" transform="matrix(0.0082 -1 1 0.0082 524.764 759.5446)" style="fill:#F5F5F5;" width="36.932" height="54.792"/>
		</g>
		<g>
			<g>
				<g>
					<path style="fill:#E0E0E0;" d="M672.996,97.437c0.011,0.013-0.167,0.181-0.514,0.488c-0.388,0.334-0.898,0.774-1.536,1.324
						c-1.39,1.169-3.331,2.8-5.714,4.803c-4.895,4.052-11.595,9.598-19.017,15.741l-0.157,0.13l-0.158-0.129
						c-0.121-0.098-0.252-0.204-0.383-0.311c-7.55-6.167-14.382-11.747-19.378-15.827c-2.433-2.018-4.416-3.663-5.836-4.84
						c-0.653-0.555-1.175-0.999-1.571-1.336c-0.356-0.31-0.537-0.479-0.526-0.492c0.011-0.013,0.214,0.13,0.59,0.414
						c0.41,0.318,0.952,0.738,1.63,1.263c1.444,1.148,3.461,2.751,5.936,4.718c5.019,4.051,11.884,9.592,19.47,15.714
						c0.131,0.106,0.262,0.213,0.383,0.311l-0.315,0.001c7.458-6.099,14.191-11.605,19.11-15.627c2.425-1.953,4.4-3.543,5.814-4.682
						c0.663-0.52,1.193-0.937,1.595-1.253C672.787,97.565,672.985,97.424,672.996,97.437z"/>
				</g>
			</g>
		</g>
		<g>
			<g>
				<path style="fill:#E0E0E0;" d="M617.903,133.919c-0.104-0.09,4.057-5.118,9.294-11.23c5.239-6.114,9.568-10.997,9.673-10.908
					c0.104,0.089-4.057,5.117-9.295,11.231C622.338,129.124,618.007,134.008,617.903,133.919z"/>
			</g>
		</g>
		<g>
			<g>
				<path style="fill:#E0E0E0;" d="M655.086,111.468c0.109-0.084,4.139,4.975,9,11.298c4.863,6.325,8.716,11.518,8.607,11.602
					c-0.109,0.084-4.138-4.974-9.001-11.299C658.831,116.746,654.977,111.552,655.086,111.468z"/>
			</g>
		</g>
	</g>
	<g>
		<g>
			<g>
				<g>
					<g>
						<path style="fill:#F5F5F5;" d="M560.287,404.927c0,0.816,0,45.141,0,45.141h-7.537v4.899h7.537v30.213h140.884V457.69h-10.436
							v-5.988h10.436v-8.982h4.638v-4.083h-5.508v-33.709H560.287z"/>
					</g>
				</g>
			</g>
			<g>
				<g>
					<g>
						<polygon style="fill:#E0E0E0;" points="663.758,405.058 663.758,484.677 701.171,484.677 701.171,457.187 690.735,457.187 
							690.735,451.702 701.171,451.887 701.171,442.905 705.9,442.911 705.809,438.269 700.302,438.134 700.302,404.927 						"/>
					</g>
				</g>
			</g>
			<g>
				<g>
					<g>
						<g>
							<path style="fill:#E0E0E0;" d="M666.424,454.319c0,0.276-25.493,0.5-56.934,0.5c-31.452,0-56.94-0.224-56.94-0.5
								c0-0.276,25.488-0.5,56.94-0.5C640.931,453.819,666.424,454.043,666.424,454.319z"/>
						</g>
					</g>
				</g>
			</g>
			<g>
				<g>
					<g>
						<g>
							<path style="fill:#E0E0E0;" d="M666.424,449.734c0,0.277-25.493,0.5-56.934,0.5c-31.452,0-56.94-0.224-56.94-0.5
								c0-0.276,25.488-0.5,56.94-0.5C640.931,449.234,666.424,449.458,666.424,449.734z"/>
						</g>
					</g>
				</g>
			</g>
			<g>
				<g>
					<g>
						<g>
							<path style="fill:#E0E0E0;" d="M673.737,437.393c0,0.277-25.493,0.5-56.934,0.5c-31.452,0-56.939-0.224-56.939-0.5
								c0-0.276,25.488-0.5,56.939-0.5C648.244,436.893,673.737,437.117,673.737,437.393z"/>
						</g>
					</g>
				</g>
			</g>
			<g>
				<g>
					<g>
						<g>
							<path style="fill:#E0E0E0;" d="M674.441,471.022c0,0.277-25.494,0.501-56.934,0.501c-31.451,0-56.94-0.224-56.94-0.501
								c0-0.276,25.488-0.5,56.94-0.5C648.947,470.522,674.441,470.746,674.441,471.022z"/>
						</g>
					</g>
				</g>
			</g>
		</g>
	</g>
</g>
<g id="Background_Simple" style="display:none;">
	<path style="display:inline;fill:#F5F5F5;" d="M118.396,232.716l1.907,0.212c16.074,1.785,31.932-5.151,40.887-18.442
		c1.151-1.708,2.179-3.5,3.069-5.364c6.404-13.422,5.408-30.156-2.553-42.903c-4.682-7.497-11.713-13.997-13.352-22.645
		c-2.133-11.256,5.543-21.668,12.76-30.462c7.217-8.794,14.872-19.234,12.689-30.481c-1.367-7.044-6.509-12.906-12.452-16.997
		c-15.733-10.832-37.356-10.703-54.385-2.48s-29.77,23.531-38.1,40.465c-11.669,23.723-15.334,52.004-6.811,77.26
		C70.579,206.133,92.214,227.52,118.396,232.716z"/>
	<path style="display:inline;fill:#F5F5F5;" d="M685.332,400.619l-0.039-1.5c-0.329-12.645-7.394-24.193-18.646-29.715
		c-1.446-0.71-2.944-1.315-4.484-1.806c-11.082-3.532-23.942-0.977-32.97,6.55c-5.31,4.426-9.597,10.567-16.123,12.759
		c-8.494,2.852-17.38-1.986-24.962-6.641c-7.583-4.655-16.488-9.473-24.969-6.584c-5.312,1.81-9.306,6.418-11.843,11.459
		c-6.716,13.345-4.313,30.085,3.874,42.403c8.186,12.318,21.404,20.559,35.413,25.209c19.625,6.513,41.928,6.34,60.589-2.955
		C669.831,440.502,684.096,421.459,685.332,400.619z"/>
	<circle style="display:inline;fill:#F5F5F5;" cx="638.451" cy="101.347" r="32.606"/>
</g>
<g id="Desk">
	<g>
		<path style="fill:#263238;" d="M720.104,481.413c0,0.144-154.521,0.26-345.087,0.26c-190.633,0-345.121-0.117-345.121-0.26
			c0-0.144,154.487-0.26,345.121-0.26C565.583,481.152,720.104,481.269,720.104,481.413z"/>
	</g>
</g>
<g id="Screen">
	<g>
		<path style="fill:#FFFFFF;" d="M690.192,344.219H498.983c-10.372,0-18.781-8.409-18.781-18.781V181.509
			c0-8.059,6.533-14.592,14.592-14.592h202.239c6.595,0,11.941,5.346,11.941,11.941v146.58
			C708.973,335.81,700.565,344.219,690.192,344.219z"/>
		<path style="fill:#E0E0E0;" d="M708.973,191.758H480.202v-10.249c0-8.059,6.533-14.592,14.592-14.592h202.239
			c6.595,0,11.941,5.346,11.941,11.941V191.758z"/>
		<path style="fill:#FFFFFF;" d="M496.442,179.752c0,1.781-1.444,3.225-3.225,3.225c-1.781,0-3.225-1.444-3.225-3.225
			c0-1.781,1.444-3.225,3.225-3.225C494.999,176.527,496.442,177.971,496.442,179.752z"/>
		<path style="fill:#FFFFFF;" d="M507.127,179.752c0,1.781-1.444,3.225-3.225,3.225c-1.781,0-3.225-1.444-3.225-3.225
			c0-1.781,1.444-3.225,3.225-3.225C505.683,176.527,507.127,177.971,507.127,179.752z"/>
		<path style="fill:#FFFFFF;" d="M517.812,179.752c0,1.781-1.444,3.225-3.225,3.225c-1.781,0-3.225-1.444-3.225-3.225
			c0-1.781,1.444-3.225,3.225-3.225C516.368,176.527,517.812,177.971,517.812,179.752z"/>
		
			<text transform="matrix(1 0 0 1 556.4944 215.4769)" style="fill:#263238; font-family:'Montserrat-ExtraBold'; font-size:10.3522px;">Tasks</text>
		<g>
			<path style="fill:#E0E0E0;" d="M545.27,344.231c-0.144,0-0.26-33.878-0.26-75.659c0-41.795,0.117-75.666,0.26-75.666
				c0.144,0,0.26,33.871,0.26,75.666C545.53,310.353,545.414,344.231,545.27,344.231z"/>
		</g>
		<rect x="493.217" y="215.477" style="fill:#E0E0E0;" width="40.924" height="5.281"/>
		<rect x="556.042" y="229.883" style="fill:#E0E0E0;" width="108.608" height="5.282"/>
		<rect x="493.217" y="230.959" style="fill:#E0E0E0;" width="16.278" height="5.282"/>
		<rect x="493.217" y="245.885" style="fill:#E0E0E0;" width="16.278" height="5.282"/>
		<g>
			<path style="fill:#FF725E;" d="M688.138,237.286h-6.96c-0.708,0-1.282-0.574-1.282-1.282v-6.96c0-0.708,0.574-1.282,1.282-1.282
				h6.96c0.708,0,1.282,0.574,1.282,1.282v6.96C689.42,236.712,688.846,237.286,688.138,237.286z"/>
			<polyline style="fill:none;stroke:#FFFFFF;stroke-linecap:round;stroke-linejoin:round;stroke-miterlimit:10;" points="
				681.777,232.48 684.005,234.49 688.025,230.558 			"/>
		</g>
		<rect x="556.042" y="250.287" style="fill:#E0E0E0;" width="108.608" height="5.282"/>
		<g>
			<path style="fill:none;stroke:#FF725E;stroke-miterlimit:10;" d="M688.138,257.689h-6.96c-0.708,0-1.282-0.574-1.282-1.282v-6.96
				c0-0.708,0.574-1.282,1.282-1.282h6.96c0.708,0,1.282,0.574,1.282,1.282v6.96C689.42,257.115,688.846,257.689,688.138,257.689z"
				/>
		</g>
		<rect x="556.042" y="270.69" style="fill:#E0E0E0;" width="108.608" height="5.282"/>
		<g>
			<path style="fill:none;stroke:#FF725E;stroke-miterlimit:10;" d="M688.138,278.093h-6.96c-0.708,0-1.282-0.574-1.282-1.282v-6.96
				c0-0.708,0.574-1.282,1.282-1.282h6.96c0.708,0,1.282,0.574,1.282,1.282v6.96C689.42,277.519,688.846,278.093,688.138,278.093z"
				/>
		</g>
		<rect x="556.042" y="291.093" style="fill:#E0E0E0;" width="108.608" height="5.282"/>
		<g>
			<path style="fill:none;stroke:#FF725E;stroke-miterlimit:10;" d="M688.138,298.496h-6.96c-0.708,0-1.282-0.574-1.282-1.282v-6.96
				c0-0.708,0.574-1.282,1.282-1.282h6.96c0.708,0,1.282,0.574,1.282,1.282v6.96C689.42,297.922,688.846,298.496,688.138,298.496z"
				/>
		</g>
		<rect x="556.042" y="311.496" style="fill:#E0E0E0;" width="108.608" height="5.282"/>
		<g>
			<path style="fill:none;stroke:#FF725E;stroke-miterlimit:10;" d="M688.138,318.899h-6.96c-0.708,0-1.282-0.574-1.282-1.282v-6.96
				c0-0.708,0.574-1.282,1.282-1.282h6.96c0.708,0,1.282,0.574,1.282,1.282v6.96C689.42,318.325,688.846,318.899,688.138,318.899z"
				/>
		</g>
		<g>
			<path style="fill:#263238;" d="M690.192,344.219c0,0,0.171-0.018,0.51-0.039c0.338-0.026,0.844-0.041,1.51-0.1
				c1.317-0.193,3.312-0.5,5.689-1.587c2.339-1.094,5.144-2.917,7.374-6.027c1.115-1.537,2.104-3.359,2.762-5.452
				c0.136-0.53,0.274-1.069,0.414-1.616c0.124-0.551,0.181-1.124,0.276-1.698c0.126-1.157,0.156-2.357,0.144-3.6
				c-0.02-19.858-0.048-48.583-0.083-84.075c-0.01-17.749-0.02-37.189-0.032-58.059c-0.019-1.297,0.04-2.63-0.043-3.914
				c-0.092-1.287-0.387-2.565-0.887-3.768c-1.031-2.393-2.876-4.447-5.198-5.723c-1.167-0.625-2.442-1.054-3.757-1.261
				c-1.309-0.221-2.675-0.144-4.047-0.157c-2.738,0.001-5.497,0.002-8.276,0.003c-11.117,0.003-22.558,0.007-34.291,0.011
				c-46.932,0.006-98.528,0.013-152.686,0.021c-3.376,0.077-6.825-0.352-9.912,0.964c-3.077,1.189-5.742,3.445-7.338,6.323
				c-0.804,1.432-1.357,2.997-1.637,4.608c-0.307,1.604-0.206,3.267-0.223,4.933c0,3.321,0,6.631-0.001,9.928
				c-0.001,13.19-0.003,26.187-0.004,38.958c-0.005,25.541-0.01,50.178-0.015,73.647c-0.002,5.867-0.004,11.662-0.005,17.379
				c0.008,0.712-0.022,1.434,0.031,2.132c0.032,0.703,0.053,1.406,0.188,2.096l0.159,1.039l0.261,1.016
				c0.146,0.685,0.406,1.333,0.645,1.988c0.991,2.604,2.607,4.937,4.621,6.8c2.008,1.871,4.411,3.285,6.984,4.119
				c0.646,0.195,1.305,0.348,1.957,0.515c0.667,0.093,1.329,0.223,1.996,0.286c1.334,0.094,2.687,0.096,4.038,0.088
				c5.393,0.002,10.7,0.005,15.918,0.007c20.871,0.011,40.312,0.022,58.061,0.032c35.493,0.035,64.215,0.063,84.071,0.083
				c9.921,0.021,17.625,0.038,22.857,0.049c2.608,0.011,4.599,0.02,5.944,0.026C689.506,344.201,690.192,344.219,690.192,344.219
				s-0.686,0.018-2.025,0.027c-1.346,0.006-3.336,0.014-5.944,0.026c-5.232,0.011-12.936,0.028-22.857,0.049
				c-19.856,0.02-48.578,0.048-84.071,0.083c-17.749,0.01-37.19,0.02-58.061,0.032c-5.218,0.002-10.525,0.005-15.918,0.007
				c-1.346,0.009-2.7,0.009-4.079-0.086c-0.684-0.063-1.362-0.196-2.045-0.291c-0.668-0.17-1.343-0.327-2.006-0.526
				c-2.638-0.853-5.1-2.299-7.159-4.214c-2.065-1.908-3.722-4.297-4.741-6.966c-0.245-0.67-0.512-1.335-0.663-2.037l-0.268-1.041
				l-0.164-1.064c-0.138-0.707-0.161-1.428-0.194-2.148c-0.053-0.724-0.024-1.431-0.032-2.147
				c-0.002-5.717-0.004-11.512-0.005-17.379c-0.005-23.469-0.01-48.106-0.015-73.647c-0.001-12.771-0.003-25.768-0.004-38.958
				c0-3.298,0-6.607-0.001-9.928c0.017-1.647-0.089-3.339,0.23-5.021c0.29-1.67,0.864-3.293,1.697-4.777
				c1.654-2.982,4.414-5.32,7.604-6.553c1.596-0.614,3.304-0.973,5.023-0.984c1.698-0.03,3.381-0.008,5.076-0.015
				c54.158,0.007,105.754,0.014,152.686,0.02c11.733,0.004,23.174,0.007,34.291,0.011c2.779,0.001,5.538,0.002,8.276,0.003
				c1.361,0.015,2.74-0.065,4.117,0.166c1.366,0.216,2.69,0.662,3.9,1.313c2.41,1.327,4.321,3.459,5.389,5.943
				c0.518,1.249,0.824,2.575,0.918,3.91c0.083,1.343,0.022,2.633,0.04,3.944c-0.012,20.87-0.022,40.31-0.032,58.059
				c-0.035,35.493-0.063,64.217-0.083,84.075c0.008,1.237-0.026,2.455-0.157,3.623c-0.099,0.58-0.158,1.158-0.285,1.714
				c-0.144,0.552-0.285,1.096-0.424,1.631c-0.672,2.11-1.678,3.945-2.808,5.49c-2.262,3.125-5.097,4.946-7.456,6.031
				c-2.398,1.078-4.405,1.368-5.727,1.544C690.879,344.213,690.192,344.219,690.192,344.219z"/>
		</g>
	</g>
</g>
<g id="Device">
	<g>
		<g>
			<g>
				<g>
					<g>
						<g>
							<g>
								<g>
									<g>
										<g>
											<g>
												<g>
													<path style="fill:#263238;" d="M435.35,365.761l-107.835-0.067c-12.969-0.007-23.478-11.06-23.476-24.69l0.053-284.106
														c0.003-13.637,10.527-24.689,23.504-24.681l107.835,0.067c12.969,0.008,23.478,11.061,23.476,24.69l-0.053,284.107
														C458.851,354.717,448.327,365.769,435.35,365.761z"/>
												</g>
											</g>
										</g>
									</g>
								</g>
							</g>
							<g>
								<g>
									<g>
										<g>
											<g>
												<g>
													<path style="fill:#FFFFFF;" d="M435.317,42.332l-20.907-0.013c-2.803-0.001-5.078,2.495-5.077,5.574l-0.001,3.986
														c0,3.08-2.274,5.576-5.077,5.574L363.5,57.428c-2.803-0.001-5.076-2.5-5.076-5.581l0.001-3.985
														c0-3.08-2.273-5.579-5.076-5.581l-7.353-0.005l-18.299-0.011c-9.088-0.005-16.459,7.734-16.46,17.285l-0.052,277.308
														c-0.002,9.547,7.358,17.287,16.441,17.293l107.62,0.066c9.087,0.006,16.458-7.734,16.46-17.285l0.052-277.309
														C451.759,50.078,444.4,42.338,435.317,42.332z"/>
												</g>
											</g>
										</g>
									</g>
								</g>
							</g>
						</g>
					</g>
				</g>
			</g>
			<g>
				<g>
					<g>
						<path style="fill:#E0E0E0;" d="M340.586,328.045v6.79c0,0.589-0.648,0.946-1.144,0.63l-5.338-3.395
							c-0.461-0.293-0.461-0.968,0-1.261l5.338-3.395C339.938,327.099,340.586,327.456,340.586,328.045z"/>
					</g>
				</g>
				<g>
					<g>
						<path style="fill:#E0E0E0;" d="M384.448,331.377c0,2.591-2.095,4.69-4.68,4.69c-2.585,0-4.68-2.1-4.68-4.69
							c0-2.591,2.095-4.691,4.68-4.691C382.353,326.686,384.448,328.786,384.448,331.377z"/>
					</g>
				</g>
				<g>
					<g>
						<path style="fill:#E0E0E0;" d="M424.812,335.951h-4.896c-1.033,0-1.87-0.837-1.87-1.87v-4.915c0-1.033,0.837-1.87,1.87-1.87
							h4.896c1.033,0,1.87,0.837,1.87,1.87v4.915C426.681,335.114,425.844,335.951,424.812,335.951z"/>
					</g>
				</g>
			</g>
		</g>
		<g>
			<g>
				<path style="fill:#263238;" d="M333.131,79.977c-1.124,0-2.547-0.025-3.971-0.052c-1.7-0.031-3.398-0.06-4.58-0.049
					c-0.002,0-0.004,0-0.006,0c-0.292,0-0.53-0.235-0.534-0.528c-0.004-0.295,0.233-0.537,0.528-0.54
					c1.189-0.015,2.901,0.017,4.613,0.049c1.7,0.032,3.399,0.062,4.58,0.049c0.002,0,0.004,0,0.006,0
					c0.292,0,0.53,0.235,0.534,0.528c0.004,0.295-0.233,0.537-0.528,0.54C333.572,79.976,333.358,79.977,333.131,79.977z"/>
			</g>
			<g>
				<path style="fill:#263238;" d="M327.828,83.543c-0.147,0-0.294-0.061-0.4-0.179l-3.255-3.666
					c-0.184-0.208-0.179-0.522,0.012-0.723l3.174-3.333c0.205-0.213,0.543-0.221,0.755-0.019c0.214,0.203,0.222,0.542,0.019,0.755
					l-2.835,2.977l2.929,3.299c0.195,0.221,0.176,0.558-0.045,0.754C328.081,83.498,327.954,83.543,327.828,83.543z"/>
			</g>
		</g>
		<g>
			<g>
				<circle style="fill:#263238;" cx="439.03" cy="74.276" r="1.66"/>
			</g>
			<g>
				<path style="fill:#263238;" d="M440.69,79.51c0,0.917-0.743,1.66-1.66,1.66c-0.917,0-1.66-0.743-1.66-1.66
					c0-0.917,0.743-1.66,1.66-1.66C439.947,77.85,440.69,78.593,440.69,79.51z"/>
			</g>
			<g>
				<path style="fill:#263238;" d="M440.69,84.743c0,0.917-0.743,1.66-1.66,1.66c-0.917,0-1.66-0.743-1.66-1.66
					c0-0.917,0.743-1.66,1.66-1.66C439.947,83.083,440.69,83.826,440.69,84.743z"/>
			</g>
		</g>
		
			<text transform="matrix(1 0 0 1 349.4811 83.5425)" style="fill:#263238; font-family:'Montserrat-ExtraBold'; font-size:11.041px;">Focus Mode</text>
		<g>
			<path style="fill:#E0E0E0;" d="M451.716,105.551c0,0.144-31.357,0.26-70.028,0.26c-38.685,0-70.035-0.117-70.035-0.26
				s31.35-0.26,70.035-0.26C420.36,105.291,451.716,105.408,451.716,105.551z"/>
		</g>
		<path style="fill:#F5F5F5;" d="M428.175,153.048h-93.408c-7.243,0-13.115-5.872-13.115-13.115v-3.826
			c0-7.243,5.872-13.115,13.115-13.115h93.408c7.243,0,13.115,5.872,13.115,13.115v3.826
			C441.29,147.176,435.419,153.048,428.175,153.048z"/>
		
			<text transform="matrix(1.0149 0 0 1 355.0788 141.0874)" style="fill:#263238; font-family:'Montserrat-ExtraBold'; font-size:8.7276px;">Twitter</text>
		
			<ellipse transform="matrix(0.9231 -0.3847 0.3847 0.9231 -26.927 141.4241)" style="fill:#455A64;" cx="340.047" cy="138.02" rx="8.463" ry="8.463"/>
		<g>
			<path style="fill:#FF725E;" d="M425.215,144.552h-8.035c-0.708,0-1.282-0.574-1.282-1.282v-8.035
				c0-0.708,0.574-1.282,1.282-1.282h8.035c0.708,0,1.282,0.574,1.282,1.282v8.035C426.497,143.978,425.923,144.552,425.215,144.552
				z"/>
			<polyline style="fill:none;stroke:#FFFFFF;stroke-linecap:round;stroke-linejoin:round;stroke-miterlimit:10;" points="
				417.991,139.204 420.471,141.441 424.945,137.064 			"/>
		</g>
		<path style="fill:#F5F5F5;" d="M428.175,189.181h-93.408c-7.243,0-13.115-5.872-13.115-13.115v-3.825
			c0-7.243,5.872-13.115,13.115-13.115h93.408c7.243,0,13.115,5.872,13.115,13.115v3.825
			C441.29,183.309,435.419,189.181,428.175,189.181z"/>
		
			<text transform="matrix(1.0149 0 0 1 355.0788 178.2192)" style="fill:#263238; font-family:'Montserrat-ExtraBold'; font-size:8.7276px;">Doc</text>
		<g>
			<path style="fill:none;stroke:#FF725E;stroke-miterlimit:10;" d="M425.215,180.684h-8.035c-0.708,0-1.282-0.574-1.282-1.282
				v-8.035c0-0.708,0.574-1.282,1.282-1.282h8.035c0.708,0,1.282,0.574,1.282,1.282v8.035
				C426.497,180.11,425.923,180.684,425.215,180.684z"/>
		</g>
		<path style="fill:#F5F5F5;" d="M428.175,225.313h-93.408c-7.243,0-13.115-5.872-13.115-13.115v-3.825
			c0-7.243,5.872-13.115,13.115-13.115h93.408c7.243,0,13.115,5.872,13.115,13.115v3.825
			C441.29,219.441,435.419,225.313,428.175,225.313z"/>
		
			<text transform="matrix(1.0149 0 0 1 355.0788 214.352)" style="fill:#263238; font-family:'Montserrat-ExtraBold'; font-size:8.7276px;">Gmail</text>
		<g>
			<path style="fill:#FF725E;" d="M425.215,216.817h-8.035c-0.708,0-1.282-0.574-1.282-1.282V207.5c0-0.708,0.574-1.282,1.282-1.282
				h8.035c0.708,0,1.282,0.574,1.282,1.282v8.035C426.497,216.243,425.923,216.817,425.215,216.817z"/>
			<polyline style="fill:none;stroke:#FFFFFF;stroke-linecap:round;stroke-linejoin:round;stroke-miterlimit:10;" points="
				417.991,211.469 420.471,213.706 424.945,209.329 			"/>
		</g>
		<path style="fill:#F5F5F5;" d="M428.175,261.446h-93.408c-7.243,0-13.115-5.872-13.115-13.115v-3.826
			c0-7.243,5.872-13.115,13.115-13.115h93.408c7.243,0,13.115,5.872,13.115,13.115v3.826
			C441.29,255.574,435.419,261.446,428.175,261.446z"/>
		
			<text transform="matrix(1.0149 0 0 1 355.0788 249.4858)" style="fill:#263238; font-family:'Montserrat-ExtraBold'; font-size:8.7276px;">Whatsapp</text>
		
			<ellipse transform="matrix(0.9011 -0.4336 0.4336 0.9011 -73.2152 171.7979)" style="fill:#455A64;" cx="340.047" cy="246.418" rx="9.078" ry="9.078"/>
		
			<ellipse transform="matrix(0.9011 -0.4336 0.4336 0.9011 -58.3084 168.3983)" style="fill:#455A64;" cx="340.047" cy="212.036" rx="9.078" ry="9.078"/>
		
			<ellipse transform="matrix(0.7071 -0.7071 0.7071 0.7071 -23.6479 291.2142)" style="fill:#455A64;" cx="339.703" cy="174.153" rx="9.078" ry="9.078"/>
		<g>
			<path style="fill:#FF725E;" d="M425.215,252.949h-8.035c-0.708,0-1.282-0.574-1.282-1.282v-8.035
				c0-0.708,0.574-1.282,1.282-1.282h8.035c0.708,0,1.282,0.574,1.282,1.282v8.035C426.497,252.376,425.923,252.949,425.215,252.949
				z"/>
			<polyline style="fill:none;stroke:#FFFFFF;stroke-linecap:round;stroke-linejoin:round;stroke-miterlimit:10;" points="
				417.991,247.602 420.471,249.839 424.945,245.462 			"/>
		</g>
		<path style="fill:#F5F5F5;" d="M428.175,297.578h-93.408c-7.243,0-13.115-5.872-13.115-13.115v-3.826
			c0-7.243,5.872-13.115,13.115-13.115h93.408c7.243,0,13.115,5.872,13.115,13.115v3.826
			C441.29,291.707,435.419,297.578,428.175,297.578z"/>
		
			<text transform="matrix(1.0149 0 0 1 355.0788 285.6196)" style="fill:#263238; font-family:'Montserrat-ExtraBold'; font-size:8.7276px;">YouTube</text>
		<g>
			<path style="fill:#FF725E;" d="M425.215,289.082h-8.035c-0.708,0-1.282-0.574-1.282-1.282v-8.035
				c0-0.708,0.574-1.282,1.282-1.282h8.035c0.708,0,1.282,0.574,1.282,1.282v8.035C426.497,288.508,425.923,289.082,425.215,289.082
				z"/>
			<polyline style="fill:none;stroke:#FFFFFF;stroke-linecap:round;stroke-linejoin:round;stroke-miterlimit:10;" points="
				417.991,283.734 420.471,285.971 424.945,281.595 			"/>
		</g>
		<path id="XMLID_7_" style="fill:#FFFFFF;" d="M335.965,140.585c0.741,0.475,1.622,0.753,2.567,0.753
			c3.109,0,4.866-2.626,4.76-4.982c0.327-0.236,0.611-0.531,0.836-0.867c-0.301,0.133-0.623,0.223-0.962,0.264
			c0.346-0.207,0.611-0.535,0.736-0.926c-0.324,0.192-0.682,0.331-1.063,0.407c-0.306-0.326-0.741-0.529-1.223-0.529
			c-1.081,0-1.875,1.009-1.631,2.056c-1.392-0.07-2.626-0.737-3.452-1.75c-0.439,0.753-0.228,1.738,0.518,2.236
			c-0.275-0.009-0.533-0.084-0.759-0.21c-0.018,0.776,0.538,1.502,1.343,1.664c-0.236,0.064-0.494,0.079-0.756,0.028
			c0.213,0.666,0.831,1.149,1.564,1.163C337.741,140.443,336.854,140.689,335.965,140.585z"/>
		<g id="XMLID_38_">
			<path id="XMLID_40_" style="fill-rule:evenodd;clip-rule:evenodd;fill:#FFFFFF;" d="M345.009,246.167
				c-0.066-2.615-2.22-4.715-4.872-4.715c-2.62,0-4.756,2.051-4.87,4.626c-0.002,0.071-0.004,0.142-0.004,0.212
				c0,0.915,0.256,1.769,0.698,2.499l-0.879,2.595l2.7-0.858c0.698,0.383,1.502,0.602,2.355,0.602c2.693,0,4.874-2.166,4.874-4.838
				C345.011,246.249,345.011,246.208,345.009,246.167z M340.137,250.357c-0.833,0-1.607-0.247-2.255-0.673l-1.575,0.502l0.511-1.511
				c-0.491-0.671-0.781-1.495-0.781-2.385c0-0.132,0.007-0.265,0.021-0.395c0.201-2.058,1.953-3.672,4.078-3.672
				c2.152,0,3.921,1.654,4.085,3.749c0.009,0.105,0.014,0.21,0.014,0.317C344.236,248.533,342.396,250.357,340.137,250.357z"/>
			<path id="XMLID_39_" style="fill-rule:evenodd;clip-rule:evenodd;fill:#FFFFFF;" d="M342.371,247.267
				c-0.121-0.059-0.707-0.347-0.817-0.385c-0.11-0.041-0.19-0.059-0.269,0.059c-0.08,0.119-0.31,0.386-0.379,0.463
				c-0.071,0.08-0.139,0.089-0.26,0.03c-0.119-0.059-0.504-0.183-0.961-0.589c-0.354-0.313-0.596-0.701-0.664-0.819
				c-0.068-0.119-0.007-0.182,0.052-0.242c0.055-0.055,0.119-0.139,0.18-0.208c0.016-0.021,0.03-0.039,0.043-0.057
				c0.027-0.043,0.048-0.085,0.075-0.142c0.041-0.08,0.021-0.148-0.009-0.208c-0.03-0.059-0.269-0.644-0.37-0.881
				c-0.098-0.237-0.198-0.196-0.269-0.196c-0.069,0-0.148-0.011-0.228-0.011c-0.08,0-0.21,0.03-0.319,0.148
				c-0.109,0.119-0.418,0.406-0.418,0.991c0,0.137,0.025,0.274,0.062,0.404c0.121,0.418,0.381,0.762,0.427,0.822
				c0.059,0.077,0.826,1.314,2.04,1.791c1.216,0.472,1.216,0.315,1.435,0.294c0.219-0.018,0.707-0.285,0.806-0.564
				c0.1-0.276,0.1-0.514,0.071-0.564C342.57,247.356,342.49,247.326,342.371,247.267z"/>
		</g>
		<g>
			<g>
				<path style="fill:#FFFFFF;" d="M335.486,172.823c2.811,0,5.622,0,8.433,0c0.804,0,0.806-1.25,0-1.25c-2.811,0-5.622,0-8.433,0
					C334.682,171.573,334.68,172.823,335.486,172.823L335.486,172.823z"/>
			</g>
			<g>
				<path style="fill:#FFFFFF;" d="M335.486,175.263c2.811,0,5.622,0,8.433,0c0.804,0,0.806-1.25,0-1.25c-2.811,0-5.622,0-8.433,0
					C334.682,174.013,334.68,175.263,335.486,175.263L335.486,175.263z"/>
			</g>
			<g>
				<path style="fill:#FFFFFF;" d="M335.486,177.703c1.642,0,3.283,0,4.924,0c0.804,0,0.806-1.25,0-1.25c-1.641,0-3.283,0-4.924,0
					C334.682,176.453,334.68,177.703,335.486,177.703L335.486,177.703z"/>
			</g>
		</g>
		<circle style="fill:#455A64;" cx="340.047" cy="282.868" r="9.078"/>
		<g>
			<path style="fill:#FFFFFF;" d="M338.342,285.207v-5.313c0-0.259,0.279-0.422,0.504-0.295l4.749,2.677
				c0.23,0.13,0.229,0.462-0.002,0.59l-4.749,2.636C338.619,285.628,338.342,285.465,338.342,285.207z"/>
		</g>
		<g>
			<path style="fill:#FFFFFF;" d="M344.49,216.267h-9.055c-0.63,0-1.141-0.511-1.141-1.141v-6.011c0-0.63,0.511-1.141,1.141-1.141
				h9.055c0.63,0,1.141,0.511,1.141,1.141v6.011C345.631,215.756,345.12,216.267,344.49,216.267z"/>
			<polyline style="fill:none;stroke:#455A64;stroke-linecap:round;stroke-linejoin:round;stroke-miterlimit:10;" points="
				335.524,215.195 335.524,209.131 340.141,211.738 344.419,209.131 344.419,215.195 			"/>
		</g>
	</g>
</g>
<g id="Focus_Icon">
	<g>
		
			<ellipse transform="matrix(0.9206 -0.3904 0.3904 0.9206 -10.314 101.3009)" style="fill:#F5F5F5;" cx="244.016" cy="76.02" rx="32.646" ry="32.646"/>
		
			<ellipse transform="matrix(0.9259 -0.3777 0.3777 0.9259 -10.6391 97.784)" style="fill:#E0E0E0;" cx="244.016" cy="76.02" rx="26.553" ry="26.553"/>
		
			<ellipse transform="matrix(0.922 -0.3872 0.3872 0.922 -10.4019 100.4)" style="fill:#263238;" cx="244.016" cy="76.02" rx="18.989" ry="18.989"/>
		
			<ellipse transform="matrix(0.1598 -0.9871 0.9871 0.1598 129.9746 304.7502)" style="fill:#E0E0E0;" cx="244.016" cy="76.02" rx="7.28" ry="7.28"/>
	</g>
</g>
<g id="Notifications_Icon">
	<g>
		<g>
			
				<ellipse transform="matrix(0.2687 -0.9632 0.9632 0.2687 287.6742 569.6246)" style="fill:#F5F5F5;" cx="518.955" cy="95.369" rx="47.742" ry="47.742"/>
		</g>
		<path style="fill:#455A64;" d="M545.022,119.236l-7.048-8.1l-0.006-19.399c-0.003-9.508-6.992-17.383-16.111-18.773l-0.003-8.113
			l-5.115,0.002l0.003,8.028c-9.443,1.104-16.771,9.129-16.767,18.868l0.006,18.461l-7.092,9.042l19.347-0.006
			c0.797,2.006,2.372,3.713,4.367,4.549c2.808,1.176,6.272,0.58,8.525-1.466c0.928-0.842,1.615-1.918,2.058-3.088L545.022,119.236z"
			/>
		<g>
			<g>
				<g>
					<g>
						<g>
							<path style="fill:#FF725E;" d="M554.597,82.516c0,6.687-5.421,12.107-12.107,12.107s-12.107-5.421-12.107-12.107
								c0-6.687,5.421-12.107,12.107-12.107S554.597,75.829,554.597,82.516z"/>
						</g>
					</g>
				</g>
			</g>
			<g>
				<g>
					<g>
						<g>
							<g>
								<g>
									
										<rect x="541.573" y="76.69" transform="matrix(0.7071 0.7071 -0.7071 0.7071 217.0647 -359.7645)" style="fill:#FFFFFF;" width="2.426" height="10.872"/>
								</g>
							</g>
						</g>
					</g>
				</g>
				<g>
					<g>
						<g>
							<g>
								<g>
									
										<rect x="541.573" y="76.69" transform="matrix(0.7071 -0.7071 0.7071 0.7071 100.9162 407.8751)" style="fill:#FFFFFF;" width="2.426" height="10.872"/>
								</g>
							</g>
						</g>
					</g>
				</g>
			</g>
		</g>
	</g>
</g>
<g id="Plant">
	<g>
		<g>
			<path style="fill:#263238;" d="M100.725,435.6c0,0-6.835-46.993-6.266-74.335c0.57-27.342-0.034-58.101-0.034-58.101h3.15
				c0,0-2.133,54.27,0.189,87.002c2.32,32.706,8.432,45.434,8.432,45.434H100.725"/>
			<path style="fill:#455A64;" d="M121.085,250.29c-0.633-1.605-1.412-3.278-2.87-4.202c-1.998-1.266-4.618-0.74-6.848,0.049
				c-9.517,3.366-17.953,21.11-21.8,30.443l12.635,42.572C125.007,297.996,128.956,270.241,121.085,250.29z"/>
			<g>
				<path style="fill:#263238;" d="M117.478,247.811c0.016,0.007-0.047,0.198-0.184,0.555c-0.163,0.408-0.367,0.921-0.619,1.551
					c-0.554,1.339-1.331,3.288-2.26,5.706c-1.862,4.834-4.231,11.593-6.35,19.207c-2.11,7.619-3.564,14.633-4.46,19.736
					c-0.451,2.551-0.789,4.621-1.005,6.054c-0.11,0.669-0.199,1.215-0.27,1.648c-0.067,0.376-0.111,0.573-0.129,0.57
					c-0.018-0.002-0.009-0.203,0.025-0.584c0.045-0.437,0.103-0.987,0.173-1.662c0.154-1.443,0.438-3.524,0.843-6.088
					c0.805-5.127,2.206-12.174,4.322-19.814c2.124-7.635,4.556-14.394,6.509-19.203c0.975-2.405,1.805-4.335,2.416-5.651
					c0.288-0.615,0.522-1.116,0.709-1.513C117.366,247.981,117.461,247.804,117.478,247.811z"/>
			</g>
			<path style="fill:#455A64;" d="M96.587,329.36c-11.843-6.544-18.822-18.855-19.474-32.369
				c-0.455-9.447,2.447-18.718,5.736-27.586c0.285-0.769,0.624-1.598,1.338-2.003c0.993-0.563,2.236-0.062,3.229,0.503
				c8.606,4.9,13.82,14.243,16.594,23.749c1.846,6.326,2.802,12.996,1.948,19.53C105.103,317.718,101.368,324.827,96.587,329.36"/>
			<g>
				<path style="fill:#263238;" d="M96.587,329.36c-0.018,0-0.033-0.197-0.046-0.571c-0.008-0.431-0.019-0.972-0.031-1.634
					c-0.004-1.418-0.061-3.47-0.177-6.001c-0.228-5.063-0.892-12.042-2.198-19.667c-1.314-7.625-2.908-14.453-4.083-19.389
					c-0.579-2.415-1.054-4.394-1.402-5.844c-0.148-0.646-0.268-1.173-0.365-1.594c-0.078-0.366-0.11-0.56-0.093-0.565
					c0.017-0.005,0.084,0.181,0.194,0.538c0.121,0.414,0.273,0.933,0.459,1.569c0.389,1.365,0.927,3.348,1.563,5.806
					c1.267,4.916,2.921,11.743,4.239,19.39c1.31,7.646,1.919,14.659,2.053,19.74c0.069,2.54,0.07,4.598,0.012,6.017
					c-0.027,0.663-0.049,1.203-0.067,1.635C96.624,329.165,96.604,329.361,96.587,329.36z"/>
			</g>
			<g style="opacity:0.3;">
				<path d="M96.587,329.36c-11.843-6.544-18.822-18.855-19.474-32.369c-0.455-9.447,2.447-18.718,5.736-27.586
					c0.285-0.769,0.624-1.598,1.338-2.003c0.993-0.563,2.236-0.062,3.229,0.503c8.606,4.9,13.82,14.243,16.594,23.749
					c1.846,6.326,2.802,12.996,1.948,19.53C105.103,317.718,101.368,324.827,96.587,329.36"/>
			</g>
			<path style="fill:#455A64;" d="M109.948,401.263c11.656,2.561,21.253,10.782,32.498,14.779c7.44,2.645,15.853,3.581,21.793,8.783
				c-1.425-3.599-4.804-5.995-8.087-8.046c-9.247-5.776-19.149-10.503-29.455-14.062c-5.29-1.827-11.03-3.353-16.421-1.849"/>
			<path style="fill:#455A64;" d="M93.096,411.647c-14.597-0.235-29.966-12.663-44.496-13.404
				C63.805,393.333,85.576,397.343,93.096,411.647"/>
			<path style="fill:#455A64;" d="M98.799,376.63c7.412-2.672,15.551-2.798,23.336-1.588c7.786,1.21,15.305,3.706,22.782,6.192
				c-0.749-5.065-4.851-8.873-8.704-12.244c-2.899-2.536-5.821-5.089-9.148-7.032c-3.327-1.942-7.122-3.258-10.971-3.095
				c-4.643,0.197-9.064,2.592-12.109,6.103C100.941,368.478,99.303,372.011,98.799,376.63"/>
			<path style="fill:#455A64;" d="M68.841,360.514c-9.189-7.845-23.107-7.078-35.186-6.806
				c18.568,8.878,38.577,21.049,54.568,34.005C88.714,379.174,80.448,370.423,68.841,360.514z"/>
			<g style="opacity:0.3;">
				<path d="M68.841,360.514c-9.189-7.845-23.107-7.078-35.186-6.806c18.568,8.878,38.577,21.049,54.568,34.005
					C88.714,379.174,80.448,370.423,68.841,360.514z"/>
			</g>
			<path style="fill:#455A64;" d="M102.932,349.685c4.62-3.08,9.295-6.016,14.131-8.214c4.836-2.197,9.349-5.698,14.02-8.227
				c6.057-3.28,11.304-7.839,16.864-11.905c5.56-4.066,11.667-7.736,18.47-8.813c-5.548-1.145-11.344-0.52-16.809,0.972
				c-5.464,1.492-10.655,3.828-15.82,6.155c-7.168,3.229-14.46,6.538-20.32,11.78C107.609,336.674,102.313,341.847,102.932,349.685"
				/>
			<g>
				<path style="fill:#263238;" d="M142.179,411.647c-0.009,0.016-0.168-0.054-0.462-0.199c-0.345-0.178-0.765-0.396-1.274-0.66
					c-1.099-0.585-2.677-1.452-4.665-2.451c-0.984-0.519-2.074-1.062-3.257-1.617c-1.171-0.582-2.443-1.155-3.79-1.738
					c-2.695-1.151-5.705-2.353-8.988-3.133c-3.272-0.803-6.534-0.979-9.363-0.235c-1.428,0.345-2.772,0.685-3.967,1.185
					c-1.2,0.486-2.271,1.055-3.203,1.644c-1.87,1.177-3.177,2.426-4.025,3.325c-0.846,0.906-1.257,1.46-1.295,1.432
					c-0.014-0.011,0.076-0.158,0.262-0.429c0.182-0.274,0.478-0.66,0.882-1.138c0.81-0.95,2.096-2.259,3.976-3.499
					c0.937-0.62,2.019-1.219,3.238-1.734c1.217-0.529,2.592-0.893,4.021-1.252c2.892-0.79,6.281-0.622,9.594,0.195
					c3.334,0.793,6.359,2.018,9.061,3.2c1.35,0.598,2.621,1.189,3.787,1.789c1.18,0.574,2.264,1.137,3.238,1.678
					c1.971,1.043,3.524,1.961,4.594,2.601c0.49,0.298,0.895,0.544,1.226,0.745C142.046,411.532,142.188,411.631,142.179,411.647z"/>
			</g>
			<g>
				<path style="fill:#263238;" d="M82.208,404.413c0.013-0.034,0.337,0.063,0.914,0.267c0.58,0.196,1.397,0.546,2.378,1.034
					c1.964,0.97,4.548,2.622,6.974,4.945c2.42,2.332,4.174,4.848,5.222,6.772c0.527,0.961,0.909,1.763,1.128,2.335
					c0.228,0.569,0.337,0.888,0.304,0.903c-0.084,0.037-0.629-1.199-1.75-3.053c-1.116-1.854-2.885-4.288-5.264-6.581
					c-2.385-2.284-4.888-3.954-6.785-4.995C83.431,404.994,82.174,404.499,82.208,404.413z"/>
			</g>
			<g>
				<path style="fill:#263238;" d="M49.912,359.781c0.006-0.017,0.22,0.047,0.622,0.184c0.452,0.161,1.033,0.368,1.752,0.624
					c0.778,0.287,1.702,0.628,2.763,1.019c1.076,0.4,2.246,0.99,3.568,1.573c5.256,2.386,12.249,6.401,19.004,12.108
					c3.331,2.899,6.343,5.847,8.862,8.727c2.509,2.886,4.634,5.6,6.29,7.969c1.666,2.361,2.93,4.327,3.796,5.688
					c0.41,0.643,0.741,1.162,0.999,1.565c0.226,0.359,0.338,0.553,0.324,0.564c-0.015,0.01-0.155-0.163-0.41-0.504
					c-0.255-0.34-0.626-0.848-1.081-1.513c-0.919-1.327-2.227-3.259-3.926-5.585c-1.689-2.334-3.834-5.012-6.35-7.866
					c-2.526-2.848-5.53-5.767-8.84-8.649c-6.713-5.671-13.629-9.71-18.823-12.171c-1.307-0.602-2.461-1.213-3.523-1.638
					c-1.046-0.422-1.956-0.789-2.722-1.098c-0.704-0.293-1.273-0.53-1.715-0.714C50.108,359.895,49.906,359.798,49.912,359.781z"/>
			</g>
			<g>
				<path style="fill:#263238;" d="M120.702,368.426c-0.01,0.035-0.425-0.021-1.164-0.15c-0.402-0.074-0.846-0.156-1.341-0.247
					c-0.521-0.101-1.13-0.103-1.793-0.172c-2.625-0.19-6.449,0.026-10.032,1.979c-1.808,0.915-3.324,2.149-4.565,3.387
					c-1.259,1.228-2.215,2.509-2.935,3.628c-1.465,2.242-1.917,3.861-2.006,3.83c-0.028-0.007,0.053-0.419,0.297-1.138
					c0.268-0.706,0.682-1.732,1.397-2.886c0.692-1.164,1.636-2.495,2.906-3.771c1.251-1.286,2.801-2.567,4.663-3.511
					c3.696-2.014,7.651-2.176,10.307-1.886c0.672,0.093,1.287,0.122,1.81,0.252c0.493,0.124,0.937,0.236,1.337,0.337
					C120.314,368.269,120.711,368.391,120.702,368.426z"/>
			</g>
			<g>
				<path style="fill:#263238;" d="M135.372,322.914c0.008,0.016-0.182,0.133-0.552,0.34c-0.42,0.228-0.96,0.522-1.629,0.884
					c-1.416,0.763-3.454,1.889-5.93,3.348c-2.464,1.478-5.368,3.294-8.456,5.502c-3.079,2.212-6.388,4.785-9.441,7.91
					c-1.506,1.572-2.894,3.214-3.862,5c-0.956,1.836-1.87,3.611-2.71,5.315c-1.688,3.405-3.063,6.539-4.056,9.232
					c-0.99,2.695-1.607,4.938-1.973,6.501c-0.374,1.562-0.508,2.443-0.56,2.435c-0.018-0.003,0.003-0.225,0.058-0.646
					c0.053-0.421,0.141-1.042,0.303-1.832c0.307-1.583,0.873-3.856,1.825-6.583c0.954-2.725,2.301-5.892,3.971-9.319
					c0.831-1.715,1.738-3.498,2.688-5.339c1.005-1.867,2.414-3.532,3.94-5.127c3.091-3.163,6.427-5.737,9.538-7.939
					c3.119-2.197,6.053-3.987,8.548-5.429c2.507-1.423,4.576-2.501,6.022-3.21c0.687-0.328,1.243-0.592,1.675-0.798
					C135.158,322.983,135.364,322.897,135.372,322.914z"/>
			</g>
			<g>
				<path style="fill:#263238;" d="M94.441,367.111c-0.036,0.005-0.137-0.434-0.29-1.23c-0.171-0.901-0.384-2.03-0.639-3.372
					c-0.556-2.841-1.406-6.755-2.76-10.954c-1.342-4.205-2.975-7.863-4.169-10.501c-0.567-1.244-1.043-2.291-1.423-3.125
					c-0.332-0.741-0.5-1.158-0.468-1.174c0.032-0.016,0.262,0.371,0.65,1.084c0.388,0.713,0.932,1.754,1.574,3.057
					c1.281,2.603,2.979,6.262,4.332,10.499c1.364,4.231,2.162,8.182,2.627,11.048c0.229,1.435,0.393,2.599,0.476,3.407
					C94.443,366.657,94.477,367.105,94.441,367.111z"/>
			</g>
			<path style="fill:#455A64;" d="M93.385,333.901c-0.366-5.515-2.163-10.874-4.747-15.759
				c-7.085-13.395-20.401-23.325-35.26-26.295c10.881,16.218,21.763,32.436,32.644,48.655l4.216,8.684
				C93.114,344.467,93.752,339.416,93.385,333.901z"/>
		</g>
		<g>
			<g>
				<rect x="64.304" y="429.787" style="fill:#FF725E;" width="75.907" height="13.454"/>
			</g>
			<g>
				<polygon style="fill:#FF725E;" points="69.973,440.572 76.436,482.318 126.829,482.318 134.542,440.572 				"/>
			</g>
			<g>
				<g>
					<path style="fill:#263238;" d="M140.169,443.258c0,0.148-17.122,0.267-38.238,0.267c-21.123,0-38.241-0.119-38.241-0.267
						c0-0.147,17.118-0.267,38.241-0.267C123.047,442.991,140.169,443.111,140.169,443.258z"/>
				</g>
			</g>
		</g>
	</g>
</g>
<g id="Character">
	<g>
		<g>
			<g>
				<g>
					<g>
						<path style="fill:#263238;" d="M262.906,130.36c-12.224-2.078-22.969,2.629-33.278,9.519
							c-10.309,6.89-18.072,17.29-22.555,28.85c-4.721,12.176-5.87,25.878-2.242,38.423c3.628,12.546,12.22,23.776,23.864,29.69
							c15.9,8.076,36.236,5.259,50.462-5.496c14.226-10.756,22.358-28.54,23.041-46.361c0.47-12.278-2.464-24.839-9.325-35.031
							C286.012,139.761,275.063,132.145,262.906,130.36"/>
					</g>
				</g>
				<g>
					<g>
						<g>
							<g>
								<path style="fill:#263238;" d="M228.143,171.927c1.788-4.677,1.095-9.898,1.802-14.854
									c1.558-10.914,10.352-19.665,20.523-23.921c9.461-3.958,21.017-3.095,32.414,0.59c7.813,2.525,15.166,6.93,20.375,13.276
									c6.913,8.424,9.349,20.323,6.301,30.785l-55.841-8.133c-5.228,4.325-10.581,8.724-16.922,11.135
									c-1.861,0.708-3.863,1.24-5.829,0.929c-1.966-0.312-3.877-1.648-4.343-3.584
									C226.113,176.038,227.366,173.959,228.143,171.927z"/>
							</g>
						</g>
					</g>
					<g>
						<g>
							<g>
								<path style="fill:#FFBF9D;" d="M284.076,149.159l-48.752,10.329c-4.716,0.314-8.408,4.185-8.498,8.912l0.586,105.506
									c0.04,7.207,2.455,14.2,6.871,19.896l4.649,5.997c10.601,13.672,32.074,12.294,40.172-2.993
									c0.566-1.068,0.957-2.004,1.122-2.762c0.164-0.949,0.415-1.575,0.459-2.382l0.929-10.286
									c0.475-9.394,0.54-18.939,0.543-18.851c0,0,19.952-2.522,25.063-28.227c2.542-12.784,2.715-33.899,2.298-51.18
									C309.142,167.561,299.6,148.123,284.076,149.159z"/>
							</g>
						</g>
					</g>
					<g>
						<g>
							<g>
								<g>
									<g>
										<g>
											<g>
												<g>
													<g>
														<g>
															<g>
																<g>
																	<g>
																		<g>
																			<g>
																				<g>
																					<g>
																						<g>
																							<g>
																								<path style="fill:#263238;" d="M302.101,202.915c-0.006,1.754-1.497,3.196-3.328,3.223
																									c-1.828,0.027-3.31-1.369-3.304-3.124c0.007-1.754,1.497-3.197,3.325-3.224
																									C300.626,199.763,302.108,201.161,302.101,202.915z"/>
																							</g>
																						</g>
																					</g>
																				</g>
																			</g>
																		</g>
																	</g>
																</g>
															</g>
														</g>
													</g>
												</g>
											</g>
										</g>
									</g>
								</g>
								<g>
									<g>
										<g>
											<g>
												<g>
													<g>
														<g>
															<g>
																<g>
																	<g>
																		<g>
																			<g>
																				<g>
																					<g>
																						<g>
																							<g>
																								<g>
																									<path style="fill:#263238;" d="M304.516,193.909c-0.428,0.417-2.869-1.54-6.439-1.67
																										c-3.564-0.18-6.255,1.555-6.625,1.103c-0.183-0.201,0.267-0.965,1.439-1.752
																										c1.155-0.783,3.102-1.513,5.325-1.418c2.223,0.099,4.061,0.99,5.104,1.869
																										C304.385,192.926,304.727,193.723,304.516,193.909z"/>
																								</g>
																							</g>
																						</g>
																					</g>
																				</g>
																			</g>
																		</g>
																	</g>
																</g>
															</g>
														</g>
													</g>
												</g>
											</g>
										</g>
									</g>
								</g>
							</g>
							<g>
								<g>
									<g>
										<g>
											<g>
												<g>
													<g>
														<g>
															<g>
																<g>
																	<g>
																		<g>
																			<g>
																				<g>
																					<g>
																						<g>
																							<g>
																								<path style="fill:#263238;" d="M270.107,202.114c-0.005,1.754-1.496,3.195-3.328,3.223
																									c-1.828,0.027-3.309-1.369-3.303-3.123c0.006-1.754,1.497-3.198,3.325-3.225
																									C268.633,198.961,270.113,200.36,270.107,202.114z"/>
																							</g>
																						</g>
																					</g>
																				</g>
																			</g>
																		</g>
																	</g>
																</g>
															</g>
														</g>
													</g>
												</g>
											</g>
										</g>
									</g>
								</g>
								<g>
									<g>
										<g>
											<g>
												<g>
													<g>
														<g>
															<g>
																<g>
																	<g>
																		<g>
																			<g>
																				<g>
																					<g>
																						<g>
																							<g>
																								<g>
																									<path style="fill:#263238;" d="M270.621,193.039c-0.43,0.417-2.873-1.54-6.441-1.669
																										c-3.563-0.181-6.255,1.554-6.625,1.102c-0.182-0.201,0.263-0.965,1.44-1.751
																										c1.155-0.784,3.101-1.514,5.324-1.419c2.223,0.099,4.061,0.99,5.104,1.87
																										C270.486,192.057,270.83,192.854,270.621,193.039z"/>
																								</g>
																							</g>
																						</g>
																					</g>
																				</g>
																			</g>
																		</g>
																	</g>
																</g>
															</g>
														</g>
													</g>
												</g>
											</g>
										</g>
									</g>
								</g>
							</g>
							<g>
								<g>
									<g>
										<g>
											<g>
												<g>
													<g>
														<g>
															<g>
																<g>
																	<g>
																		<g>
																			<g>
																				<g>
																					<g>
																						<g>
																							<g>
																								<path style="fill:#263238;" d="M281.331,220.188c-0.009-0.203,2.224-0.5,5.838-0.821
																									c0.915-0.059,1.785-0.206,1.963-0.822c0.24-0.651-0.103-1.647-0.503-2.725
																									c-0.771-2.239-1.578-4.586-2.427-7.046c-3.359-10.027-5.754-18.258-5.349-18.389
																									c0.405-0.132,3.457,7.889,6.817,17.915c0.806,2.472,1.578,4.828,2.311,7.082
																									c0.305,1.049,0.853,2.247,0.334,3.596c-0.272,0.672-0.961,1.14-1.551,1.275
																									c-0.591,0.155-1.104,0.145-1.556,0.154C283.582,220.462,281.336,220.391,281.331,220.188z"/>
																							</g>
																						</g>
																					</g>
																				</g>
																			</g>
																		</g>
																	</g>
																</g>
															</g>
														</g>
													</g>
												</g>
											</g>
										</g>
									</g>
								</g>
							</g>
							<g>
								<g>
									<g>
										<g>
											<g>
												<g>
													<g>
														<g>
															<g>
																<g>
																	<g>
																		<g>
																			<g>
																				<g>
																					<g>
																						<g>
																							<path style="fill:#FF9A6C;" d="M282.156,262.523c0,0-17.444,0.446-34.281-10.585
																								c0,0,8.014,18.243,33.995,16.827L282.156,262.523z"/>
																						</g>
																					</g>
																				</g>
																			</g>
																		</g>
																	</g>
																</g>
															</g>
														</g>
													</g>
												</g>
											</g>
										</g>
									</g>
								</g>
							</g>
							<g>
								<g>
									<g>
										<g>
											<g>
												<g>
													<g>
														<g>
															<g>
																<g>
																	<g>
																		<g>
																			<g>
																				<g>
																					<g>
																						<g>
																							<path style="fill:#FF9A6C;" d="M279.487,228.732c-1.218-1.747-3.431-2.767-5.673-2.613
																								c-1.555,0.107-3.15,0.793-4.139,2.018c-0.99,1.224-1.257,3.008-0.448,4.243
																								c0.911,1.392,2.911,1.783,4.633,1.365c1.723-0.418,3.232-1.483,4.668-2.546
																								c0.397-0.295,0.803-0.602,1.06-1.016c0.257-0.414,0.33-0.966,0.046-1.328"/>
																						</g>
																					</g>
																				</g>
																			</g>
																		</g>
																	</g>
																</g>
															</g>
														</g>
													</g>
												</g>
											</g>
										</g>
									</g>
								</g>
							</g>
							<g>
								<g>
									<g>
										<g>
											<g>
												<g>
													<g>
														<g>
															<g>
																<g>
																	<g>
																		<g>
																			<g>
																				<g>
																					<g>
																						<g>
																							<g>
																								<path style="fill:#263238;" d="M270.73,222.249c0.582-0.012,0.438,3.863,3.649,6.742
																									c3.202,2.888,7.35,2.613,7.359,3.156c0.045,0.245-0.949,0.717-2.693,0.697
																									c-1.712-0.008-4.188-0.654-6.152-2.415c-1.958-1.764-2.741-4.049-2.811-5.643
																									C269.997,223.16,270.466,222.217,270.73,222.249z"/>
																							</g>
																						</g>
																					</g>
																				</g>
																			</g>
																		</g>
																	</g>
																</g>
															</g>
														</g>
													</g>
												</g>
											</g>
										</g>
									</g>
								</g>
							</g>
						</g>
					</g>
					<g>
						<g>
							<g>
								<g>
									<g>
										<g>
											<g>
												<g>
													<g>
														<g>
															<g>
																<g>
																	<g>
																		<g>
																			<g>
																				<path style="fill:#263238;" d="M270.421,182.444c-0.389,0.957-3.936,0.359-8.142,0.7
																					c-4.216,0.258-7.64,1.352-8.162,0.46c-0.232-0.426,0.393-1.316,1.795-2.203c1.39-0.886,3.584-1.693,6.109-1.876
																					c2.525-0.178,4.811,0.311,6.312,0.991C269.845,181.197,270.59,181.989,270.421,182.444z"/>
																			</g>
																		</g>
																	</g>
																</g>
															</g>
														</g>
													</g>
												</g>
											</g>
										</g>
									</g>
								</g>
							</g>
						</g>
					</g>
					<g>
						<g>
							<g>
								<g>
									<g>
										<g>
											<g>
												<g>
													<g>
														<g>
															<g>
																<g>
																	<g>
																		<g>
																			<g>
																				<path style="fill:#263238;" d="M304.087,178.26c-0.659,0.785-3.085-0.151-6.041-0.306
																					c-2.949-0.258-5.482,0.333-6.025-0.537c-0.237-0.421,0.189-1.218,1.313-1.943
																					c1.108-0.723,2.936-1.278,4.966-1.138c2.029,0.143,3.761,0.947,4.757,1.816
																					C304.068,177.026,304.379,177.875,304.087,178.26z"/>
																			</g>
																		</g>
																	</g>
																</g>
															</g>
														</g>
													</g>
												</g>
											</g>
										</g>
									</g>
								</g>
							</g>
						</g>
					</g>
					<g>
						<g>
							<g>
								<path style="fill:#263238;" d="M219.206,164.398c5.054-14.845,27.122-35.073,42.741-33.669l24.679,15.478
									c-1.681,8.481-8.4,15.761-16.72,18.115c-4.443,1.257-9.769,1.52-12.47,5.266c-2.759,3.824-1.304,9.502-3.88,13.452
									c-3.57,5.474-13.019,5.023-15.734,10.967c-1.186,2.598-0.656,5.739-1.888,8.315c-1.642,3.432-10.496,7.648-14.098,6.426
									c-3.603-1.222-3.49-7.395-4.611-10.654c-1.915-5.568-1.023-8.416-0.296-11.491
									C218.653,179.323,216.795,171.481,219.206,164.398z"/>
							</g>
						</g>
					</g>
					<g>
						<g>
							<g>
								<g>
									<g>
										<g>
											<path style="fill:#FFBF9D;" d="M232.472,212.016c0.07-1.926-1.98-6.554-3.871-6.925
												c-5.049-0.989-14.221-0.936-14.807,11.961c-0.801,17.63,17.065,14.798,17.119,14.293
												C230.956,230.952,232.23,218.668,232.472,212.016z"/>
										</g>
									</g>
								</g>
							</g>
						</g>
					</g>
					<g>
						<g>
							<g>
								<g>
									<g>
										<g>
											<g>
												<path style="fill:#FF9A6C;" d="M225.831,224.422c-0.075-0.06-0.317,0.201-0.846,0.415
													c-0.517,0.208-1.395,0.329-2.298-0.057c-1.832-0.768-3.265-3.797-3.207-6.978c0.028-1.607,0.433-3.119,1.059-4.359
													c0.597-1.265,1.472-2.128,2.417-2.252c0.942-0.174,1.581,0.418,1.774,0.923c0.214,0.505,0.086,0.852,0.178,0.885
													c0.047,0.047,0.391-0.277,0.283-1.012c-0.058-0.354-0.245-0.779-0.644-1.137c-0.407-0.363-1.021-0.566-1.678-0.526
													c-1.364,0.033-2.644,1.228-3.332,2.588c-0.763,1.363-1.257,3.062-1.288,4.866c-0.049,3.558,1.619,6.964,4.135,7.817
													c1.225,0.379,2.277,0.053,2.83-0.339C225.78,224.848,225.891,224.457,225.831,224.422z"/>
											</g>
										</g>
									</g>
								</g>
							</g>
						</g>
					</g>
				</g>
				<g>
					<g>
						<path style="fill:#263238;" d="M281.504,140.875c1.623,7.179,12.533,16.383,17.322,21.972
							c9.137,10.663,10.939,14.204,10.849,38.041c4.314-8.232,7.618-16.3,7.287-25.588c-0.331-9.289-3.753-18.594-10.21-25.279
							C300.294,143.336,290.702,139.542,281.504,140.875"/>
					</g>
				</g>
			</g>
			<path style="fill:#263238;" d="M237.335,120.792c-4.136-3.615-9.684-5.642-15.315-6.389c-8.032-1.066-16.538,0.431-23.264,4.631
				c-6.726,4.2-11.494,11.173-12.129,18.659c-0.635,7.486,3.107,15.287,9.861,19.447c-3.509,4.318-8.184,7.817-13.48,10.09
				c1.732,2.049,4.612,3.04,7.419,3.195c2.806,0.154,5.593-0.425,8.335-1.001c-1.473,2.949-4.12,5.381-7.318,6.723
				c4.581,0.64,9.304-0.258,13.548-1.978c4.244-1.72,8.057-4.231,11.67-6.915c12.478-9.271,19.077-16.893,26.746-29.891
				C244.041,132.13,241.471,124.407,237.335,120.792z"/>
			<circle style="fill:#455A64;" cx="225.846" cy="233.904" r="7.67"/>
			<g>
				<path style="fill:#263238;" d="M212.682,160.639c8.181-15.426,19.792-24.507,30.821-28.166"/>
				<g>
					<path style="fill:#455A64;" d="M243.503,132.473c0.011,0.034-0.54,0.27-1.544,0.666c-0.999,0.409-2.434,1.027-4.147,1.91
						c-3.43,1.746-7.928,4.683-12.189,8.739c-4.26,4.058-7.503,8.329-9.619,11.55c-1.039,1.626-1.882,2.943-2.414,3.883
						c-0.554,0.928-0.876,1.434-0.907,1.418c-0.032-0.017,0.23-0.555,0.73-1.516c0.479-0.974,1.276-2.325,2.281-3.984
						c2.048-3.288,5.271-7.633,9.571-11.728c4.3-4.094,8.883-7.016,12.382-8.69c1.748-0.848,3.215-1.417,4.241-1.77
						C242.918,132.609,243.492,132.438,243.503,132.473z"/>
				</g>
			</g>
			<g>
				<path style="fill:#455A64;" d="M202.371,174.173c0.003-0.008,0.081,0.007,0.232,0.046c0.179,0.05,0.397,0.11,0.662,0.184
					c0.576,0.178,1.439,0.395,2.554,0.65c2.232,0.483,5.53,0.971,9.619,0.855c4.083-0.107,8.935-0.865,14.087-2.498
					c5.161-1.616,10.593-4.1,16.084-7.078c5.485-3,10.633-6.022,15.196-8.937c4.555-2.928,8.48-5.842,11.545-8.553
					c3.079-2.698,5.322-5.149,6.783-6.91c0.748-0.868,1.277-1.583,1.649-2.059c0.172-0.215,0.313-0.392,0.428-0.537
					c0.099-0.12,0.153-0.178,0.161-0.173c0.007,0.005-0.032,0.074-0.117,0.204c-0.105,0.154-0.232,0.34-0.387,0.568
					c-0.345,0.496-0.85,1.233-1.576,2.125c-1.418,1.807-3.632,4.31-6.696,7.058c-3.05,2.761-6.972,5.72-11.528,8.681
					c-4.567,2.949-9.707,5.983-15.209,8.993c-5.509,2.988-10.98,5.476-16.188,7.078c-5.201,1.621-10.103,2.347-14.222,2.408
					c-4.125,0.07-7.443-0.479-9.674-1.025c-1.114-0.287-1.972-0.536-2.54-0.747c-0.26-0.094-0.472-0.17-0.648-0.233
					C202.44,174.214,202.368,174.182,202.371,174.173z"/>
			</g>
		</g>
		<g>
			<path style="fill:#FFBF9D;" d="M352.239,335.996l29.5,53.882l43.211-24.168l21.013,6.935c0,0-53.015,57.48-61.616,60.408
				c-8.601,2.928-24.889,3.462-34.203-8.191c-8.48-10.61-33.159-66.326-33.159-66.326L352.239,335.996z"/>
		</g>
		<g>
			<g>
				<g>
					<g>
						<g>
							<g>
								<g>
									<g>
										<g>
											<g>
												<g>
													<path style="fill:#455A64;" d="M473.675,300.822c-0.768-0.95-1.977-1.429-3.187-1.263l-20.549,2.827
														c-1.802,0.278-3.401,1.31-4.395,2.839l-42.673,65.586l3.282,1.834l22.722-0.715l45.447-70.306L473.675,300.822z"/>
												</g>
											</g>
										</g>
									</g>
								</g>
							</g>
						</g>
					</g>
				</g>
			</g>
			<g>
				<g>
					<g>
						<g>
							<g>
								<g>
									<g>
										<g>
											<g>
												<g>
													<path style="fill:#FFFFFF;" d="M459.131,309.341c0.438,0.384,1.208,0.222,1.721-0.362
														c0.512-0.584,0.572-1.37,0.134-1.754c-0.438-0.384-1.208-0.222-1.721,0.363
														C458.753,308.173,458.693,308.957,459.131,309.341z"/>
												</g>
											</g>
										</g>
									</g>
								</g>
							</g>
						</g>
					</g>
				</g>
			</g>
			<g>
				<g>
					<g>
						<g>
							<g>
								<g>
									<g>
										<g>
											<g>
												<g>
													<g>
														<path style="fill:#263238;" d="M474.322,301.624c0.011,0.085-1.404,0.36-3.972,0.786
															c-2.778,0.43-6.45,0.999-10.891,1.686c-2.322,0.341-4.839,0.71-7.528,1.105c-1.294,0.118-2.442,0.785-3.176,1.871
															c-0.789,1.224-1.6,2.482-2.43,3.77c-3.362,5.182-7.038,10.849-10.897,16.797
															c-7.762,11.902-14.846,22.637-20.026,30.374c-2.523,3.722-4.609,6.799-6.187,9.127
															c-1.484,2.14-2.338,3.301-2.41,3.254c-0.071-0.046,0.647-1.296,2.007-3.517c1.494-2.382,3.469-5.532,5.858-9.341
															c4.992-7.859,11.961-18.67,19.722-30.572c3.888-5.93,7.592-11.579,10.978-16.745c0.85-1.285,1.679-2.539,2.487-3.76
															c0.901-1.347,2.477-2.171,3.909-2.27c2.7-0.342,5.228-0.662,7.559-0.957c4.469-0.53,8.162-0.968,10.957-1.299
															C472.873,301.654,474.311,301.539,474.322,301.624z"/>
													</g>
												</g>
											</g>
										</g>
									</g>
								</g>
							</g>
						</g>
					</g>
				</g>
			</g>
		</g>
		<g>
			<g>
				<g>
					<g>
						<g>
							<g>
								<g>
									<g>
										<g>
											<g>
												<g>
													<path style="fill:#FFBF9D;" d="M451.528,325.071c0,0-1.833-0.329-2.835,4.681c-1.002,5.011-4.233,19.381-4.233,19.381
														l-9.597-5.098l-12.005,1.563c0,0-2.619,2.42-0.698,3.735c1.921,1.314,9.51,2.669,9.51,2.669l5.596,8.047l-16.062-7.743
														c0,0-5.359,1.397-3.79,4.668c1.57,3.271,12.4,13.504,12.4,13.504l-8.046-0.61l-9.569-5.811
														c0,0-2.936,0.133-1.841,2.634c1.095,2.501,11.046,11.536,11.046,11.536l12.067,5.855c0,0,6.588-0.517,7.219-2.452
														c0.632-1.935,0.793-4.694,0.793-4.694s3.497-0.942,4.15-2.639c0.653-1.696,0.233-4.379,0.233-4.379
														s5.489,0.964,6.17-2.096c0.682-3.059,0.109-9.087-0.445-11.442c-0.553-2.354,2.34-24.23,2.116-24.892
														C453.483,330.83,454.969,323.625,451.528,325.071z"/>
												</g>
											</g>
										</g>
									</g>
								</g>
							</g>
						</g>
					</g>
				</g>
			</g>
			<g>
				<g>
					<g>
						<g>
							<g>
								<g>
									<g>
										<g>
											<g>
												<g>
													<g>
														<path style="fill:#FF9A6C;" d="M441.113,381.657c0.039,0.142-1.126,0.655-3.148,0.978
															c-2.013,0.328-4.896,0.361-7.953-0.361c-3.056-0.732-5.615-2.06-7.265-3.259c-1.66-1.199-2.47-2.181-2.37-2.29
															c0.228-0.311,4.051,3.001,9.921,4.347C436.143,382.512,441.048,381.277,441.113,381.657z"/>
													</g>
												</g>
											</g>
										</g>
									</g>
								</g>
							</g>
						</g>
					</g>
				</g>
			</g>
			<g>
				<g>
					<g>
						<g>
							<g>
								<g>
									<g>
										<g>
											<g>
												<g>
													<g>
														<path style="fill:#FF9A6C;" d="M438.255,377.328c-0.188,0.279-2.326-0.841-4.609-2.717
															c-2.287-1.871-3.804-3.748-3.568-3.987c0.243-0.248,2.112,1.199,4.352,3.031
															C436.665,375.492,438.45,377.042,438.255,377.328z"/>
													</g>
												</g>
											</g>
										</g>
									</g>
								</g>
							</g>
						</g>
					</g>
				</g>
			</g>
			<g>
				<g>
					<g>
						<g>
							<g>
								<g>
									<g>
										<g>
											<g>
												<g>
													<g>
														<path style="fill:#FF9A6C;" d="M444.602,366.918c-0.183,0.278-2.306-0.815-4.445-2.798
															c-2.147-1.976-3.404-4.006-3.142-4.21c0.273-0.219,1.911,1.398,3.981,3.302
															C443.056,365.123,444.798,366.629,444.602,366.918z"/>
													</g>
												</g>
											</g>
										</g>
									</g>
								</g>
							</g>
						</g>
					</g>
				</g>
			</g>
			<g>
				<g>
					<g>
						<g>
							<g>
								<g>
									<g>
										<g>
											<g>
												<g>
													<g>
														<path style="fill:#FF9A6C;" d="M451.28,358.53c-0.329,0.14-1.542-2.126-3.455-4.592
															c-1.892-2.483-3.77-4.237-3.55-4.519c0.186-0.267,2.521,1.135,4.531,3.765
															C450.83,355.802,451.586,358.419,451.28,358.53z"/>
													</g>
												</g>
											</g>
										</g>
									</g>
								</g>
							</g>
						</g>
					</g>
				</g>
			</g>
		</g>
		<g>
			<g>
				<g>
					<g>
						<path style="fill:#FF725E;" d="M356.279,337.044c0,0-19.002-31.684-24.276-38.092c-4.944-6.009-11.314-9.553-15.566-11.414
							c-2.365-1.035-4.854-1.745-7.397-2.187l-27.328-6.051c0,0-0.239,12.397-19.804,13.122
							c-22.498,0.833-35.789-19.386-35.789-19.386s-31.573,4.883-39.128,8.769c-7.555,3.886-19.427,8.822-25.96,41.536
							l-4.585,32.003l54.441,5.033l5.21,80.897l26.999,18.802c0,0,74.85,19.46,79.633,20.746
							c4.783,1.286,6.367-120.445,6.367-120.445S348.322,347.943,356.279,337.044z"/>
					</g>
				</g>
			</g>
		</g>
		<g>
			<path style="fill:#263238;" d="M210.552,323.732c0.144-0.003,0.449,9.542,0.682,21.315c0.233,11.778,0.305,21.325,0.161,21.327
				c-0.144,0.003-0.449-9.539-0.682-21.317C210.48,333.284,210.408,323.735,210.552,323.732z"/>
		</g>
		<g>
			<path style="fill:#263238;" d="M319.852,323.409c0.016-0.009,0.122,0.155,0.309,0.475c0.211,0.373,0.475,0.841,0.799,1.413
				c0.345,0.615,0.763,1.369,1.19,2.276c0.43,0.904,0.969,1.912,1.445,3.081c1.036,2.301,2.081,5.124,3.059,8.316
				c0.926,3.207,1.728,6.798,2.255,10.615c1.063,7.645,0.847,14.652,0.572,19.673c-0.168,2.514-0.333,4.546-0.497,5.945
				c-0.076,0.652-0.138,1.185-0.188,1.611c-0.049,0.368-0.083,0.56-0.101,0.558c-0.018-0.002-0.019-0.197-0.004-0.568
				c0.024-0.428,0.054-0.963,0.09-1.618c0.102-1.403,0.21-3.436,0.331-5.946c0.18-5.015,0.336-11.99-0.72-19.583
				c-0.524-3.792-1.305-7.359-2.199-10.552c-0.946-3.178-1.949-5.997-2.936-8.305c-0.452-1.172-0.965-2.187-1.369-3.1
				c-0.4-0.915-0.791-1.681-1.108-2.308c-0.288-0.59-0.523-1.071-0.711-1.456C319.911,323.599,319.836,323.418,319.852,323.409z"/>
		</g>
		<g>
			<path style="fill:#263238;" d="M288.52,280.807c0,0,0.098,1.24-0.34,3.427c-0.472,2.147-1.609,5.329-4.41,8.228
				c-2.744,2.921-7.092,5.303-12.243,6.425c-5.147,1.107-11.072,1.182-17.001-0.154c-5.954-1.258-11.305-3.631-15.845-6.257
				c-4.548-2.636-8.284-5.595-11.14-8.351c-2.86-2.761-4.852-5.297-6.145-7.097c-0.642-0.904-1.072-1.653-1.389-2.142
				c-0.307-0.496-0.461-0.76-0.446-0.77c0.015-0.009,0.199,0.237,0.534,0.713c0.345,0.47,0.801,1.198,1.465,2.08
				c1.338,1.755,3.361,4.24,6.235,6.949c2.869,2.704,6.601,5.611,11.127,8.203c4.517,2.583,9.826,4.921,15.714,6.164
				c5.859,1.322,11.713,1.259,16.79,0.194c5.08-1.081,9.36-3.385,12.081-6.212c2.779-2.807,3.95-5.907,4.477-8.017
				c0.246-1.073,0.369-1.922,0.429-2.499C288.465,281.111,288.502,280.806,288.52,280.807z"/>
		</g>
		<g>
			<g>
				<path style="fill:#FFBF9D;" d="M318.126,455.953l-102.503-22.312l-4.737-73.265l-45.583-4.214c0,0,1.686,50.086,3.44,64.976
					c2.522,21.415,15.18,50.639,22.586,56.477c7.405,5.839,131.399,3.206,131.399,3.206L318.126,455.953z"/>
			</g>
		</g>
		<g>
			<g>
				<path style="fill:#FFBF9D;" d="M376.309,469.233c-0.721,1.43-2.22,2.363-3.816,2.223c-0.318-0.028-0.65-0.091-0.993-0.201
					c-2.267-0.727-2.055-5.344-2.055-5.344l-10.864-1.774c0,0-14.126,9.11-19.152,15.147c-5.026,6.038-17.846,1.147-17.846,1.147
					l-4.444-23.154l19.995-18.081c0,0-1.228,1.077,0.151-2.305c1.379-3.382,7.662-2.103,7.662-2.103
					c0.978-1.673,5.082-2.272,5.082-2.272l17.538,2.021c3.614,0.417,6.845,2.447,8.787,5.522l7.417,11.74
					c0,0,3.918,8.452,3.287,10.417c-0.951,2.965-4.087,2.306-4.087,2.306s-0.862,5.556-2.322,5.75
					C379.191,470.468,376.309,469.233,376.309,469.233L376.309,469.233z"/>
			</g>
		</g>
		<g>
			<g>
				<g>
					<path style="fill:#FF9A6C;" d="M338.982,452.603c0.019,0.184,2.351-0.031,6.097,0.131c3.737,0.182,8.908,0.838,14.312,2.679
						c2.701,0.909,5.194,2.005,7.38,3.155c2.119,1.193,4.33,2.174,5.009,3.718c0.34,0.756,0.188,1.523-0.191,2.09
						c-0.37,0.564-0.876,0.936-1.324,1.119c-0.921,0.38-1.517,0.119-1.538,0.226c-0.043,0.025,0.544,0.483,1.68,0.185
						c0.548-0.148,1.183-0.515,1.693-1.169c0.52-0.621,0.821-1.728,0.414-2.745c-0.38-1.023-1.251-1.814-2.183-2.465
						c-0.955-0.626-1.955-1.265-3.071-1.865c-2.207-1.225-4.748-2.377-7.512-3.308c-5.532-1.884-10.852-2.43-14.653-2.41
						C341.28,451.983,338.964,452.481,338.982,452.603z"/>
				</g>
			</g>
		</g>
		<g>
			<g>
				<g>
					<path style="fill:#FF9A6C;" d="M337.755,463.786c0.021,0.332,7.158,0.034,15.926,0.548c8.773,0.482,15.829,1.586,15.887,1.258
						c0.026-0.145-1.71-0.607-4.566-1.109c-2.855-0.503-6.835-1.013-11.257-1.266c-4.42-0.249-8.432-0.193-11.326-0.016
						C339.523,463.376,337.746,463.639,337.755,463.786z"/>
				</g>
			</g>
		</g>
		<g>
			<g>
				<g>
					<path style="fill:#FF9A6C;" d="M376.208,468.788c0.058-0.01,0.136-0.657,0.22-1.869c0.073-1.207,0.147-2.96,0.011-5.136
						c-0.074-1.087-0.191-2.282-0.489-3.557c-0.279-1.282-0.89-2.63-1.723-3.821c-1.581-2.392-3.777-4.871-6.572-6.73
						c-2.785-1.837-5.569-3.389-8.388-4.24c-2.797-0.847-5.413-1.056-7.576-1.153c-2.169-0.076-3.915-0.029-5.122,0.016
						c-1.206,0.05-1.873,0.113-1.874,0.19c-0.008,0.18,2.674,0.269,6.947,0.582c2.126,0.195,4.665,0.485,7.318,1.348
						c2.631,0.844,5.37,2.401,8.061,4.177c2.697,1.803,4.749,4.073,6.357,6.392c1.695,2.212,2.012,4.75,2.274,6.864
						C376.073,466.099,375.966,468.794,376.208,468.788z"/>
				</g>
			</g>
		</g>
		<g>
			<g>
				<g>
					<path style="fill:#FF9A6C;" d="M350.875,436.973c-0.001,0.167,2.624,0.236,6.815,0.719c4.036,0.618,10.493,0.914,14.171,6.476
						c3.983,5.059,7.37,9.838,8.852,13.757c1.57,3.892,1.432,6.586,1.66,6.566c0.06,0.001,0.163-0.66,0.102-1.86
						c-0.05-1.198-0.307-2.945-1.021-4.98c-1.347-4.136-4.713-9.094-8.72-14.182c-1.022-1.278-2.128-2.49-3.409-3.446
						c-1.277-0.975-2.762-1.542-4.126-1.938c-2.766-0.781-5.31-1.009-7.434-1.181C353.507,436.619,350.873,436.831,350.875,436.973z
						"/>
				</g>
			</g>
		</g>
		<g>
			<g>
				<g>
					<path style="fill:#FF9A6C;" d="M343.267,475.548c0.024,0.026,0.381-0.247,1.042-0.795c0.751-0.604,1.724-1.385,2.936-2.358
						c2.591-2.003,6.44-4.854,11.527-7.939l-0.249,0.048c3.24,0.552,6.894,1.174,10.851,1.848l-0.372-0.458
						c-0.024,0.887,0.027,1.753,0.203,2.654c0.182,0.884,0.464,1.837,1.232,2.612c0.399,0.377,0.97,0.601,1.44,0.661
						c0.483,0.123,1.008,0.172,1.527,0.09c1.036-0.148,2.01-0.693,2.702-1.496c0.178-0.197,0.33-0.417,0.472-0.642l0.099-0.174
						l0.048-0.088l0.024-0.044l0.003-0.006c0.14-0.054-1.212,0.441-0.637,0.233l0.012,0.005l0.023,0.009l0.344,0.14
						c0.458,0.182,0.924,0.347,1.403,0.497c0.479,0.148,0.97,0.28,1.487,0.371c0.26,0.044,0.524,0.082,0.807,0.088
						c0.264,0.01,0.583,0.019,1.005-0.194c0.613-0.436,0.831-0.951,1.064-1.436c0.217-0.493,0.394-0.99,0.539-1.493
						c0.3-1.007,0.517-2.02,0.698-3.074l-0.634,0.439c1.408,0.248,3.069-0.091,4.046-1.38c0.44-0.6,0.8-1.338,0.746-2.186
						c-0.036-0.759-0.206-1.427-0.385-2.101c-0.76-2.664-1.833-5.22-2.994-7.811l-0.014-0.03l-0.021-0.034
						c-1.261-1.997-2.6-4.118-3.954-6.264c-0.843-1.333-1.679-2.656-2.509-3.969c-0.834-1.272-1.581-2.7-2.751-3.844
						c-1.127-1.14-2.48-2.03-3.937-2.615c-1.447-0.625-3.055-0.78-4.473-0.929c-5.811-0.653-11.352-1.277-16.532-1.859l-0.071-0.008
						l-0.059,0.01c-1.016,0.172-1.966,0.411-2.899,0.763c-0.909,0.367-1.873,0.78-2.518,1.761l0.608-0.19
						c-1.857-0.762-4.007-0.77-5.633,0.315c-1.633,1.075-2.386,2.81-2.786,4.441l0.132-0.229
						c-5.742,5.164-10.428,9.377-13.78,12.392c-1.545,1.423-2.78,2.561-3.712,3.42c-0.84,0.793-1.269,1.224-1.242,1.255
						c0.027,0.031,0.509-0.34,1.401-1.075c0.969-0.817,2.253-1.9,3.859-3.254c3.411-2.947,8.18-7.067,14.023-12.115l0.095-0.082
						l0.038-0.148c0.368-1.438,1.11-3.022,2.457-3.856c1.31-0.883,3.194-0.856,4.749-0.206l0.384,0.161l0.225-0.351
						c0.376-0.585,1.208-1.025,2.043-1.33c0.845-0.313,1.78-0.54,2.701-0.688l-0.128,0.002c5.177,0.611,10.714,1.265,16.522,1.95
						c1.481,0.163,2.864,0.299,4.186,0.87c1.317,0.534,2.54,1.342,3.557,2.375c1.034,1,1.738,2.341,2.598,3.66
						c0.829,1.313,1.665,2.637,2.506,3.97c1.356,2.144,2.696,4.265,3.958,6.261l-0.034-0.063c1.141,2.534,2.218,5.095,2.948,7.631
						c0.172,0.629,0.328,1.276,0.354,1.852c0.059,0.498-0.194,1.037-0.517,1.488c-0.63,0.89-1.902,1.171-2.97,0.997l-0.547-0.089
						l-0.088,0.528c-0.165,0.992-0.375,1.995-0.651,2.94c-0.261,0.894-0.654,1.983-1.135,2.346
						c-0.024,0.013-0.211,0.071-0.442,0.049c-0.212-0.002-0.439-0.032-0.664-0.069c-0.453-0.076-0.91-0.195-1.361-0.331
						c-0.451-0.137-0.898-0.292-1.334-0.461l-0.323-0.129l-0.019-0.008l-0.009-0.004c0.572-0.21-0.784,0.283-0.645,0.234
						l-0.002,0.004l-0.019,0.035l-0.038,0.069l-0.077,0.138c-0.112,0.178-0.229,0.353-0.369,0.509
						c-0.541,0.638-1.302,1.066-2.094,1.187c-0.397,0.067-0.794,0.032-1.194-0.069c-0.433-0.06-0.722-0.183-0.992-0.416
						c-1.034-1.078-1.182-3.002-1.188-4.536l-0.002-0.401l-0.37-0.058c-3.966-0.62-7.628-1.192-10.875-1.699l-0.139-0.022
						l-0.11,0.069c-5.087,3.201-8.871,6.149-11.4,8.26c-1.258,1.064-2.202,1.918-2.821,2.516
						C343.554,475.197,343.243,475.522,343.267,475.548z"/>
				</g>
			</g>
		</g>
	</g>
	<g>
		<g>
			<g>
				<g>
					<path style="fill:#E0E0E0;" d="M524.793,367.703L389.779,368.8c-4.38,0-8.565,2.104-9.221,6.435l-14.755,98.404h-69.543
						c-2.239,0-4.054,1.815-4.054,4.054c0,2.239,1.815,4.054,4.054,4.054h68.327h12.97h140.814l15.18-103.858
						C534.364,372.529,530.214,367.703,524.793,367.703z"/>
				</g>
			</g>
			<g>
				<g>
					<g>
						<path style="fill:#263238;" d="M524.793,367.703c0,0,0.735-0.094,2.128,0.2c1.351,0.315,3.479,1.148,5.158,3.42
							c0.836,1.111,1.472,2.596,1.668,4.309c0.221,1.739-0.278,3.572-0.496,5.554c-0.565,3.977-1.216,8.557-1.948,13.704
							c-2.971,20.631-7.254,50.364-12.519,86.917l-0.051,0.357l-0.361,0c-57.475,0.034-133.004,0.079-215.483,0.128
							c-1.937,0-3.87,0-5.799,0c-0.894,0.038-2.14-0.014-3.068-0.583c-0.958-0.527-1.704-1.413-2.077-2.437
							c-0.809-2.06,0.158-4.584,2.097-5.607c0.925-0.559,2.158-0.607,3.042-0.571l2.857,0c7.608,0.001,15.136,0.003,22.568,0.004
							c14.864,0.005,29.342,0.01,43.295,0.015l-0.52,0.447c5.311-35.242,10.266-68.117,14.71-97.609
							c0.154-1.867,0.998-3.889,2.498-5.142c1.465-1.301,3.322-1.991,5.162-2.278c1.879-0.285,3.665-0.132,5.444-0.192
							c1.781-0.012,3.548-0.024,5.301-0.036c7.01-0.047,13.791-0.093,20.327-0.136c13.067-0.083,25.151-0.16,36.124-0.229
							c21.921-0.112,39.396-0.202,51.427-0.264c5.979-0.011,10.598-0.019,13.758-0.025c1.543,0.007,2.724,0.013,3.552,0.017
							C524.385,367.675,524.793,367.703,524.793,367.703s-0.407,0.035-1.206,0.056c-0.828,0.017-2.009,0.042-3.552,0.074
							c-3.16,0.046-7.779,0.112-13.758,0.199c-12.031,0.134-29.506,0.328-51.426,0.572c-10.973,0.109-23.057,0.228-36.123,0.358
							c-6.535,0.062-13.316,0.127-20.326,0.194c-1.753,0.017-3.52,0.033-5.301,0.05c-1.776,0.06-3.604-0.077-5.31,0.194
							c-1.716,0.27-3.416,0.92-4.708,2.077c-1.328,1.155-2.028,2.767-2.196,4.61c-4.401,29.499-9.306,62.381-14.565,97.63
							l-0.067,0.448h-0.453c-13.952,0.005-28.43,0.01-43.295,0.015c-7.432,0.001-14.961,0.003-22.568,0.004l-2.857,0
							c-1.008-0.028-1.759,0.012-2.516,0.436c-1.48,0.784-2.218,2.707-1.6,4.279c0.284,0.778,0.853,1.458,1.585,1.86
							c0.76,0.432,1.517,0.474,2.537,0.445c1.929,0,3.862,0,5.799,0c82.479,0.049,158.008,0.094,215.483,0.129l-0.412,0.356
							c5.417-36.531,9.824-66.247,12.882-86.865c0.772-5.142,1.459-9.716,2.056-13.689c0.24-1.989,0.749-3.813,0.551-5.47
							c-0.172-1.657-0.768-3.105-1.566-4.198c-1.601-2.234-3.666-3.093-4.99-3.442C525.527,367.694,524.788,367.757,524.793,367.703
							z"/>
					</g>
				</g>
			</g>
		</g>
		<g>
			<g>
				<circle style="fill:#FFFFFF;" cx="451.559" cy="423.474" r="8.453"/>
			</g>
		</g>
		<g>
			<g>
				<g>
					<path style="fill:#263238;" d="M371.274,480.839c0.191,0.032,4.489-25.026,9.598-55.96c5.111-30.945,9.098-56.047,8.907-56.079
						c-0.191-0.031-4.487,25.02-9.598,55.965C375.071,455.699,371.083,480.807,371.274,480.839z"/>
				</g>
			</g>
		</g>
	</g>
</g>
</svg>
