<?xml version="1.0" encoding="utf-8"?>
<!-- Generator: Adobe Illustrator 27.5.0, SVG Export Plug-In . SVG Version: 6.00 Build 0)  -->
<svg version="1.1" id="Слой_1" xmlns="http://www.w3.org/2000/svg" xmlns:xlink="http://www.w3.org/1999/xlink" x="0px" y="0px"
	 viewBox="0 0 3200 2000" style="enable-background:new 0 0 3200 2000;" xml:space="preserve">
<!-- <rect style="fill:#FFFFFF;" width="500" height="0"/> -->
<g>
	<path style="fill:#DFEBFA;" d="M385.662,1748.854c0,0-262.016-380.026-103.082-771.261
		c103.596-255.015,492.204-394.75,711.515-255.015c93.408,59.515,393.082,2.007,553.091-244.392
		c310.937-478.812,1396.112-188.021,1198.552,547.12c-95.605,355.756,290.966,368.688,93.992,724.302L385.662,1748.854z"/>
	<path style="fill:#2E3552;" d="M3056.568,1756.143H195.273c-2.178,0-3.96-1.782-3.96-3.96v-3.373c0-2.179,1.782-3.96,3.96-3.96
		h2861.295c2.179,0,3.961,1.781,3.961,3.96v3.373C3060.529,1754.36,3058.747,1756.143,3056.568,1756.143z"/>
	<g>
		<path style="fill:#C0D8FB;" d="M2091.092,594.92h-197.566c-9.069,0-16.49-7.421-16.49-16.49V387.744
			c0-9.069,7.421-16.49,16.49-16.49h197.566c9.069,0,16.49,7.421,16.49,16.49V578.43
			C2107.582,587.499,2100.161,594.92,2091.092,594.92z"/>
		<path style="fill:#DFEBFD;" d="M2082.533,585.231h-180.449c-8.283,0-15.061-6.778-15.061-15.062V396.004
			c0-8.284,6.777-15.061,15.061-15.061h180.449c8.283,0,15.062,6.778,15.062,15.061v174.164
			C2097.595,578.453,2090.816,585.231,2082.533,585.231z"/>
		<g>
			<g>
				<path style="fill:#B7D3F3;" d="M1987.533,401.356c0-2.637,2.138-4.776,4.775-4.776s4.775,2.139,4.775,4.776
					c0,2.638-2.138,4.776-4.775,4.776S1987.533,403.994,1987.533,401.356z"/>
				<path style="fill:#B7D3F3;" d="M2026.068,408.106c1.281-2.306,4.188-3.136,6.494-1.854c2.306,1.281,3.136,4.189,1.854,6.494
					c-1.281,2.306-4.188,3.136-6.494,1.854C2025.617,413.319,2024.787,410.412,2026.068,408.106z"/>
				<path style="fill:#B7D3F3;" d="M2059.083,434.335c2.216-1.43,5.172-0.792,6.602,1.424c1.43,2.216,0.792,5.172-1.424,6.602
					c-2.217,1.43-5.173,0.792-6.603-1.424S2056.866,435.766,2059.083,434.335z"/>
				<path style="fill:#B7D3F3;" d="M2075.436,474.932c2.638,0,4.775,2.139,4.775,4.776c0,2.638-2.138,4.776-4.775,4.776
					s-4.775-2.138-4.775-4.776C2070.66,477.07,2072.798,474.932,2075.436,474.932z"/>
				<path style="fill:#B7D3F3;" d="M2067.086,522.045c1.865,1.865,1.865,4.889,0,6.754c-1.865,1.865-4.889,1.865-6.754,0
					c-1.865-1.865-1.865-4.889,0-6.754C2062.197,520.18,2065.221,520.18,2067.086,522.045z"/>
				<path style="fill:#B7D3F3;" d="M2037.097,552.112c1.865,1.865,1.865,4.889,0,6.754c-1.864,1.865-4.889,1.865-6.754,0
					c-1.865-1.865-1.865-4.889,0-6.754C2032.208,550.247,2035.232,550.247,2037.097,552.112z"/>
				<path style="fill:#B7D3F3;" d="M1987.533,567.61c0-2.638,2.138-4.776,4.775-4.776s4.775,2.138,4.775,4.776
					c0,2.637-2.138,4.775-4.775,4.775S1987.533,570.248,1987.533,567.61z"/>
			</g>
			<g>
				<path style="fill:#B7D3F3;" d="M1958.397,408.106c-1.282-2.306-4.189-3.136-6.495-1.854c-2.305,1.281-3.135,4.189-1.854,6.494
					c1.281,2.306,4.189,3.136,6.494,1.854C1958.848,413.319,1959.678,410.412,1958.397,408.106z"/>
				<path style="fill:#B7D3F3;" d="M1925.383,434.335c-2.217-1.43-5.172-0.792-6.602,1.424c-1.431,2.216-0.793,5.172,1.424,6.602
					c2.216,1.43,5.172,0.792,6.602-1.424S1927.6,435.766,1925.383,434.335z"/>
				<path style="fill:#B7D3F3;" d="M1909.03,474.932c-2.638,0-4.776,2.139-4.776,4.776c0,2.638,2.139,4.776,4.776,4.776
					c2.637,0,4.775-2.138,4.775-4.776C1913.806,477.07,1911.667,474.932,1909.03,474.932z"/>
				<path style="fill:#B7D3F3;" d="M1917.379,522.045c-1.864,1.865-1.864,4.889,0,6.754c1.865,1.865,4.89,1.865,6.754,0
					c1.865-1.865,1.865-4.889,0-6.754C1922.269,520.18,1919.244,520.18,1917.379,522.045z"/>
				<path style="fill:#B7D3F3;" d="M1947.368,552.112c-1.865,1.865-1.865,4.889,0,6.754c1.865,1.865,4.889,1.865,6.754,0
					c1.865-1.865,1.865-4.889,0-6.754C1952.257,550.247,1949.233,550.247,1947.368,552.112z"/>
			</g>
		</g>
		<g>
			<circle style="fill:#B7D3F3;" cx="1995.797" cy="479.707" r="4.776"/>
			<g>
				<rect x="1995.145" y="420.047" style="fill:#B7D3F3;" width="1.305" height="59.661"/>
			</g>
			<g>
				
					<rect x="1990.904" y="465.253" transform="matrix(0.7866 -0.6175 0.6175 0.7866 140.6549 1341.4036)" style="fill:#B7D3F3;" width="40.211" height="3.911"/>
			</g>
		</g>
	</g>
	<g>
		<g>
			<path style="fill:#C8DBF4;" d="M2244.381,1197.176c0,0-36.296-99.88,42.496-124.979c0,0,54.475-10.154,89.827,5.645
				c0,0-83.616,66.652-70.253,81.445c13.364,14.792,87.818-80.988,87.818-80.988s104.64,28.219,131.237,56.061
				c0,0-112.893,38.132-96.3,49.18c16.594,11.048,135.911-23.176,135.911-23.176s87.94,51.365,61.351,106.797
				c-26.59,55.433-65.629,60.943-79.285,54.062s-84.932-69.995-91.135-59.019s29.557,67.944,63.973,82.937
				c0,0-93.749,48.115-129.837,10.456s-27.263-72.496-49.988-95.363c-22.725-22.867-46.164-31.657-39.646-14.606
				c6.518,17.05,51.509,48.175,56.751,81.845c5.242,33.671,12.274,57.696-30.695,33.692
				c-42.969-24.003-104.462-85.208-93.343-124.598C2244.381,1197.176,2244.381,1197.176,2244.381,1197.176z"/>
			<g>
				<path style="fill:#C8DBF4;" d="M2579.719,1251.325c0,0-251.5-105.916-335.338-54.149c0,0-26.519,32.637-77.67,52.189
					l-12.112,14.042c0,0,61.777-29.979,78.664-26.842C2233.263,1236.565,2242.559,1136.827,2579.719,1251.325z"/>
				<path style="fill:#C8DBF4;" d="M2166.711,1249.365c0,0-70.029,19.887-101.086,90.838l9.607,4.633
					c0,0,45.673-68.258,88.313-85.621C2206.186,1241.852,2166.711,1249.365,2166.711,1249.365z"/>
			</g>
		</g>
		<g>
			<path style="fill:#C8DBF4;" d="M2056.153,1146.037c0,0,91.767-51.389,48.942-121.131c0,0-34.26-42.824-70.966-53.836
				c0,0,19.576,104.002,0,106.448c-19.577,2.447-13.46-117.46-13.46-117.46s-96.66-46.495-134.59-42.824
				c0,0,59.954,101.554,40.377,99.108c-19.576-2.447-86.872-105.226-86.872-105.226s-99.107-18.354-115.014,40.377
				c-15.906,58.73,9.789,88.096,24.472,91.767c14.682,3.67,108.896,2.447,106.448,14.683s-66.071,31.812-101.555,20.8
				c0,0,39.153,96.66,90.543,91.767c51.389-4.895,67.295-36.707,99.107-39.153c31.813-2.447,55.06,6.117,39.153,14.682
				c-15.906,8.565-69.742,2.808-95.437,24.651s-46.495,35.303,1.224,45.092c47.719,9.788,133.366,3.67,150.496-33.036
				C2056.153,1146.037,2056.153,1146.037,2056.153,1146.037z"/>
			<g>
				<path style="fill:#C8DBF4;" d="M1769.843,969.847c0,0,256.945,83.201,286.311,176.19c0,0-1.224,41.602,24.471,89.319v18.354
					c0,0-26.918-62.401-41.601-70.966C2039.023,1182.744,2096.53,1101.99,1769.843,969.847z"/>
				<path style="fill:#C8DBF4;" d="M2080.624,1235.356c0,0,39.626,60.173,17.035,133.42l-10.194-2.738
					c0,0,9.896-80.677-10.836-121.253S2080.624,1235.356,2080.624,1235.356z"/>
			</g>
		</g>
		<g>
			<path style="fill:#D4E4F8;" d="M2162.375,1014.75c0,0-133.783-74.919-71.352-176.594c0,0,49.946-62.432,103.46-78.486
				c0,0-28.541,151.621,0,155.189c28.54,3.567,19.621-171.243,19.621-171.243s140.919-67.784,196.216-62.432
				c0,0-87.405,148.054-58.865,144.486c28.541-3.568,126.648-153.405,126.648-153.405s144.486-26.757,167.676,58.865
				s-14.271,128.432-35.676,133.784c-21.405,5.351-158.756,3.567-155.188,21.405s96.324,46.378,148.054,30.324
				c0,0-57.081,140.919-132,133.783c-74.919-7.135-98.107-53.513-144.486-57.081c-46.378-3.568-80.27,8.918-57.08,21.405
				c23.188,12.487,101.675,4.092,139.135,35.938c37.459,31.846,67.783,51.467-1.784,65.737s-194.433,5.352-219.405-48.162
				S2162.375,1014.75,2162.375,1014.75z"/>
			<g>
				<path style="fill:#D4E4F8;" d="M2579.779,757.886c0,0-374.594,121.297-417.404,256.864c0,0,1.783,60.648-35.676,130.217v26.756
					c0,0,39.243-90.973,60.648-103.459C2187.348,1068.264,2103.511,950.534,2579.779,757.886z"/>
				<path style="fill:#D4E4F8;" d="M2126.699,1144.967c0,0-57.769,87.724-24.835,194.509l14.862-3.992
					c0,0-14.426-117.617,15.798-176.771C2162.748,1099.557,2126.699,1144.967,2126.699,1144.967z"/>
			</g>
		</g>
	</g>
	<path style="fill:#F2F7FC;" d="M2068.178,1314.273c-4.956,11.763-52.563,22.678-123.213,32.333
		c-12.452,1.706-25.605,3.367-39.387,4.995c-240.455,28.318-899.036,44.128-939.632,35.777
		c-56.094-11.539-167.717-575.625-167.717-575.625s328.658-5.697,589.664-8.474c89.292-0.936,399.88-3.299,457.474-3.3
		C1934.572,799.978,2076.182,1295.22,2068.178,1314.273z"/>
	<path style="fill:#FFFFFF;" d="M1977.21,1241.868c0,0-100.9-386.51-108.184-418.993c-3.241-14.478-13.244-19.71-23.319-21.057
		c17.734-1.706,30.639-1.833,30.639-1.833c34.911,0,65.938,23.493,77.143,58.413c24.436,76.162,72.989,222.481,118.57,365.534
		C2069.753,1223.875,1977.21,1241.868,1977.21,1241.868z"/>
	<path style="fill:#FFFFFF;" d="M2588.785,1586.151c-16.091,96.954-121.316,158.698-229.246,158.698h-213.771l16.572-560.148
		c0,0,204.112-66.519,255.338-7.962c44.881,51.297,166.59,254.359,172.992,374.548
		C2591.311,1563.351,2590.646,1574.99,2588.785,1586.151z"/>
	<path style="fill:#D4E4F8;" d="M2588.785,1586.151c-16.091,96.954-121.316,158.698-229.246,158.698h-104.858
		C2324.605,1700.286,2387.832,1562.949,2588.785,1586.151z"/>
	<path style="fill:#AAC8E8;" d="M2021.313,1239.579c0,0,288.376-138.397,342.999-47.992
		c29.002,48.002,108.813,239.509,114.705,359.695c5.726,116.778-101.875,193.563-212.562,193.563h-196.588L2021.313,1239.579z"/>
	<path style="fill:#E1EFFF;" d="M2401.275,1648.419c-3.191,2.556-6.468,5.064-9.819,7.537
		c-41.652,30.704-95.981,55.125-158.122,70.271c-46.96,11.438-98.378,17.575-152.159,17.111l-93.479,0.027h-1.268l-442.479,0.118
		l-253.631,0.072h-3.75l-0.022-0.108l-8.798-46.032l-80.306-464.245c0,0,1111.422-25.026,1201.796,26.562
		c41.964,23.948,65.776,123.166,78.98,232.496C2485.246,1550.444,2455.465,1605.087,2401.275,1648.419z"/>
	<path style="opacity:0.5;fill:#BCD4F6;" d="M2401.275,1648.419c-3.191,2.556-6.468,5.064-9.819,7.537
		c-41.652,30.704-95.981,55.125-158.122,70.271c-46.96,11.438-98.378,17.575-152.159,17.111l-93.479,0.027h-1.268l-442.479,0.118
		l-253.631,0.072l-3.771-0.108l-8.798-46.032c155.458-30.04,370.573-60.553,594.971-58.188
		C2087.029,1641.491,2266.467,1641.2,2401.275,1648.419z"/>
	<g>
		<path style="fill:#FFB27D;" d="M1787.389,808.156c-2.168-0.677-5.313-2.465-7.99-4.136h58.532c0,0-22.462-12.712-37.063-19.192
			c-14.602-6.48-50.357,0-50.357,0s-132.433-19.705-206.673-17.857c-19.919,0.496-161.557-22.593-202.367-14.415
			c-21.512,4.311-40.997,7.718-53.537,9.766c-7.653,1.249-14.75-4.273-15.436-11.998l-0.012-0.133
			c-2.323-26.756-5.656-41.755-5.656-41.755l-49.821-24.108c-10.293,5.468-19.915,10.588-25.016,13.302
			c0.241,2.762,0.413,5.467,0.497,8.132c0.464,13.667-0.993,25.938-3.409,36.624c-4.462,19.737-19.799,35.177-39.358,40.365
			l-0.246,0.065c37.348,32.158,227.364,88.185,230.588,71.755c4.337-22.102,370.445-50.599,370.445-50.599v0.048
			c0,0,10.202,3.855,12.729,7.505s22.967,3.089,26.787,3.65C1793.847,815.737,1791.881,809.56,1787.389,808.156z"/>
		<path style="fill:#ED7D2B;" d="M1917.341,1620.823c0,0,38.613,69.646,55.717,77.499c13.587,6.238,50.351,12.414,70.835,28.182
			c23.758,18.288-17.383,17.321-26.425,17.321c0,0-46.03-5.483-67.844-5.02c-12.562,0.267-50.006,5.02-50.006,5.02
			c-29.495,0-51.951-26.778-46.44-55.755c0.051-0.27,0.104-0.538,0.156-0.808c5.341-26.912,9.49-61.63,9.49-61.63L1917.341,1620.823
			z"/>
		<path style="fill:#699DEE;" d="M1436.157,793.621c-0.809,18.106-5.852,37.954-21.981,48.422
			c-25.475,16.522-19.022,59.649-18.862,76.581l-109.034-156.134c0,0,30.233-7.725,66.394-11.689
			c22.014-2.414,79.923,4.215,79.923,4.215S1437.066,773.212,1436.157,793.621z"/>
		<path style="fill:#F99746;" d="M1748.684,1648.081c0,0,38.482,42.389,55.586,50.241c12.216,5.609,45.115,8.877,64.695,23.097
			c20.681,15.02,4.835,22.406-7.181,22.406c0,0-54.986,4.376-90.02-5.493c-9.549-2.689-35.68,2.662-44.992,4.728
			c-2.82,0.625-20.787,2.099-23.653,1.732c-21.352-2.729-22.338-23.204-20.319-45.232c0.374-4.087,0.938-8.224,1.746-12.297
			c5.34-26.912,8.552-51.939,8.552-51.939L1748.684,1648.081z"/>
		<path style="fill:#233862;" d="M1938.318,1624.77c0,0-13.903,9.719-26.124,13.784c-19.241,6.414-55.117,3.438-55.117,3.438
			s-91.584-177.674-110.915-222.614c-18.319-42.604-33.659-136.02-33.659-136.02c-13.983-0.752-118.612,14.063-210.537,4.122
			c-48.905-5.279-90.262-17.354-104.28-42.054c-40.391-71.145,88.633-150.478,88.633-150.478s252.265,45.473,307.696,85.731
			C1846.564,1218.846,1938.318,1624.77,1938.318,1624.77z"/>
		<path style="fill:#2A4E96;" d="M1762.415,1645.985c0,0-19.611,10.278-32.311,12.428c-23.079,3.905-47.932-3.811-47.932-3.811
			s-14.086-85.111-71.843-221.299c-14.493-34.173-12.26-104.223-14.203-105.099c0,0-315.571,2.692-352.222-68.172
			c-5.941-11.491-12.565-43.907-11.835-54.443c3.83-56.049,76.612-77.675,76.612-77.675s328.951,58.172,385.415,96.968
			C1750.573,1263.68,1762.415,1645.985,1762.415,1645.985z"/>
		<path style="fill:#699DEE;" d="M1512.873,1097.284c-19.169,34.216-39.124,61.278-112.513,73.983
			c-92.468,16.007-143.133,35.579-168.763,43.317c-19.586,5.913-75.901-65.849-102.734-129.879
			c-25.982-62.002-48.102-158.62-48.251-166.082c-2.319-115.107,85.194-142.747,85.235-143.05c0,0,64.986,44.195,100.367,28.841
			c34.865-15.13,20.515-41.172,20.066-41.925l93.784,92.077c0,0,21.128,80.822,46.582,139.482
			C1465.228,1082.971,1518.147,1087.87,1512.873,1097.284z"/>
		<path style="fill:#ED985F;" d="M1266.829,708.435c0,0,3.333,15,5.656,41.755c-42.287-1.385-75.767-45.226-76.007-47.988
			c5.101-2.714,10.237-12.408,20.53-17.876L1266.829,708.435z"/>
		<path style="fill:#FFB27D;" d="M1276.689,735.363c0,0-88.969-2.537-86.536-57.918c2.433-55.38-7.412-93.006,49.495-93.728
			c56.907-0.722,67.008,20.896,70.692,39.578C1314.024,641.977,1299.895,734.596,1276.689,735.363z"/>
		<path style="fill:#2B478B;" d="M1194.953,699.835c0,0-3.549-18.396,6.424-30.59c0,0-6.541-18.035,0.389-22.11
			c6.93-4.076,10.612,11.335,13.645,8.421c3.032-2.915,16.438-16.622,20.508-34.661c4.07-18.039,65.803-5.372,73.091-3.226
			c1.215,0.357,2.796,0.256,4.603-0.206c15.459-3.957,20.053-24.029,8.101-34.601c-0.728-0.644-1.409-1.282-2.027-1.906
			c-6.526-6.592-51.956-50.9-103.927-29.385c-51.971,21.515-55.778,48.258-49.678,69.891
			C1172.181,643.094,1171.854,695.476,1194.953,699.835z"/>
		<path style="fill:#FFFFFF;" d="M1257.986,701.327c0,0,5.781,8.035,17.812,10.149c12.03,2.114,14.667-7.271,14.667-7.271
			S1279.425,700.56,1257.986,701.327z"/>
		<path style="fill:#FFB27D;" d="M1102.661,839.451c0,0-15.3,30.38-1.004,85.952c28.208,109.65,141.422,198.663,157.763,190.415
			s59.285-7.034,36.069-56.846c-23.215-49.811-117.155-233.641-117.155-233.641L1102.661,839.451z"/>
		<path style="fill:#699DEE;" d="M1240.233,946.445c-29.648,16.54-51.43,29.754-96.81,29.648
			c-34.167-0.08-62.322-6.747-62.322-6.747s-35.094-142.705,30.484-172.079c22.581-10.115,54.261-21.693,54.261-21.693
			S1293.33,916.825,1240.233,946.445z"/>
		<path style="fill:#FFB27D;" d="M1473.15,1071.243c0,0-158.217-16.874-179.457-16.095c-21.24,0.779-42.818,57.854-39.817,60.852
			s66.667,6.082,106.042,3.348c43.209-3,98.264-16.954,98.264-16.954L1473.15,1071.243z"/>
	</g>
	<path style="fill:#FFFFFF;" d="M1505.95,1589.158c-17.336,94.033-112.459,153.626-209.965,153.626h-196.59l15.379-565.111
		c0,0,187.566-61.556,234.677-2.999c41.277,51.297,153.203,254.359,159.096,374.548
		C1509.223,1563.125,1508.31,1576.459,1505.95,1589.158z"/>
	<path style="fill:#D4E4F8;" d="M1505.95,1589.158c-17.336,94.033-112.459,153.626-209.965,153.626h-157.317
		C1212.305,1695.857,1311.454,1566.191,1505.95,1589.158z"/>
	<path style="fill:#BCD4F6;" d="M854.417,1744.85c-49.315-0.297-102.298-10.888-142.381-41.022
		c-38.976-29.271-62.096-73.829-76.154-119.569c-30.047-97.77-29.153-204.991-25.911-306.275
		c3.487-109.631,13.387-219.291,26.073-328.214c4.192-35.997,5.352-82.523,23.966-114.857
		c14.581-25.328,69.221-33.749,95.542-33.058c21.927,0.576,43.091,19.474,61.601,30.334c12.416,7.285,24.832,14.57,37.249,21.855
		c12.072,7.083,12.51,19.507,16.733,32.714c35.435,110.807,70.21,221.836,106.005,332.526
		c42.066-17.683,84.929-33.631,128.98-45.662c41.439-11.318,88.813-22.358,131.773-13.43c44.704,9.291,58.293,52.368,74.635,89.989
		c21.62,49.771,40.34,100.945,55.731,152.981c14.978,50.639,30.034,105.492,28.789,158.773
		c-1.122,48.021-23.128,92.477-58.734,124.34c-45.428,40.671-105.108,58.575-164.942,58.575
		C1067.053,1744.85,960.734,1744.85,854.417,1744.85z"/>
	<path style="fill:#FFFFFF;" d="M885.844,1241.868c0,0-100.901-386.51-108.184-418.993c-3.241-14.478-13.244-19.71-23.319-21.057
		c17.735-1.706,30.639-1.833,30.639-1.833c34.911,0,65.938,23.493,77.142,58.413c24.435,76.162,69.434,216.61,115.015,359.662
		C974.831,1218.004,885.844,1241.868,885.844,1241.868z"/>
	<g>
		<path style="fill:#ED7D2B;" d="M1485.846,1146.766h-205.154l0,0c0-9.032,7.322-16.354,16.354-16.354h188.8V1146.766z"/>
		<polygon style="fill:#ED7D2B;" points="1485.257,923.334 1802.439,923.334 1726.359,1146.766 1407.12,1146.766 		"/>
		<polygon style="fill:#F99746;" points="1807.11,923.33 1731.031,1146.765 1411.789,1146.765 1489.929,923.33 		"/>
		<path style="fill:#FFFFFF;" d="M1636.104,1032.983c-1.971,8.537-10.489,15.457-19.025,15.457c-8.537,0-13.86-6.92-11.889-15.457
			c1.971-8.537,10.489-15.457,19.025-15.457C1632.753,1017.526,1638.076,1024.446,1636.104,1032.983z"/>
	</g>
	<g>
		<path style="fill:#BCD4F6;" d="M967.567,1221.311v13.288c0,4.653-1.506,8.452-3.344,8.452H479.288
			c-1.838,0-3.344-3.799-3.344-8.452v-13.288c0-4.645,1.506-8.452,3.344-8.452h484.935
			C966.061,1212.858,967.567,1216.666,967.567,1221.311z"/>
		<path style="fill:#D4E4F8;" d="M967.567,1221.311v13.288c0,4.653-1.383,8.452-3.069,8.452H579.512
			c-1.686,0-3.069-3.799-3.069-8.452v-13.288c0-4.645,1.383-8.452,3.069-8.452h384.986
			C966.185,1212.858,967.567,1216.666,967.567,1221.311z"/>
		<rect x="500.557" y="1243.054" style="fill:#A4C4F4;" width="344.275" height="501.796"/>
		<rect x="597.035" y="1243.054" style="fill:#F3F8FF;" width="344.274" height="501.796"/>
		<g>
			<g>
				<path style="fill:#B7D3F3;" d="M922.813,1717.146H615.539v-459.916h307.274V1717.146z M618.857,1713.827h300.639v-453.28
					H618.857V1713.827z"/>
			</g>
			<g>
				<rect x="617.198" y="1409.373" style="fill:#B7D3F3;" width="303.957" height="3.318"/>
			</g>
			<g>
				<rect x="617.198" y="1564.481" style="fill:#B7D3F3;" width="303.957" height="3.317"/>
			</g>
			<path style="fill:#B7D3F3;" d="M800.322,1286.891h-56.403c-2.737,0-4.977-2.24-4.977-4.978l0,0c0-2.737,2.24-4.977,4.977-4.977
				h56.403c2.737,0,4.977,2.239,4.977,4.977l0,0C805.299,1284.65,803.06,1286.891,800.322,1286.891z"/>
			<path style="fill:#B7D3F3;" d="M800.322,1438.57h-56.403c-2.737,0-4.977-2.24-4.977-4.977l0,0c0-2.737,2.24-4.978,4.977-4.978
				h56.403c2.737,0,4.977,2.24,4.977,4.978l0,0C805.299,1436.33,803.06,1438.57,800.322,1438.57z"/>
			<path style="fill:#B7D3F3;" d="M800.322,1596.686h-56.403c-2.737,0-4.977-2.239-4.977-4.977l0,0c0-2.737,2.24-4.977,4.977-4.977
				h56.403c2.737,0,4.977,2.239,4.977,4.977l0,0C805.299,1594.446,803.06,1596.686,800.322,1596.686z"/>
		</g>
	</g>
	<g>
		<path style="fill:#CDE0FB;" d="M1757.812,533.327l22.478,78.555c0.332,1.157,0.443,2.331,0.365,3.464
			c-0.271,4.13-3.099,7.834-7.304,9.037l-136.425,39.037c-4.227,1.209-8.594-0.471-11.005-3.857
			c-0.651-0.913-1.16-1.948-1.485-3.084l-22.469-78.522c-1.537-5.373,1.566-10.963,6.928-12.498l136.425-39.037
			C1750.671,524.89,1756.255,527.971,1757.812,533.327z"/>
		<g>
			<path style="fill:#BED7FB;" d="M1780.654,615.346c-0.271,4.13-3.099,7.834-7.304,9.037l-136.425,39.037
				c-4.227,1.209-8.594-0.471-11.005-3.857l69.484-63.303L1780.654,615.346z"/>
			<path style="fill:#F3F8FF;" d="M1757.812,533.327l-61.075,75.843l-93.619-27.195l-1.15-4.019
				c-1.537-5.373,1.566-10.963,6.928-12.498l136.425-39.037C1750.671,524.89,1756.255,527.971,1757.812,533.327z"/>
		</g>
	</g>
	<g>
		<g>
			<g>
				<path style="fill:#FCECDB;" d="M625.621,1212.858H525.163v-35.48h100.78c7.835,0,14.187,6.352,14.187,14.187v6.785
					C640.13,1206.362,633.634,1212.858,625.621,1212.858z"/>
				<path style="fill:#699DEE;" d="M725.875,1191.976v5.338c0,2.853-0.767,5.523-2.108,7.818c-2.693,4.62-7.703,7.726-13.438,7.726
					H522.083c-1.246,0-2.255-1.01-2.255-2.253v-0.799c0-1.244,1.009-2.253,2.255-2.253h114.753c0.613-0.749,1.154-1.558,1.61-2.421
					c1.075-2.024,1.682-4.332,1.682-6.783v-6.785c0-1.247-0.161-2.459-0.465-3.61c-0.514-1.953-1.433-3.741-2.661-5.269h-114.92
					c-1.246,0-2.255-1.01-2.255-2.255v-0.798c0-1.245,1.009-2.255,2.255-2.255h189.194c6.667,0,12.291,4.47,14.036,10.576
					C725.68,1189.231,725.875,1190.581,725.875,1191.976z"/>
				<path style="fill:#548EE2;" d="M725.313,1187.953h-85.648c-0.514-1.953-1.433-3.741-2.661-5.269h-114.92
					c-1.246,0-2.255-1.01-2.255-2.255v-0.798c0-1.245,1.009-2.255,2.255-2.255h189.194
					C717.944,1177.377,723.568,1181.847,725.313,1187.953z"/>
			</g>
			<polygon style="fill:#F4D2B8;" points="525.163,1195.118 539.101,1195.715 525.163,1196.073 			"/>
			<polygon style="fill:#F4D2B8;" points="525.163,1200.685 558.323,1201.281 525.163,1201.641 			"/>
		</g>
		<g>
			<g>
				<g>
					<path style="fill:#FCECDB;" d="M637.477,1177.452H746.74v-40.547H637.118c-8.75,0-15.844,7.093-15.844,15.843v8.502
						C621.274,1170.198,628.529,1177.452,637.477,1177.452z"/>
					<path style="fill:#F99746;" d="M623.845,1152.637v8.727c0.026,3.728,2.09,6.961,5.122,8.689
						c1.493,0.849,3.217,1.334,5.05,1.334h118.657c1.391,0,2.518,1.127,2.518,2.518v1.029c0,1.391-1.127,2.519-2.518,2.519H547.691
						c-5.882,0-11.079-2.924-14.219-7.399c-1.979-2.819-3.142-6.253-3.142-9.962v-6.885c0-2.54,0.581-4.946,1.619-7.089
						c2.636-5.452,8.219-9.212,14.682-9.212h206.042c1.391,0,2.518,1.125,2.518,2.516v1.03c0,1.391-1.127,2.518-2.518,2.518h-119.02
						c-2.844,0-5.419,1.211-7.218,3.148C624.844,1147.833,623.861,1150.119,623.845,1152.637z"/>
				</g>
				<polygon style="fill:#F4D2B8;" points="746.74,1157.179 731.529,1157.86 746.74,1158.271 				"/>
				<polygon style="fill:#F4D2B8;" points="746.74,1147.848 710.552,1148.529 746.74,1148.939 				"/>
			</g>
			<g>
				<path style="fill:#F99746;" d="M710.924,1148.394c0,0,2.388,1.285,3.179,3.398c0.14,0.37,0.229,0.767,0.248,1.183
					c0.132,2.809,0,9.163,0,9.163l7.051-3.178l7.033,3.178v-8.613c0-1.629-0.604-3.213-1.724-4.25
					c-0.543-0.503-1.202-0.881-1.948-0.881H710.924z"/>
				<path style="fill:#ED7D2B;" d="M710.924,1148.394c0,0,2.388,1.285,3.179,3.398l14.13,0.126c0,0-0.555-3.025-3.471-3.524H710.924
					z"/>
			</g>
		</g>
	</g>
	<g>
		<path style="fill:#F99746;" d="M936.195,1125.846H824.787c-0.28,2.306-0.466,4.635-0.466,7.011v10.762
			c-7.407-1.561-17.679-2.818-22.943,0.419c-8.828,5.474-6.126,21.452,2.19,31.328c8.315,9.899,34.823,16.422,34.823,16.422
			c8.432,9.55,20.008,16.234,33.075,18.354c2.935,0.489,5.94,0.745,9.014,0.745c30.909,0,56.159-25.272,56.159-56.158v-21.872
			C936.638,1130.48,936.475,1128.151,936.195,1125.846z M807.271,1164.255c-3.564-9.2-1.165-12.601,2.818-13.323
			c4.449-0.792,10.528,2.283,14.372,7.547c0.442,6.521,2.003,12.741,4.496,18.471
			C822.714,1175.436,810.089,1171.522,807.271,1164.255z"/>
		<polygon style="fill:#F99746;" points="853.515,1212.858 904.521,1212.858 901.565,1205.994 855.741,1204.282 		"/>
		<path style="fill:#ED7D2B;" d="M872.164,1204.9c-33.693-39.003-26.414-57.929-20.381-79.055h-26.996
			c-0.28,2.306-0.466,4.635-0.466,7.011v10.762c-7.407-1.561-17.679-2.818-22.943,0.419c-8.828,5.474-6.126,21.452,2.19,31.328
			c8.315,9.899,34.823,16.422,34.823,16.422c4.8,5.436,10.644,9.899,17.177,13.166l-2.052,7.905h17.275l0.477-2.759
			c0.067,0.012,0.132,0.031,0.199,0.042L872.164,1204.9z M807.271,1164.255c-3.564-9.2-1.165-12.601,2.818-13.323
			c4.449-0.792,10.528,2.283,14.372,7.547c0.442,6.521,2.003,12.741,4.496,18.471
			C822.714,1175.436,810.089,1171.522,807.271,1164.255z"/>
	</g>
	<path style="fill:#699DEE;" d="M669.67,411.167h249.626c19.899,0,36.18,16.281,36.18,36.18v109.515
		c0,18.277-14.954,33.231-33.232,33.231h-6.413l12.027,50.798l-75.506-50.798H667.516c-19.882,0-36.149-16.267-36.149-36.149V449.47
		C631.367,428.403,648.603,411.167,669.67,411.167z"/>
	<g>
		<path style="fill:#AAC8E8;" d="M672.753,508.034h227.507c3.149,0,5.726-2.576,5.726-5.725v-0.177c0-3.149-2.577-5.725-5.726-5.725
			H672.753c-3.149,0-5.726,2.577-5.726,5.725v0.177C667.028,505.458,669.604,508.034,672.753,508.034z"/>
		<path style="fill:#AAC8E8;" d="M670.903,534.059h101.705c2.131,0,3.875-1.744,3.875-3.875v-3.878c0-2.131-1.744-3.875-3.875-3.875
			H670.903c-2.131,0-3.875,1.744-3.875,3.875v3.878C667.028,532.315,668.772,534.059,670.903,534.059z"/>
		<path style="fill:#AAC8E8;" d="M790.956,534.059h88.628c1.995,0,3.626-1.632,3.626-3.627v-4.374c0-1.995-1.632-3.627-3.626-3.627
			h-88.628c-1.995,0-3.626,1.632-3.626,3.627v4.374C787.33,532.427,788.962,534.059,790.956,534.059z"/>
		<path style="fill:#AAC8E8;" d="M741.674,461.15h81.645c3.119,0,5.67-2.551,5.67-5.67l0,0c0-3.118-2.551-5.67-5.67-5.67h-81.645
			c-3.118,0-5.669,2.551-5.669,5.67l0,0C736.005,458.599,738.556,461.15,741.674,461.15z"/>
		<path style="fill:#AAC8E8;" d="M671.509,461.15h49.128c2.465,0,4.481-2.017,4.481-4.481v-2.376c0-2.465-2.017-4.482-4.481-4.482
			h-49.128c-2.464,0-4.482,2.017-4.482,4.482v2.376C667.028,459.133,669.045,461.15,671.509,461.15z"/>
	</g>
</g>
</svg>
