<?xml version="1.0" encoding="utf-8"?>
<!-- Generator: Adobe Illustrator 27.5.0, SVG Export Plug-In . SVG Version: 6.00 Build 0)  -->
<svg version="1.1" xmlns="http://www.w3.org/2000/svg" xmlns:xlink="http://www.w3.org/1999/xlink" x="0px" y="0px"
	 viewBox="0 0 500 500" style="enable-background:new 0 0 500 500;" xml:space="preserve">
<g id="BACKGROUND">
	<rect style="fill:#fff;" width="0" height="0"/>
	<path style="fill:#DCEAFF;" d="M375.079,69.9c-22.687-10.681-48.141-20.184-72.338-13.607c-9.825,2.671-18.817,7.877-28.646,10.531
		c-11.6,3.132-23.89,2.579-35.787,0.894c-27.945-3.957-55.077-14.005-83.297-14.455c-28.22-0.451-59.677,12.159-69.098,38.764
		c-4.281,12.088-3.434,25.28-3.649,38.102c-0.542,32.28-8.266,64.419-22.452,93.42c-12.618,25.796-30.812,53.944-20.765,80.846
		c11.494,30.776,53.323,39.677,68.814,68.648c9.027,16.883,7.305,37.227,5.609,56.297c-0.323,3.628-0.623,7.379,0.536,10.832
		c2.035,6.064,8.057,9.828,13.971,12.264c23.206,9.557,49.759,6.041,73.803-1.153c12.152-3.636,24.189-8.248,34.497-15.64
		c10.262-7.358,18.6-17.32,29.537-23.632c19.991-11.537,44.699-8.985,67.747-7.745c20.367,1.095,40.804,0.887,61.144-0.625
		c13.497-1.003,27.225-2.653,39.5-8.351c12.276-5.698,23.041-16.096,26.056-29.29c3.767-16.482-5.249-33.584-17.654-45.072
		c-6.608-6.12-14.192-11.137-20.613-17.454c-21.631-21.277-27.096-54.054-26.707-84.393c0.273-21.274,3.353-43.768,16.642-60.382
		c6.4-8.001,14.87-14.224,20.838-22.552C465.237,90.844,404.719,83.854,375.079,69.9z"/>
	<g>
		<path style="fill:#E5EEFE;" d="M356.839,432.167c-13.022,0-26.258-1.101-38.807-4.809c-6.656-1.967-13.163-4.675-19.455-7.293
			c-4.478-1.863-9.108-3.79-13.748-5.431c-16.565-5.859-33.954-8.403-50.345-10.506c-21.378-2.742-44.137-5.123-66.729-1.585
			c-8.238,1.29-16.545,3.399-24.579,5.439c-15.222,3.866-30.959,7.859-46.805,6.409c-8.501-0.781-14.667-3.178-18.851-7.326
			c-6.311-6.259-7.448-15.725-8.073-24.884c-1.095-16.081-2.028-34.77,0.787-53.074c1.495-9.718,4.059-19.379,6.539-28.722
			c2.576-9.704,5.239-19.739,6.696-29.819c1.971-13.64,2.88-39.06-13.17-56.058c-3.769-3.991-8.32-7.299-12.722-10.498
			c-4.614-3.352-9.384-6.819-13.306-11.1c-5.814-6.349-8.51-12.913-8.013-19.51c1.056-14.01,16.264-26.278,28.484-36.136
			c3.4-2.743,6.612-5.334,9.316-7.779l0.335,0.371l-0.335-0.371c30.709-27.764,62.463-56.474,101.551-72.784
			c33.906-14.148,83.315-19.775,120.31,6.859c6.734,4.849,12.853,10.646,18.771,16.251c4.261,4.037,8.668,8.211,13.264,11.993
			c15.127,12.446,33.213,21.351,52.303,25.754c4.612,1.064,9.402,1.897,14.034,2.704c11.592,2.018,23.579,4.103,33.938,9.982
			c15.926,9.039,27.021,27.161,28.954,47.295c1.696,17.668-3.374,37.072-14.276,54.639c-3.364,5.42-7.252,10.675-11.012,15.756
			c-7.555,10.21-15.365,20.767-19.108,32.989c-3.9,12.731-3.176,26.227-2.476,39.276l3.691,68.764
			c0.729,13.571,0.116,32.389-13.564,39.088c-4.479,2.194-9.686,2.539-14.28,2.843C376.793,431.512,366.879,432.167,356.839,432.167
			z M192.12,399.765c14.47,0,28.766,1.611,42.491,3.372c16.444,2.11,33.893,4.663,50.552,10.555
			c4.665,1.65,9.308,3.582,13.798,5.451c6.269,2.608,12.749,5.306,19.354,7.257c22.054,6.517,45.3,4.98,67.779,3.496
			c4.502-0.298,9.604-0.636,13.907-2.743c13.147-6.438,13.719-24.849,13.005-38.137l-3.691-68.764
			c-0.705-13.137-1.435-26.721,2.517-39.622c3.794-12.385,11.657-23.013,19.262-33.291c3.747-5.066,7.623-10.303,10.966-15.689
			c10.788-17.381,15.806-36.564,14.13-54.016c-1.902-19.815-12.805-37.641-28.452-46.52c-10.208-5.794-22.107-7.865-33.616-9.868
			c-4.645-0.808-9.448-1.644-14.087-2.714c-19.239-4.438-37.468-13.413-52.713-25.956c-4.623-3.804-9.043-7.99-13.317-12.039
			c-5.894-5.583-11.987-11.356-18.667-16.165c-36.658-26.394-85.684-20.791-119.341-6.748
			c-38.93,16.245-70.619,44.895-101.265,72.604c-2.726,2.464-5.948,5.064-9.359,7.816c-12.07,9.737-27.092,21.855-28.115,35.433
			c-0.482,6.4,2.054,12.536,7.753,18.759c3.853,4.206,8.583,7.644,13.156,10.967c4.438,3.226,9.029,6.561,12.861,10.62
			c16.339,17.304,15.429,43.07,13.432,56.887c-1.464,10.138-4.135,20.201-6.718,29.934c-2.473,9.317-5.03,18.952-6.517,28.617
			c-2.8,18.203-1.87,36.826-0.777,52.854c0.611,8.969,1.715,18.229,7.779,24.241c4.012,3.979,9.978,6.282,18.238,7.041
			c15.67,1.438,31.326-2.537,46.467-6.382c8.056-2.046,16.386-4.161,24.671-5.459C175.782,400.274,183.979,399.765,192.12,399.765z"
			/>
	</g>
	<g>
		<g>
			<path style="fill:#4C59E0;" d="M378.219,182.259c-0.987-0.163-1.975-0.318-2.962-0.468l0.15-0.988
				c0.991,0.15,1.982,0.306,2.974,0.47L378.219,182.259z"/>
		</g>
		<g>
			<path style="fill:#4C59E0;" d="M368.054,331.455l-0.781-0.625c1.193-1.489,2.492-2.995,3.861-4.477l0.734,0.68
				C370.515,328.496,369.231,329.984,368.054,331.455z M375.967,322.861l-0.693-0.721c1.359-1.307,2.826-2.646,4.36-3.98
				l0.656,0.754C378.769,320.238,377.314,321.566,375.967,322.861z M384.787,315.155l-0.627-0.779
				c1.464-1.178,2.982-2.364,4.645-3.628l0.605,0.795C387.756,312.802,386.243,313.983,384.787,315.155z M394.119,308.038
				l-0.59-0.807c1.581-1.157,3.172-2.306,4.766-3.45l0.584,0.813C397.287,305.736,395.698,306.883,394.119,308.038z
				 M403.654,301.168l-0.584-0.813c1.594-1.145,3.182-2.291,4.757-3.446l0.592,0.807C406.84,298.873,405.25,300.022,403.654,301.168
				z M413.14,294.19l-0.613-0.789l0.306-0.235c1.451-1.109,2.894-2.256,4.288-3.408l0.637,0.771
				c-1.403,1.159-2.855,2.314-4.316,3.431L413.14,294.19z M422.228,286.669l-0.67-0.742c1.475-1.332,2.905-2.688,4.252-4.028
				l0.705,0.709C425.158,283.959,423.716,285.325,422.228,286.669z M430.587,278.326l-0.744-0.668
				c1.332-1.485,2.6-2.989,3.767-4.469l0.785,0.619C433.215,275.305,431.934,276.824,430.587,278.326z M437.887,269.04l-0.828-0.559
				c1.111-1.648,2.142-3.317,3.06-4.963l0.873,0.488C440.06,265.676,439.015,267.369,437.887,269.04z M443.625,258.705l-0.916-0.4
				c0.788-1.809,1.47-3.643,2.026-5.449l0.955,0.295C445.124,254.992,444.429,256.861,443.625,258.705z M447.086,247.384
				l-0.984-0.174c0.338-1.914,0.549-3.855,0.626-5.773l1,0.041C447.647,243.439,447.432,245.426,447.086,247.384z M446.565,235.637
				c-0.188-1.905-0.515-3.83-0.971-5.721l0.973-0.234c0.467,1.936,0.801,3.907,0.994,5.857L446.565,235.637z M443.868,224.371
				c-0.68-1.778-1.488-3.56-2.403-5.296l0.885-0.466c0.934,1.771,1.758,3.589,2.452,5.404L443.868,224.371z M438.47,214.081
				c-1.072-1.586-2.252-3.151-3.506-4.652l0.767-0.642c1.275,1.527,2.476,3.119,3.566,4.734L438.47,214.081z M431.015,205.143
				c-1.371-1.354-2.83-2.665-4.336-3.897l0.633-0.773c1.53,1.252,3.013,2.584,4.406,3.959L431.015,205.143z M422.002,197.763
				l-0.336-0.225c-1.485-0.989-3.044-1.946-4.629-2.844l0.492-0.87c1.606,0.909,3.185,1.879,4.692,2.882l0.339,0.227
				L422.002,197.763z M411.852,192.006c-1.722-0.816-3.525-1.601-5.36-2.33l0.369-0.93c1.855,0.738,3.679,1.531,5.419,2.356
				L411.852,192.006z M400.996,187.674c-1.802-0.6-3.686-1.174-5.599-1.708l0.268-0.963c1.93,0.538,3.83,1.117,5.647,1.721
				L400.996,187.674z M389.722,184.518c-1.847-0.43-3.774-0.841-5.731-1.224l0.191-0.981c1.969,0.384,3.909,0.799,5.767,1.231
				L389.722,184.518z"/>
		</g>
		<g>
			<path style="fill:#4C59E0;" d="M362.939,338.684l-0.852-0.525c0.53-0.86,1.078-1.705,1.642-2.536l0.828,0.56
				C364.002,337.002,363.462,337.835,362.939,338.684z"/>
		</g>
	</g>
	<g>
		<path style="fill:#4C59E0;" d="M90.627,429.005l-0.027-1c1.972-0.053,3.967-0.209,5.929-0.463l0.129,0.992
			C94.662,428.792,92.633,428.951,90.627,429.005z M84.58,428.858c-2.01-0.153-4.029-0.41-6-0.766l0.178-0.984
			c1.938,0.35,3.922,0.603,5.897,0.752L84.58,428.858z M102.607,427.44l-0.232-0.973c1.928-0.461,3.845-1.029,5.698-1.689
			l0.336,0.941C106.522,426.393,104.57,426.972,102.607,427.44z M72.69,426.709c-1.943-0.567-3.863-1.241-5.708-2.005l0.382-0.924
			c1.812,0.749,3.699,1.412,5.607,1.968L72.69,426.709z M113.988,423.371l-0.44-0.898c0.849-0.415,1.698-0.859,2.522-1.322
			c0.879-0.492,1.775-1.024,2.662-1.583l0.533,0.846c-0.902,0.568-1.813,1.109-2.706,1.61
			C115.719,422.494,114.854,422.948,113.988,423.371z M61.528,422.08c-1.776-0.984-3.497-2.074-5.116-3.241l0.585-0.811
			c1.586,1.143,3.274,2.212,5.015,3.177L61.528,422.08z M124.229,416.975l-0.603-0.799c1.515-1.143,3.032-2.37,4.639-3.752
			l0.652,0.758C127.294,414.578,125.76,415.818,124.229,416.975z M51.723,415.003c-1.463-1.359-2.867-2.838-4.17-4.393l0.767-0.643
			c1.277,1.524,2.651,2.972,4.084,4.304L51.723,415.003z M133.391,409.151l-0.684-0.73c1.268-1.189,2.64-2.508,4.316-4.151
			l0.7,0.715C136.042,406.633,134.665,407.957,133.391,409.151z M43.95,405.741c-1.091-1.673-2.103-3.44-3.008-5.254l0.895-0.447
			c0.889,1.78,1.881,3.514,2.952,5.154L43.95,405.741z M141.998,400.772l-0.702-0.713c1.427-1.406,2.86-2.808,4.31-4.188
			l0.689,0.725C144.85,397.972,143.421,399.369,141.998,400.772z M38.546,394.93c-0.692-1.886-1.287-3.833-1.769-5.788l0.971-0.24
			c0.473,1.92,1.058,3.833,1.736,5.685L38.546,394.93z M150.696,392.545l-0.662-0.75c0.917-0.809,1.844-1.606,2.784-2.384
			c0.604-0.5,1.221-0.993,1.848-1.478l0.611,0.791c-0.619,0.478-1.226,0.964-1.822,1.457
			C152.523,390.952,151.604,391.741,150.696,392.545z M160.145,385.293l-0.54-0.842c1.723-1.104,3.485-2.122,5.237-3.022
			l0.457,0.889C163.575,383.204,161.841,384.205,160.145,385.293z M35.654,383.194c-0.265-2.002-0.418-4.033-0.456-6.036l1-0.02
			c0.037,1.966,0.188,3.959,0.447,5.925L35.654,383.194z M170.72,379.875l-0.36-0.934c1.935-0.746,3.878-1.363,5.778-1.832
			l0.24,0.971C174.518,378.539,172.615,379.143,170.72,379.875z M197.777,379.819c-1.25-0.623-2.562-1.152-3.898-1.573l0.301-0.953
			c1.385,0.436,2.746,0.985,4.043,1.632L197.777,379.819z M182.212,377.089l-0.089-0.996c2.071-0.186,4.123-0.186,6.083,0
			l-0.094,0.996C186.212,376.91,184.224,376.91,182.212,377.089z M36.43,371.205l-0.995-0.098c0.198-2.021,0.519-4.033,0.954-5.981
			l0.976,0.219C36.939,367.252,36.625,369.225,36.43,371.205z M39.022,359.648l-0.94-0.34c0.678-1.872,1.482-3.707,2.389-5.452
			l0.05-0.096l0.889,0.457l-0.05,0.098C40.472,356.024,39.686,357.818,39.022,359.648z M44.453,349.12l-0.83-0.557
			c1.073-1.6,2.246-3.19,3.586-4.86l0.78,0.625C46.667,345.978,45.51,347.545,44.453,349.12z M51.868,339.79l-0.743-0.67
			c1.188-1.319,2.493-2.717,4.106-4.397l0.722,0.693C54.346,337.089,53.048,338.478,51.868,339.79z M60.126,331.108l-0.717-0.697
			c1.393-1.433,2.78-2.871,4.142-4.328l0.73,0.684C62.915,328.228,61.523,329.67,60.126,331.108z M68.307,322.288l-0.76-0.65
			c1.305-1.525,2.543-3.102,3.682-4.684l0.812,0.584C70.886,319.143,69.629,320.741,68.307,322.288z M75.341,312.472l-0.863-0.504
			c1.03-1.763,1.943-3.54,2.716-5.284l0.914,0.404C77.321,308.866,76.39,310.678,75.341,312.472z M80.19,301.393l-0.961-0.275
			c0.562-1.957,0.95-3.906,1.154-5.792l0.994,0.107C81.167,297.376,80.768,299.381,80.19,301.393z M80.423,289.441
			c-0.196-1.966-0.616-3.896-1.248-5.737l0.946-0.324c0.656,1.914,1.092,3.92,1.296,5.962L80.423,289.441z"/>
	</g>
	<g>
		<path style="fill:#4C59E0;" d="M284.871,218.405l-0.996-0.097c0.084-0.864,0.185-1.727,0.302-2.586l0.99,0.135
			C285.052,216.704,284.953,217.554,284.871,218.405z M286.232,209.999l-0.975-0.222c0.444-1.951,0.982-3.912,1.596-5.826
			l0.952,0.306C287.2,206.144,286.671,208.077,286.232,209.999z M289.866,198.669l-0.922-0.385c0.77-1.847,1.632-3.688,2.56-5.472
			l0.887,0.462C291.477,195.032,290.627,196.847,289.866,198.669z M295.356,188.109l-0.846-0.534
			c1.071-1.697,2.228-3.369,3.437-4.968l0.797,0.604C297.553,184.787,296.413,186.435,295.356,188.109z M302.535,178.616
			l-0.744-0.668c1.343-1.495,2.766-2.946,4.229-4.314l0.684,0.73C305.261,175.713,303.858,177.144,302.535,178.616z
			 M311.227,170.494l-0.615-0.789c0.603-0.47,1.214-0.93,1.833-1.38c0.97-0.705,1.977-1.401,3.08-2.129l0.551,0.835
			c-1.091,0.719-2.086,1.407-3.043,2.103C312.424,169.577,311.821,170.03,311.227,170.494z M321.148,163.872l-0.51-0.859
			c1.72-1.021,3.459-2.019,5.199-3.015l0.496,0.868C324.6,161.858,322.864,162.853,321.148,163.872z M331.536,157.856l-0.51-0.86
			c1.971-1.166,3.586-2.165,5.084-3.145l0.547,0.837C335.146,155.676,333.519,156.683,331.536,157.856z M106.233,156.743l-0.995-0.1
			c0.189-1.884,0.319-3.887,0.386-5.953l0.999,0.032C106.556,152.812,106.424,154.837,106.233,156.743z M341.583,151.196
			l-0.613-0.79c1.666-1.292,3.132-2.566,4.482-3.893l0.701,0.713C344.775,148.581,343.28,149.88,341.583,151.196z M105.664,144.716
			c-0.031-1.842-0.098-3.797-0.205-5.979l0.999-0.049c0.107,2.193,0.175,4.159,0.206,6.012L105.664,144.716z M350.153,142.664
			l-0.801-0.599c0.564-0.755,1.1-1.538,1.594-2.326c0.541-0.864,1.042-1.771,1.489-2.695l0.9,0.436
			c-0.463,0.957-0.981,1.896-1.542,2.79C351.285,141.082,350.733,141.887,350.153,142.664z M105.109,132.755l-0.402-5.986
			l0.998-0.066l0.402,5.987L105.109,132.755z M355.426,131.762l-0.969-0.25c0.484-1.876,0.8-3.836,0.938-5.825l0.998,0.069
			C356.25,127.806,355.925,129.826,355.426,131.762z M104.346,120.77c-0.112-2.205-0.185-4.172-0.22-6.012l1-0.02
			c0.035,1.83,0.106,3.786,0.219,5.981L104.346,120.77z M355.298,119.779c-0.196-1.948-0.558-3.904-1.074-5.814l0.965-0.261
			c0.531,1.962,0.902,3.973,1.104,5.974L355.298,119.779z M105.15,108.763l-1-0.03c0.065-2.131,0.191-4.101,0.384-6.022l0.995,0.1
			C105.338,104.709,105.214,106.656,105.15,108.763z M352.22,108.402c-0.823-1.807-1.797-3.539-2.893-5.149l0.826-0.563
			c1.129,1.657,2.131,3.439,2.978,5.298L352.22,108.402z M345.579,98.697c-1.402-1.412-2.93-2.675-4.539-3.753l0.557-0.831
			c1.665,1.116,3.243,2.421,4.691,3.88L345.579,98.697z M106.38,96.919l-0.982-0.189c0.391-2.029,0.882-4.005,1.46-5.872
			l0.955,0.296C107.247,92.986,106.764,94.926,106.38,96.919z M335.84,92.165c-1.745-0.737-3.633-1.369-5.613-1.877l0.248-0.969
			c2.028,0.521,3.965,1.169,5.754,1.925L335.84,92.165z M251.918,90.919c-1.901,0-3.66-0.05-5.378-0.152l0.059-0.998
			c1.698,0.101,3.438,0.15,5.319,0.15l0.645-0.002l0.006,1L251.918,90.919z M258.588,90.739l-0.049-0.999
			c1.74-0.086,3.64-0.206,5.975-0.376l0.072,0.997C262.243,90.532,260.337,90.652,258.588,90.739z M240.529,90.154
			c-2.053-0.306-4.048-0.714-5.929-1.213l0.257-0.967c1.845,0.49,3.803,0.891,5.82,1.191L240.529,90.154z M270.572,89.903
			l-0.076-0.997l0.774-0.059c1.738-0.131,3.477-0.254,5.217-0.367l0.064,0.998c-1.735,0.113-3.471,0.235-5.206,0.366L270.572,89.903
			z M324.395,89.156c-1.852-0.257-3.794-0.444-5.933-0.571l0.059-0.998c2.166,0.129,4.133,0.318,6.011,0.579L324.395,89.156z
			 M282.534,89.122l-0.053-0.999c1.998-0.107,3.998-0.203,5.998-0.288l0.043,0.999C286.526,88.919,284.53,89.015,282.534,89.122z
			 M294.513,88.616l-0.031-1c2.001-0.062,4.002-0.111,6.004-0.149l0.02,1C298.507,88.505,296.51,88.555,294.513,88.616z
			 M312.489,88.387c-0.876-0.01-1.751-0.014-2.623-0.014l-0.994,0.001c-0.791,0.002-1.582,0.006-2.373,0.012l-0.008-1
			c0.793-0.006,1.586-0.01,2.378-0.012l0.997-0.001c0.876,0,1.755,0.004,2.635,0.014L312.489,88.387z M228.854,87.016
			c-1.783-0.729-3.569-1.581-5.46-2.605l0.476-0.879c1.86,1.007,3.614,1.844,5.363,2.559L228.854,87.016z M109.913,85.606
			l-0.911-0.413c0.269-0.592,0.55-1.182,0.846-1.769c0.611-1.21,1.291-2.412,2.023-3.572l0.846,0.533
			c-0.715,1.133-1.379,2.308-1.976,3.489C110.452,84.449,110.176,85.026,109.913,85.606z M218.202,81.336
			c-1.456-0.928-3.001-1.956-5.009-3.335l0.566-0.824c1.998,1.372,3.534,2.395,4.98,3.316L218.202,81.336z M116.214,75.601
			l-0.766-0.643c1.281-1.527,2.69-3.001,4.186-4.38l0.678,0.735C118.848,72.665,117.469,74.107,116.214,75.601z M208.256,74.591
			c-1.782-1.222-3.166-2.145-4.489-2.993l-0.496-0.316l0.536-0.844l0.499,0.317c1.333,0.854,2.725,1.783,4.515,3.011L208.256,74.591
			z M198.142,68.228c-1.748-0.975-3.531-1.902-5.296-2.756l0.436-0.9c1.783,0.862,3.582,1.798,5.348,2.783L198.142,68.228z
			 M124.911,67.56l-0.586-0.811c1.616-1.168,3.331-2.266,5.098-3.262l0.491,0.871C128.18,65.336,126.496,66.413,124.911,67.56z
			 M187.395,63.042c-1.853-0.757-3.735-1.454-5.594-2.072l0.315-0.949c1.88,0.625,3.784,1.33,5.657,2.095L187.395,63.042z
			 M135.239,61.719l-0.396-0.918c1.839-0.793,3.747-1.5,5.672-2.103l0.299,0.954C138.922,60.245,137.047,60.94,135.239,61.719z
			 M176.079,59.292c-1.939-0.493-3.9-0.912-5.828-1.246l0.171-0.985c1.953,0.338,3.939,0.763,5.903,1.263L176.079,59.292z
			 M146.574,58.17l-0.199-0.979c1.978-0.402,3.991-0.704,5.984-0.896l0.096,0.995C150.497,57.479,148.518,57.775,146.574,58.17z
			 M164.345,57.271c-1.975-0.175-3.962-0.264-5.909-0.264l-0.039-1h0.039c1.976,0,3.993,0.09,5.997,0.268L164.345,57.271z"/>
	</g>
</g>
<g id="OBJECT">
	<g style="opacity:0.1;">
		<g style="opacity:0.3;">
			<path style="fill:#444444;" d="M330.477,236.265l-180.714,78.638c-4.731,2.059-10.603-0.664-13.51-6.262l-44.591-76.912
				c-3.272-6.303-1.511-13.7,3.815-16.017l199.418-86.777c5.326-2.318,11.939,1.435,14.321,8.125l25.887,85.051
				C337.218,228.054,335.208,234.207,330.477,236.265z"/>
		</g>
		<g style="opacity:0.3;">
			<path style="fill:#444444;" d="M386.39,367.141L207.42,445.02c-5.9,2.568-12.765-0.134-15.332-6.035L145.76,332.521
				c-2.568-5.9,0.134-12.765,6.035-15.332l178.969-77.879c5.9-2.568,12.765,0.134,15.332,6.035l46.328,106.465
				C394.992,357.709,392.29,364.574,386.39,367.141z"/>
		</g>
	</g>
	<path style="opacity:0.1;fill:#444444;" d="M393.129,353.282l-46.328-106.464c-0.156-0.359-0.33-0.705-0.517-1.04l-0.188-0.432
		c-2.568-5.9-9.432-8.602-15.332-6.035l-15.098,6.57c-0.085-0.284-0.182-0.566-0.303-0.844l-0.08-0.183
		c-0.25-0.574-0.57-1.094-0.937-1.569l17.057-7.423c4.779-2.08,6.831-8.25,4.719-14.195l-25.791-85.093
		c-0.081-0.229-0.18-0.446-0.271-0.668l-1.238-4.091c-2.375-6.694-9.05-10.419-14.453-8.068L92.038,211.792
		c-5.404,2.351-7.227,9.775-3.948,16.075l2.15,3.695c0.1,0.218,0.192,0.438,0.304,0.653l44.687,76.871
		c2.911,5.597,8.824,8.302,13.603,6.222l16.956-7.378c0.099,0.417,0.229,0.831,0.406,1.237l0.079,0.181
		c0.193,0.443,0.427,0.855,0.692,1.24l-15.172,6.602c-5.9,2.568-8.602,9.432-6.035,15.332l46.328,106.465
		c0.156,0.359,0.33,0.705,0.516,1.04l0.188,0.433c2.568,5.9,9.432,8.602,15.332,6.035l178.969-77.879
		C392.995,366.046,395.697,359.182,393.129,353.282z M199.208,295.016l-0.079-0.181c-0.177-0.406-0.391-0.783-0.629-1.14
		l103.372-44.982l-20.363,8.861c0.098,0.592,0.26,1.181,0.51,1.755l0.08,0.183c0.121,0.278,0.261,0.541,0.411,0.797l-82.866,36.059
		C199.543,295.912,199.401,295.459,199.208,295.016z"/>
	<path style="opacity:0.1;fill:#444444;" d="M171.596,359.557c0.088-0.845,0.134-1.703,0.134-2.57c0-13.697-11.104-24.8-24.799-24.8
		c-5.853,0-11.228,2.032-15.469,5.422c-2.078-1.469-4.611-2.336-7.349-2.336c-5.819,0-10.724,3.904-12.249,9.233
		c-0.285-0.014-0.573-0.023-0.863-0.023c-8.599,0-15.671,6.539-16.517,14.915c-8.369,2.077-14.574,9.637-14.574,18.648
		c0,10.614,8.604,19.218,19.218,19.218h67.24c10.614,0,19.217-8.605,19.217-19.218C185.585,369.249,179.669,361.836,171.596,359.557
		z"/>
	<path style="opacity:0.1;fill:#444444;" d="M279.756,88.602c-0.314-8.375-4.233-16.55-11.423-22.021
		c-7.184-5.467-16.107-7.065-24.263-5.136c-6.303,1.496-12.149,5.099-16.373,10.651c-8.419,11.062-7.662,26.223,1.011,36.376
		l-7.259,9.539l-21.16,7.798c-2.257,0.832-3.413,3.336-2.581,5.593c0.832,2.257,3.336,3.413,5.594,2.581l13.057-4.812l-2.796,3.674
		c-1.324,1.74-0.987,4.223,0.753,5.547c1.74,1.324,4.223,0.987,5.548-0.753l2.196-2.886l-1.06,12.696
		c-0.2,2.397,1.581,4.503,3.979,4.703c2.397,0.2,4.503-1.581,4.703-3.979l1.915-22.945l-0.132-0.011l7.061-9.278
		c12.1,5.654,26.912,2.342,35.33-8.719C278.079,101.67,279.994,95.076,279.756,88.602z"/>
	<path style="opacity:0.1;fill:#444444;" d="M127.863,96.267l-71.109,63.56c8.717,9.752,43.169,48.297,53.096,59.403
		c0,0,58.843-52.596,71.11-63.56C180.959,155.669,137.786,107.368,127.863,96.267z"/>
	<path style="fill:#78D2FF;" d="M171.596,356.226c0.088-0.845,0.134-1.703,0.134-2.57c0-13.697-11.104-24.8-24.799-24.8
		c-5.853,0-11.228,2.032-15.469,5.422c-2.078-1.469-4.611-2.336-7.349-2.336c-5.819,0-10.724,3.904-12.249,9.233
		c-0.285-0.014-0.573-0.023-0.863-0.023c-8.599,0-15.671,6.539-16.517,14.915c-8.369,2.077-14.574,9.637-14.574,18.648
		c0,10.614,8.604,19.218,19.218,19.218h67.24c10.614,0,19.217-8.604,19.217-19.218C185.585,365.917,179.669,358.505,171.596,356.226
		z"/>
	<g>
		<path style="fill:#F0F0FC;" d="M121.178,96.245c9.923,11.102,53.096,59.403,53.096,59.403c-12.266,10.964-71.11,63.56-71.11,63.56
			c-9.927-11.106-44.379-49.65-53.096-59.403L121.178,96.245z"/>
		<path style="fill:#DAF3FF;" d="M121.471,99.006c9.408,10.526,50.337,56.316,50.337,56.316
			c-11.801,10.548-68.435,61.169-68.435,61.169c-9.411-10.528-42.068-47.065-50.337-56.315L121.471,99.006z"/>
		<path style="fill:#46B09E;" d="M103.373,216.49c-13.357-14.944-26.423-29.561-26.423-29.561c0.524-0.485,1.052-0.978,1.584-1.453
			c22.652-20.247,52.856-23.588,68.298-7.832L103.373,216.49z"/>
		<path style="fill:#FFD23C;" d="M129.875,117.049c4.152,4.646,3.759,11.782-0.893,15.94c-4.642,4.15-11.781,3.746-15.934-0.9
			c-4.152-4.645-3.755-11.785,0.887-15.934C118.587,111.997,125.723,112.404,129.875,117.049z"/>
		<path style="fill:#31C9AC;" d="M113.276,207.639c0,0-2.869-55.825,34.672-79.011l23.86,26.693L113.276,207.639z"/>
	</g>
	<g>
		<path style="fill:#B7B7CE;" d="M395.295,360.046l-178.97,77.879c-5.9,2.568-12.765-0.134-15.332-6.034l-46.328-106.465
			c-2.568-5.9,0.134-12.765,6.035-15.332l178.969-77.878c5.9-2.568,12.765,0.134,15.332,6.035l46.328,106.465
			C403.897,350.614,401.195,357.478,395.295,360.046z"/>
		<g style="opacity:0.3;">
			<path d="M338.677,227.697l-180.714,78.638c-4.731,2.059-10.604-0.664-13.51-6.262L99.861,223.16
				c-3.272-6.303-1.511-13.7,3.815-16.017l199.418-86.777c5.326-2.318,11.939,1.434,14.321,8.125l25.887,85.051
				C345.418,219.486,343.408,225.639,338.677,227.697z"/>
		</g>
		<g style="opacity:0.3;">
			<path d="M394.59,358.573l-178.97,77.878c-5.9,2.568-12.765-0.134-15.332-6.034L153.96,323.953
				c-2.568-5.9,0.134-12.765,6.035-15.332l178.97-77.878c5.9-2.568,12.765,0.134,15.332,6.035l46.328,106.465
				C403.192,349.141,400.49,356.006,394.59,358.573z"/>
		</g>
		<path style="fill:#B7B7CE;" d="M338.016,222.569l-183.355,79.787c-4.8,2.089-10.73-0.608-13.643-6.204L96.29,219.298
			c-3.279-6.3-1.456-13.724,3.948-16.075l202.332-88.045c5.404-2.351,12.078,1.374,14.453,8.068l25.751,85.111
			C344.884,214.303,342.816,220.48,338.016,222.569z"/>
		<path style="fill:#FFFFFF;" d="M339.605,227.294l-182.57,79.445c-4.779,2.08-10.693-0.625-13.603-6.222l-44.687-76.871
			c-3.277-6.301-1.472-13.716,3.908-16.058l201.465-87.668c5.381-2.341,12.037,1.392,14.414,8.085l25.791,85.093
			C346.435,219.044,344.384,225.214,339.605,227.294z"/>
		<path style="fill:#4C59E0;" d="M153.196,298.99c-0.305,0.133-1.759-0.293-2.75-2.197l-0.097-0.186l-44.705-76.813
			c-0.677-1.39-0.65-2.689-0.391-3.456c0.112-0.33,0.273-0.582,0.411-0.642l202.332-88.045c0.138-0.06,0.433-0.006,0.75,0.137
			c0.738,0.333,1.706,1.199,2.262,2.642l25.737,85.067l0.07,0.197c0.718,2.023,0.039,3.377-0.266,3.509L153.196,298.99z"/>
		<path style="fill:#FFFFFF;" d="M394.59,358.573l-178.97,77.878c-5.9,2.568-12.765-0.134-15.332-6.034L153.96,323.953
			c-2.568-5.9,0.134-12.765,6.035-15.332l178.97-77.878c5.9-2.568,12.765,0.134,15.332,6.035l46.328,106.465
			C403.192,349.141,400.49,356.006,394.59,358.573z"/>
		
			<rect x="171.062" y="279.385" transform="matrix(0.9169 -0.399 0.399 0.9169 -102.9796 133.2657)" style="fill:#E1E0FE;" width="195.14" height="69.237"/>
		<g>
			<path style="fill:#CACAED;" d="M173.181,329.634l5.725-2.491c0.665-0.29,0.97-1.064,0.681-1.729l-2.491-5.725
				c-0.29-0.666-1.064-0.97-1.729-0.681l-5.725,2.491c-0.665,0.29-0.97,1.064-0.681,1.729l2.491,5.725
				C171.742,329.619,172.516,329.924,173.181,329.634z"/>
			<path style="fill:#CACAED;" d="M178.234,341.241l5.722-2.49c0.666-0.29,0.971-1.065,0.681-1.731l-2.49-5.722
				c-0.29-0.666-1.065-0.971-1.731-0.681l-5.722,2.49c-0.666,0.29-0.971,1.065-0.681,1.731l2.49,5.722
				C176.792,341.226,177.568,341.531,178.234,341.241z"/>
			<path style="fill:#CACAED;" d="M187.939,337.018l5.722-2.49c0.666-0.29,0.971-1.065,0.681-1.731l-2.49-5.722
				c-0.29-0.666-1.065-0.971-1.731-0.681l-5.722,2.49c-0.666,0.29-0.971,1.065-0.681,1.731l2.49,5.722
				C186.497,337.003,187.272,337.308,187.939,337.018z"/>
			<path style="fill:#CACAED;" d="M203.524,340.721l-2.49-5.722c-0.29-0.666-1.065-0.971-1.731-0.681l-5.723,2.49
				c-0.666,0.29-0.971,1.065-0.681,1.731l2.49,5.723c0.29,0.666,1.065,0.971,1.731,0.681l5.723-2.49
				C203.509,342.163,203.814,341.388,203.524,340.721z"/>
			<path style="fill:#CACAED;" d="M182.595,351.263l10.575-4.602c0.666-0.29,0.971-1.065,0.681-1.731l-2.49-5.722
				c-0.29-0.666-1.065-0.971-1.731-0.681l-10.575,4.602c-0.666,0.29-0.971,1.065-0.681,1.731l2.49,5.723
				C181.154,351.248,181.929,351.553,182.595,351.263z"/>
			<path style="fill:#CACAED;" d="M206.857,340.706l5.723-2.49c0.666-0.29,0.971-1.065,0.681-1.731l-2.49-5.722
				c-0.29-0.666-1.065-0.971-1.731-0.681l-5.722,2.49c-0.666,0.29-0.971,1.065-0.681,1.731l2.49,5.723
				C205.416,340.69,206.191,340.996,206.857,340.706z"/>
			<path style="fill:#CACAED;" d="M222.998,332.247l-2.49-5.722c-0.29-0.666-1.065-0.971-1.731-0.681l-5.722,2.49
				c-0.666,0.29-0.971,1.065-0.681,1.731l2.49,5.723c0.29,0.666,1.065,0.971,1.731,0.681l5.722-2.49
				C222.983,333.689,223.288,332.914,222.998,332.247z"/>
			<path style="fill:#CACAED;" d="M226.33,332.232l5.723-2.49c0.666-0.29,0.971-1.065,0.681-1.731l-2.49-5.722
				c-0.29-0.666-1.065-0.971-1.731-0.681l-5.723,2.49c-0.666,0.29-0.971,1.065-0.681,1.731l2.49,5.723
				C224.889,332.217,225.664,332.522,226.33,332.232z"/>
			<path style="fill:#CACAED;" d="M236.067,327.995l5.722-2.49c0.666-0.29,0.971-1.065,0.681-1.731l-2.49-5.722
				c-0.29-0.666-1.065-0.971-1.731-0.681l-5.722,2.49c-0.666,0.29-0.971,1.065-0.681,1.731l2.49,5.723
				C234.626,327.98,235.401,328.285,236.067,327.995z"/>
			<path style="fill:#CACAED;" d="M241.583,317.354l2.49,5.723c0.29,0.666,1.065,0.971,1.731,0.681l5.722-2.49
				c0.666-0.29,0.971-1.065,0.681-1.731l-2.49-5.722c-0.29-0.666-1.065-0.971-1.731-0.681l-5.722,2.49
				C241.598,315.913,241.293,316.688,241.583,317.354z"/>
			<path style="fill:#CACAED;" d="M251.319,313.117l2.49,5.723c0.29,0.666,1.065,0.971,1.731,0.681l5.722-2.49
				c0.666-0.29,0.971-1.065,0.681-1.731l-2.49-5.723c-0.29-0.666-1.065-0.971-1.731-0.681l-5.722,2.49
				C251.334,311.676,251.029,312.451,251.319,313.117z"/>
			<path style="fill:#CACAED;" d="M261.056,308.88l2.49,5.723c0.29,0.666,1.065,0.971,1.731,0.681l5.723-2.49
				c0.666-0.29,0.971-1.065,0.681-1.731l-2.49-5.723c-0.29-0.666-1.065-0.971-1.731-0.681l-5.723,2.49
				C261.071,307.439,260.766,308.214,261.056,308.88z"/>
			<path style="fill:#CACAED;" d="M270.793,304.643l2.49,5.723c0.29,0.666,1.065,0.971,1.731,0.681l5.722-2.49
				c0.666-0.29,0.971-1.065,0.681-1.731l-2.49-5.722c-0.29-0.666-1.065-0.971-1.731-0.681l-5.722,2.49
				C270.808,303.202,270.503,303.977,270.793,304.643z"/>
			<path style="fill:#CACAED;" d="M291.154,302.589l-2.49-5.723c-0.29-0.666-1.065-0.971-1.731-0.681l-5.722,2.49
				c-0.666,0.29-0.971,1.065-0.681,1.731l2.49,5.723c0.29,0.666,1.065,0.971,1.731,0.681l5.723-2.49
				C291.139,304.03,291.444,303.255,291.154,302.589z"/>
			<path style="fill:#CACAED;" d="M294.487,302.573l5.722-2.49c0.666-0.29,0.971-1.065,0.681-1.731l-2.49-5.723
				c-0.29-0.666-1.065-0.971-1.731-0.681l-5.722,2.49c-0.666,0.29-0.971,1.065-0.681,1.731l2.49,5.723
				C293.046,302.558,293.821,302.863,294.487,302.573z"/>
			<path style="fill:#CACAED;" d="M310.628,294.115l-2.49-5.723c-0.29-0.666-1.065-0.971-1.731-0.681l-5.722,2.49
				c-0.666,0.29-0.971,1.065-0.681,1.731l2.49,5.723c0.29,0.666,1.065,0.971,1.731,0.681l5.723-2.49
				C310.612,295.557,310.918,294.781,310.628,294.115z"/>
			<path style="fill:#CACAED;" d="M197.644,332.795l5.722-2.49c0.666-0.29,0.971-1.065,0.681-1.731l-2.49-5.722
				c-0.29-0.666-1.065-0.971-1.731-0.681l-5.722,2.49c-0.666,0.29-0.971,1.065-0.681,1.731l2.49,5.722
				C196.202,332.78,196.977,333.085,197.644,332.795z"/>
			<path style="fill:#CACAED;" d="M207.349,328.572l5.722-2.49c0.666-0.29,0.971-1.065,0.681-1.731l-2.49-5.722
				c-0.29-0.666-1.065-0.971-1.731-0.681l-5.722,2.49c-0.666,0.29-0.971,1.065-0.681,1.731l2.49,5.722
				C205.907,328.557,206.682,328.862,207.349,328.572z"/>
			<path style="fill:#CACAED;" d="M217.053,324.349l5.723-2.49c0.666-0.29,0.971-1.065,0.681-1.731l-2.49-5.722
				c-0.29-0.666-1.065-0.971-1.731-0.681l-5.723,2.49c-0.666,0.29-0.971,1.065-0.681,1.731l2.49,5.722
				C215.612,324.334,216.387,324.639,217.053,324.349z"/>
			<path style="fill:#CACAED;" d="M226.758,320.126l5.722-2.49c0.666-0.29,0.971-1.065,0.681-1.731l-2.49-5.722
				c-0.29-0.666-1.065-0.971-1.731-0.681l-5.722,2.49c-0.666,0.29-0.971,1.065-0.681,1.731l2.49,5.722
				C225.317,320.111,226.092,320.416,226.758,320.126z"/>
			<path style="fill:#CACAED;" d="M192.591,321.188l5.725-2.491c0.665-0.29,0.97-1.064,0.681-1.729l-2.491-5.725
				c-0.29-0.666-1.064-0.97-1.729-0.681l-5.725,2.491c-0.665,0.29-0.97,1.064-0.681,1.729l2.491,5.725
				C191.151,321.173,191.926,321.477,192.591,321.188z"/>
			<path style="fill:#CACAED;" d="M202.296,316.965l5.725-2.491c0.665-0.29,0.97-1.064,0.681-1.729l-2.491-5.725
				c-0.29-0.666-1.064-0.97-1.729-0.681l-5.725,2.491c-0.665,0.29-0.97,1.064-0.68,1.729l2.491,5.725
				C200.856,316.95,201.631,317.254,202.296,316.965z"/>
			<path style="fill:#CACAED;" d="M212.001,312.742l5.725-2.491c0.665-0.29,0.97-1.064,0.681-1.729l-2.491-5.725
				c-0.29-0.665-1.064-0.97-1.729-0.681l-5.725,2.491c-0.665,0.29-0.97,1.064-0.681,1.729l2.491,5.725
				C210.561,312.727,211.335,313.031,212.001,312.742z"/>
			<path style="fill:#CACAED;" d="M221.706,308.518l5.725-2.491c0.665-0.29,0.97-1.064,0.681-1.729l-2.491-5.725
				c-0.29-0.666-1.064-0.97-1.729-0.681l-5.725,2.491c-0.665,0.29-0.97,1.064-0.681,1.729l2.491,5.725
				C220.266,308.503,221.04,308.808,221.706,308.518z"/>
			<path style="fill:#CACAED;" d="M236.464,315.903l5.722-2.49c0.666-0.29,0.971-1.065,0.681-1.731l-2.49-5.722
				c-0.29-0.666-1.065-0.971-1.731-0.681l-5.722,2.49c-0.666,0.29-0.971,1.065-0.681,1.731l2.49,5.722
				C235.022,315.888,235.797,316.193,236.464,315.903z"/>
			<path style="fill:#CACAED;" d="M248.351,301.055l-5.722,2.49c-0.666,0.29-0.971,1.065-0.681,1.731l2.49,5.722
				c0.29,0.666,1.065,0.971,1.731,0.681l5.722-2.49c0.666-0.29,0.971-1.065,0.681-1.731l-2.49-5.722
				C249.792,301.07,249.017,300.765,248.351,301.055z"/>
			<path style="fill:#CACAED;" d="M258.056,296.831l-5.722,2.49c-0.666,0.29-0.971,1.065-0.681,1.731l2.49,5.722
				c0.29,0.666,1.065,0.971,1.731,0.681l5.723-2.49c0.666-0.29,0.971-1.065,0.681-1.731l-2.49-5.722
				C259.497,296.846,258.722,296.542,258.056,296.831z"/>
			<path style="fill:#CACAED;" d="M267.761,292.608l-5.722,2.49c-0.666,0.29-0.971,1.065-0.681,1.731l2.49,5.722
				c0.29,0.666,1.065,0.971,1.731,0.681l5.722-2.49c0.666-0.29,0.971-1.065,0.681-1.731l-2.49-5.722
				C269.202,292.623,268.427,292.318,267.761,292.608z"/>
			<path style="fill:#CACAED;" d="M271.062,292.607l2.49,5.722c0.29,0.666,1.065,0.971,1.731,0.681l5.722-2.49
				c0.666-0.29,0.971-1.065,0.681-1.731l-2.49-5.722c-0.29-0.666-1.065-0.971-1.731-0.681l-5.723,2.49
				C271.077,291.165,270.772,291.94,271.062,292.607z"/>
			<path style="fill:#CACAED;" d="M284.988,294.787l5.723-2.49c0.666-0.29,0.971-1.065,0.681-1.731l-2.49-5.722
				c-0.29-0.666-1.065-0.971-1.731-0.681l-5.723,2.49c-0.666,0.29-0.971,1.065-0.681,1.731l2.49,5.722
				C283.547,294.772,284.322,295.077,284.988,294.787z"/>
			<path style="fill:#CACAED;" d="M294.693,290.564l5.722-2.49c0.666-0.29,0.971-1.065,0.681-1.731l-2.49-5.722
				c-0.29-0.666-1.065-0.971-1.731-0.681l-5.722,2.49c-0.666,0.29-0.971,1.065-0.681,1.731l2.49,5.722
				C293.252,290.549,294.027,290.854,294.693,290.564z"/>
			<path style="fill:#CACAED;" d="M304.398,286.341l5.722-2.49c0.666-0.29,0.971-1.065,0.681-1.731l-2.49-5.722
				c-0.29-0.666-1.065-0.971-1.731-0.681l-5.722,2.49c-0.666,0.29-0.971,1.065-0.681,1.731l2.49,5.722
				C302.957,286.326,303.732,286.631,304.398,286.341z"/>
			<path style="fill:#CACAED;" d="M316.285,271.493l-5.723,2.49c-0.666,0.29-0.971,1.065-0.681,1.731l2.49,5.722
				c0.29,0.666,1.065,0.971,1.731,0.681l5.722-2.49c0.666-0.29,0.971-1.065,0.681-1.731l-2.49-5.722
				C317.727,271.508,316.952,271.203,316.285,271.493z"/>
			<path style="fill:#CACAED;" d="M327.227,266.731l-5.722,2.49c-0.666,0.29-0.971,1.065-0.681,1.731l2.49,5.722
				c0.29,0.666,1.065,0.971,1.731,0.681l5.723-2.49c0.666-0.29,0.971-1.065,0.681-1.731l-2.49-5.722
				C328.669,266.747,327.894,266.441,327.227,266.731z"/>
			<path style="fill:#CACAED;" d="M336.932,262.508l-5.722,2.49c-0.666,0.29-0.971,1.065-0.681,1.731l2.49,5.722
				c0.29,0.666,1.065,0.971,1.731,0.681l5.722-2.49c0.666-0.29,0.971-1.065,0.681-1.731l-2.49-5.722
				C338.374,262.523,337.598,262.218,336.932,262.508z"/>
			<path style="fill:#CACAED;" d="M346.637,258.285l-5.722,2.49c-0.666,0.29-0.971,1.065-0.681,1.731l2.49,5.722
				c0.29,0.666,1.065,0.971,1.731,0.681l5.722-2.49c0.666-0.29,0.971-1.065,0.681-1.731l-2.49-5.722
				C348.078,258.3,347.303,257.995,346.637,258.285z"/>
			<path style="fill:#CACAED;" d="M331.588,276.754l-5.722,2.49c-0.666,0.29-0.971,1.065-0.681,1.731l2.49,5.723
				c0.29,0.666,1.065,0.971,1.731,0.681l5.723-2.49c0.666-0.29,0.971-1.065,0.681-1.731l-2.49-5.722
				C333.03,276.769,332.255,276.464,331.588,276.754z"/>
			<path style="fill:#CACAED;" d="M341.293,272.53l-5.722,2.49c-0.666,0.29-0.971,1.065-0.681,1.731l2.49,5.723
				c0.29,0.666,1.065,0.971,1.731,0.681l5.722-2.49c0.666-0.29,0.971-1.065,0.681-1.731l-2.49-5.722
				C342.735,272.546,341.96,272.241,341.293,272.53z"/>
			<path style="fill:#CACAED;" d="M350.998,268.307l-5.722,2.49c-0.666,0.29-0.971,1.065-0.681,1.731l2.49,5.722
				c0.29,0.666,1.065,0.971,1.731,0.681l5.722-2.49c0.666-0.29,0.971-1.065,0.681-1.731l-2.49-5.723
				C352.44,268.323,351.664,268.017,350.998,268.307z"/>
			<path style="fill:#CACAED;" d="M335.949,286.776l-5.722,2.49c-0.666,0.29-0.971,1.065-0.681,1.731l2.49,5.723
				c0.29,0.666,1.065,0.971,1.731,0.681l5.723-2.49c0.666-0.29,0.971-1.065,0.681-1.731l-2.49-5.722
				C337.391,286.791,336.616,286.486,335.949,286.776z"/>
			<path style="fill:#CACAED;" d="M345.654,282.552l-5.722,2.49c-0.666,0.29-0.971,1.065-0.681,1.731l2.49,5.723
				c0.29,0.666,1.065,0.971,1.731,0.681l5.722-2.49c0.666-0.29,0.971-1.065,0.681-1.731l-2.49-5.722
				C347.096,282.568,346.321,282.263,345.654,282.552z"/>
			<path style="fill:#CACAED;" d="M355.359,278.329l-5.722,2.49c-0.666,0.29-0.971,1.065-0.681,1.731l2.49,5.723
				c0.29,0.666,1.065,0.971,1.731,0.681l5.722-2.49c0.666-0.29,0.971-1.065,0.681-1.731l-2.49-5.722
				C356.801,278.345,356.026,278.039,355.359,278.329z"/>
			<path style="fill:#CACAED;" d="M344.672,306.82l-5.723,2.49c-0.666,0.29-0.971,1.065-0.681,1.731l2.49,5.723
				c0.29,0.666,1.065,0.971,1.731,0.681l5.722-2.49c0.666-0.29,0.971-1.065,0.681-1.731l-2.49-5.722
				C346.113,306.835,345.338,306.53,344.672,306.82z"/>
			<path style="fill:#CACAED;" d="M354.377,302.597l-5.722,2.49c-0.666,0.29-0.971,1.065-0.681,1.731l2.49,5.723
				c0.29,0.666,1.065,0.971,1.731,0.681l5.722-2.49c0.666-0.29,0.971-1.065,0.681-1.731l-2.49-5.722
				C355.818,302.612,355.043,302.307,354.377,302.597z"/>
			<path style="fill:#CACAED;" d="M364.082,298.374l-5.722,2.49c-0.666,0.29-0.971,1.065-0.681,1.731l2.49,5.723
				c0.29,0.666,1.065,0.971,1.731,0.681l5.722-2.49c0.666-0.29,0.971-1.065,0.681-1.731l-2.49-5.722
				C365.523,298.389,364.748,298.084,364.082,298.374z"/>
			<path style="fill:#CACAED;" d="M235.835,302.37l5.725-2.491c0.666-0.29,0.97-1.064,0.681-1.729l-2.491-5.725
				c-0.29-0.665-1.064-0.97-1.729-0.681l-5.725,2.491c-0.665,0.289-0.97,1.064-0.681,1.729l2.491,5.725
				C234.396,302.355,235.17,302.66,235.835,302.37z"/>
			<path style="fill:#CACAED;" d="M245.826,298.023l5.725-2.491c0.665-0.29,0.97-1.064,0.681-1.729l-2.491-5.725
				c-0.29-0.665-1.064-0.97-1.729-0.681l-5.725,2.491c-0.665,0.289-0.97,1.064-0.681,1.729l2.491,5.725
				C244.386,298.008,245.16,298.312,245.826,298.023z"/>
			<path style="fill:#CACAED;" d="M255.816,293.676l5.725-2.491c0.665-0.29,0.97-1.064,0.681-1.729l-2.491-5.725
				c-0.29-0.665-1.064-0.97-1.729-0.681l-5.725,2.491c-0.665,0.29-0.97,1.064-0.681,1.729l2.491,5.725
				C254.376,293.66,255.15,293.965,255.816,293.676z"/>
			<path style="fill:#CACAED;" d="M265.806,289.328l5.725-2.491c0.665-0.29,0.97-1.064,0.681-1.729l-2.491-5.725
				c-0.29-0.665-1.064-0.97-1.729-0.681l-5.725,2.491c-0.665,0.29-0.97,1.064-0.681,1.729l2.491,5.725
				C264.367,289.313,265.141,289.618,265.806,289.328z"/>
			<path style="fill:#CACAED;" d="M279.936,283.18l5.725-2.491c0.665-0.29,0.97-1.064,0.681-1.729l-2.491-5.725
				c-0.29-0.665-1.064-0.97-1.729-0.681l-5.725,2.491c-0.665,0.29-0.97,1.064-0.681,1.729l2.491,5.725
				C278.496,283.165,279.27,283.47,279.936,283.18z"/>
			<path style="fill:#CACAED;" d="M289.641,278.957l5.725-2.491c0.665-0.29,0.97-1.064,0.681-1.729l-2.491-5.725
				c-0.29-0.665-1.064-0.97-1.729-0.681l-5.725,2.491c-0.665,0.29-0.97,1.064-0.681,1.729l2.491,5.725
				C288.201,278.942,288.975,279.246,289.641,278.957z"/>
			<path style="fill:#CACAED;" d="M299.345,274.734l5.725-2.491c0.665-0.29,0.97-1.064,0.681-1.729l-2.491-5.725
				c-0.29-0.665-1.064-0.97-1.729-0.681l-5.725,2.491c-0.665,0.29-0.97,1.064-0.681,1.729l2.491,5.725
				C297.906,274.719,298.68,275.023,299.345,274.734z"/>
			<path style="fill:#CACAED;" d="M311.236,259.884l-5.725,2.491c-0.665,0.29-0.97,1.064-0.681,1.729l2.491,5.725
				c0.289,0.666,1.064,0.97,1.729,0.681l5.725-2.491c0.665-0.29,0.97-1.064,0.681-1.729l-2.491-5.725
				C312.675,259.899,311.901,259.595,311.236,259.884z"/>
			<path style="fill:#CACAED;" d="M322.177,255.123l-5.725,2.491c-0.666,0.29-0.97,1.064-0.681,1.729l2.491,5.725
				c0.29,0.665,1.064,0.97,1.729,0.681l5.725-2.491c0.665-0.29,0.97-1.064,0.681-1.729l-2.491-5.725
				C323.617,255.138,322.843,254.833,322.177,255.123z"/>
			<path style="fill:#CACAED;" d="M331.882,250.9l-5.725,2.491c-0.665,0.289-0.97,1.064-0.681,1.729l2.491,5.725
				c0.29,0.665,1.064,0.97,1.729,0.681l5.725-2.491c0.665-0.289,0.97-1.064,0.681-1.729l-2.491-5.725
				C333.322,250.915,332.548,250.61,331.882,250.9z"/>
			<path style="fill:#CACAED;" d="M341.587,246.677l-5.725,2.491c-0.665,0.289-0.97,1.064-0.68,1.729l2.491,5.725
				c0.289,0.665,1.064,0.97,1.729,0.681l5.725-2.491c0.665-0.29,0.97-1.064,0.681-1.729l-2.491-5.725
				C343.027,246.692,342.253,246.387,341.587,246.677z"/>
			<path style="fill:#CACAED;" d="M204.32,353.729l5.723-2.49c0.666-0.29,0.971-1.065,0.681-1.731l-2.49-5.723
				c-0.29-0.666-1.065-0.971-1.731-0.681l-5.722,2.49c-0.666,0.29-0.971,1.065-0.681,1.731l2.49,5.723
				C202.879,353.714,203.654,354.019,204.32,353.729z"/>
			<path style="fill:#CACAED;" d="M186.956,361.285l13.382-5.823c0.666-0.29,0.971-1.065,0.681-1.731l-2.49-5.723
				c-0.29-0.666-1.065-0.971-1.731-0.681l-13.382,5.823c-0.666,0.29-0.971,1.065-0.681,1.731l2.49,5.722
				C185.515,361.27,186.29,361.575,186.956,361.285z"/>
			<path style="fill:#CACAED;" d="M220.461,345.271l-2.49-5.723c-0.29-0.666-1.065-0.971-1.731-0.681l-5.723,2.49
				c-0.666,0.29-0.971,1.065-0.681,1.731l2.49,5.722c0.29,0.666,1.065,0.971,1.731,0.681l5.722-2.49
				C220.446,346.713,220.751,345.938,220.461,345.271z"/>
			<path style="fill:#CACAED;" d="M223.794,345.256l5.722-2.49c0.666-0.29,0.971-1.065,0.681-1.731l-2.49-5.723
				c-0.29-0.666-1.065-0.971-1.731-0.681l-5.722,2.49c-0.666,0.29-0.971,1.065-0.681,1.731l2.49,5.723
				C222.352,345.241,223.127,345.546,223.794,345.256z"/>
			<path style="fill:#CACAED;" d="M239.934,336.797l-2.49-5.722c-0.29-0.666-1.065-0.971-1.731-0.681l-5.722,2.49
				c-0.666,0.29-0.971,1.065-0.681,1.731l2.49,5.723c0.29,0.666,1.065,0.971,1.731,0.681l5.723-2.49
				C239.919,338.239,240.224,337.464,239.934,336.797z"/>
			<path style="fill:#CACAED;" d="M249.671,332.56l-2.49-5.722c-0.29-0.666-1.065-0.971-1.731-0.681l-5.722,2.49
				c-0.666,0.29-0.971,1.065-0.681,1.731l2.49,5.723c0.29,0.666,1.065,0.971,1.731,0.681l5.722-2.49
				C249.656,334.002,249.961,333.227,249.671,332.56z"/>
			<path style="fill:#CACAED;" d="M259.407,328.324l-2.49-5.722c-0.29-0.666-1.065-0.971-1.731-0.681l-5.722,2.49
				c-0.666,0.29-0.971,1.065-0.681,1.731l2.49,5.722c0.29,0.666,1.065,0.971,1.731,0.681l5.722-2.49
				C259.392,329.765,259.697,328.99,259.407,328.324z"/>
			<path style="fill:#CACAED;" d="M269.144,324.087l-2.49-5.722c-0.29-0.666-1.065-0.971-1.731-0.681l-5.723,2.49
				c-0.666,0.29-0.971,1.065-0.681,1.731l2.49,5.723c0.29,0.666,1.065,0.971,1.731,0.681l5.723-2.49
				C269.129,325.528,269.434,324.753,269.144,324.087z"/>
			<path style="fill:#CACAED;" d="M278.881,319.85l-2.49-5.722c-0.29-0.666-1.065-0.971-1.731-0.681l-5.722,2.49
				c-0.666,0.29-0.971,1.065-0.681,1.731l2.49,5.723c0.29,0.666,1.065,0.971,1.731,0.681l5.722-2.49
				C278.865,321.291,279.171,320.516,278.881,319.85z"/>
			<path style="fill:#CACAED;" d="M288.617,315.613l-2.49-5.722c-0.29-0.666-1.065-0.971-1.731-0.681l-5.722,2.49
				c-0.666,0.29-0.971,1.065-0.681,1.731l2.49,5.723c0.29,0.666,1.065,0.971,1.731,0.681l5.722-2.49
				C288.602,317.054,288.907,316.279,288.617,315.613z"/>
			<path style="fill:#CACAED;" d="M291.95,315.597l5.722-2.49c0.666-0.29,0.971-1.065,0.681-1.731l-2.49-5.722
				c-0.29-0.666-1.065-0.971-1.731-0.681l-5.723,2.49c-0.666,0.29-0.971,1.065-0.681,1.731l2.49,5.722
				C290.509,315.582,291.284,315.887,291.95,315.597z"/>
			<path style="fill:#CACAED;" d="M308.091,307.139l-2.49-5.722c-0.29-0.666-1.065-0.971-1.731-0.681l-5.723,2.49
				c-0.666,0.29-0.971,1.065-0.681,1.731l2.49,5.723c0.29,0.666,1.065,0.971,1.731,0.681l5.723-2.49
				C308.076,308.58,308.381,307.805,308.091,307.139z"/>
			<path style="fill:#CACAED;" d="M212.765,361.975l5.722-2.49c0.666-0.29,0.971-1.065,0.681-1.731l-2.49-5.722
				c-0.29-0.666-1.065-0.971-1.731-0.681l-5.722,2.49c-0.666,0.29-0.971,1.065-0.681,1.731l2.49,5.722
				C211.323,361.96,212.098,362.265,212.765,361.975z"/>
			<path style="fill:#CACAED;" d="M191.317,371.308l17.449-7.593c0.666-0.29,0.971-1.065,0.681-1.731l-2.49-5.723
				c-0.29-0.666-1.065-0.971-1.731-0.681l-17.449,7.593c-0.666,0.29-0.971,1.065-0.681,1.731l2.49,5.723
				C189.876,371.293,190.651,371.598,191.317,371.308z"/>
			<path style="fill:#CACAED;" d="M228.889,353.523l-2.49-5.723c-0.29-0.666-1.065-0.971-1.731-0.681l-5.723,2.49
				c-0.666,0.29-0.971,1.065-0.681,1.731l2.49,5.722c0.29,0.666,1.065,0.971,1.731,0.681l5.722-2.49
				C228.874,354.965,229.179,354.19,228.889,353.523z"/>
			<path style="fill:#CACAED;" d="M226.563,358.215l-8.537,3.715c-0.666,0.29-0.971,1.065-0.681,1.731l2.49,5.722
				c0.29,0.666,1.065,0.971,1.731,0.681l8.537-3.715c0.666-0.29,0.971-1.065,0.681-1.731l-2.49-5.723
				C228.005,358.23,227.229,357.925,226.563,358.215z"/>
			<path style="fill:#CACAED;" d="M284.396,333.049l-53.851,23.433c-0.666,0.29-0.971,1.065-0.681,1.731l2.49,5.723
				c0.29,0.666,1.065,0.971,1.731,0.681l53.851-23.433c0.666-0.29,0.971-1.065,0.681-1.731l-2.49-5.723
				C285.838,333.064,285.063,332.759,284.396,333.049z"/>
			<path style="fill:#CACAED;" d="M232.206,353.515l5.722-2.49c0.666-0.29,0.971-1.065,0.681-1.731l-2.49-5.723
				c-0.29-0.666-1.065-0.971-1.731-0.681l-5.722,2.49c-0.666,0.29-0.971,1.065-0.681,1.731l2.49,5.722
				C230.765,353.5,231.54,353.805,232.206,353.515z"/>
			<path style="fill:#CACAED;" d="M241.927,349.285l5.722-2.49c0.666-0.29,0.971-1.065,0.681-1.731l-2.49-5.722
				c-0.29-0.666-1.065-0.971-1.731-0.681l-5.722,2.49c-0.666,0.29-0.971,1.065-0.681,1.731l2.49,5.722
				C240.486,349.27,241.261,349.575,241.927,349.285z"/>
			<path style="fill:#CACAED;" d="M251.648,345.055l5.722-2.49c0.666-0.29,0.971-1.065,0.681-1.731l-2.49-5.723
				c-0.29-0.666-1.065-0.971-1.731-0.681l-5.722,2.49c-0.666,0.29-0.971,1.065-0.681,1.731l2.49,5.722
				C250.207,345.04,250.982,345.345,251.648,345.055z"/>
			<path style="fill:#CACAED;" d="M261.369,340.825l5.723-2.49c0.666-0.29,0.971-1.065,0.681-1.731l-2.49-5.723
				c-0.29-0.666-1.065-0.971-1.731-0.681l-5.722,2.49c-0.666,0.29-0.971,1.065-0.681,1.731l2.49,5.722
				C259.927,340.81,260.702,341.115,261.369,340.825z"/>
			<path style="fill:#CACAED;" d="M271.09,336.595l5.723-2.49c0.666-0.29,0.971-1.065,0.681-1.731l-2.49-5.723
				c-0.29-0.666-1.065-0.971-1.731-0.681l-5.723,2.49c-0.666,0.29-0.971,1.065-0.681,1.731l2.49,5.722
				C269.648,336.58,270.423,336.885,271.09,336.595z"/>
			<path style="fill:#CACAED;" d="M280.81,332.365l5.722-2.49c0.666-0.29,0.971-1.065,0.681-1.731l-2.49-5.723
				c-0.29-0.666-1.065-0.971-1.731-0.681l-5.722,2.49c-0.666,0.29-0.971,1.065-0.681,1.731l2.49,5.723
				C279.369,332.349,280.144,332.655,280.81,332.365z"/>
			<path style="fill:#CACAED;" d="M292.714,317.509l-5.722,2.49c-0.666,0.29-0.971,1.065-0.681,1.731l2.49,5.723
				c0.29,0.666,1.065,0.971,1.731,0.681l5.722-2.49c0.666-0.29,0.971-1.065,0.681-1.731l-2.49-5.723
				C294.155,317.525,293.38,317.22,292.714,317.509z"/>
			<path style="fill:#CACAED;" d="M296.48,327.79l-8.077,3.515c-0.666,0.29-0.971,1.065-0.681,1.731l2.49,5.722
				c0.29,0.666,1.065,0.971,1.731,0.681l8.077-3.515c0.666-0.29,0.971-1.065,0.681-1.731l-2.49-5.723
				C297.921,327.806,297.146,327.5,296.48,327.79z"/>
			<path style="fill:#CACAED;" d="M308.54,322.543l-8.077,3.515c-0.666,0.29-0.971,1.065-0.681,1.731l2.49,5.723
				c0.29,0.666,1.065,0.971,1.731,0.681l8.077-3.515c0.666-0.29,0.971-1.065,0.681-1.731l-2.49-5.723
				C309.981,322.558,309.206,322.253,308.54,322.543z"/>
			<path style="fill:#CACAED;" d="M214.044,363.663l-8.077,3.515c-0.666,0.29-0.971,1.065-0.681,1.731l2.49,5.722
				c0.29,0.666,1.065,0.971,1.731,0.681l8.077-3.515c0.666-0.29,0.971-1.065,0.681-1.731l-2.49-5.722
				C215.485,363.678,214.71,363.373,214.044,363.663z"/>
			<path style="fill:#CACAED;" d="M201.984,368.91l-9.846,4.284c-0.666,0.29-0.971,1.065-0.681,1.731l2.49,5.723
				c0.29,0.666,1.065,0.971,1.731,0.681l9.846-4.284c0.666-0.29,0.971-1.065,0.681-1.731l-2.49-5.723
				C203.425,368.926,202.65,368.621,201.984,368.91z"/>
			<path style="fill:#CACAED;" d="M320.584,317.302l-8.077,3.515c-0.666,0.29-0.971,1.065-0.681,1.731l2.49,5.723
				c0.29,0.666,1.065,0.971,1.731,0.681l8.077-3.515c0.666-0.29,0.971-1.065,0.681-1.731l-2.49-5.723
				C322.025,317.317,321.25,317.012,320.584,317.302z"/>
			<path style="fill:#CACAED;" d="M333.73,311.581l-9.164,3.988c-0.666,0.29-0.971,1.065-0.681,1.731l2.49,5.722
				c0.29,0.666,1.065,0.971,1.731,0.681l9.164-3.988c0.666-0.29,0.971-1.065,0.681-1.731l-2.49-5.722
				C335.171,311.596,334.396,311.291,333.73,311.581z"/>
			<path style="fill:#CACAED;" d="M300.252,323.905l5.722-2.49c0.666-0.29,0.971-1.065,0.681-1.731l-2.49-5.723
				c-0.29-0.666-1.065-0.971-1.731-0.681l-5.722,2.49c-0.666,0.29-0.971,1.065-0.681,1.731l2.49,5.722
				C298.811,323.889,299.586,324.195,300.252,323.905z"/>
			<path style="fill:#CACAED;" d="M350.016,292.575l-5.722,2.49c-0.666,0.29-0.971,1.065-0.681,1.731l2.49,5.723
				c0.29,0.666,1.065,0.971,1.731,0.681l5.722-2.49c0.666-0.29,0.971-1.065,0.681-1.731l-2.49-5.722
				C351.457,292.59,350.682,292.285,350.016,292.575z"/>
			<path style="fill:#CACAED;" d="M329.369,301.559l-22.793,9.919c-0.666,0.29-0.971,1.065-0.681,1.731l2.49,5.722
				c0.29,0.666,1.065,0.971,1.731,0.681l22.793-9.919c0.666-0.29,0.971-1.065,0.681-1.731l-2.49-5.723
				C330.81,301.574,330.035,301.269,329.369,301.559z"/>
			<path style="fill:#CACAED;" d="M320.679,281.501l-10.255,4.462c-0.648,0.282-0.945,1.036-0.663,1.685l3.095,7.112l0.231,0.53
				c0.29,0.666-0.015,1.441-0.681,1.731l-0.642,0.279l-3.753,1.633c-0.666,0.29-0.971,1.065-0.681,1.731l2.49,5.723
				c0.29,0.666,1.065,0.971,1.731,0.681l16.997-7.396c0.666-0.29,0.971-1.065,0.681-1.731l-6.865-15.777
				C322.082,281.516,321.327,281.219,320.679,281.501z"/>
		</g>
		<g>
			<path style="fill:#CACAED;" d="M207.408,286.448l-0.079-0.181c-0.177-0.406-0.391-0.783-0.629-1.14l-32.71,14.234
				c0.099,0.417,0.229,0.831,0.406,1.237l0.079,0.181c0.193,0.443,0.427,0.855,0.692,1.24l32.677-14.219
				C207.743,287.343,207.601,286.891,207.408,286.448z"/>
			<path style="fill:#CACAED;" d="M290.219,250.76l0.08,0.183c0.121,0.278,0.261,0.541,0.411,0.797l33.156-14.428
				c-0.085-0.284-0.182-0.566-0.303-0.844l-0.08-0.183c-0.25-0.574-0.57-1.094-0.937-1.569l-32.838,14.29
				C289.807,249.597,289.969,250.187,290.219,250.76z"/>
		</g>
		<path style="fill:#E1E0FE;" d="M328.479,377.692l-53.701,23.368c-4.525,1.969-9.789-0.103-11.759-4.628l-8.929-20.519
			c-1.969-4.525,0.103-9.789,4.628-11.759l53.701-23.368c4.525-1.969,9.789,0.103,11.758,4.628l8.929,20.519
			C335.076,370.458,333.004,375.723,328.479,377.692z"/>
		<g>
			<polygon style="opacity:0.5;fill:#627AF4;" points="205.383,172.302 207.768,275.244 163.576,294.474 161.19,191.532 			"/>
			<polygon style="opacity:0.5;fill:#627AF4;" points="232.011,160.714 234.397,263.657 220.76,269.591 218.38,166.646 			"/>
			<polygon style="opacity:0.5;fill:#627AF4;" points="298.979,131.573 301.358,234.518 257.166,253.749 254.786,150.804 			"/>
			<polygon style="opacity:0.5;fill:#627AF4;" points="312.182,135.06 327.092,184.361 327.987,222.931 314.356,228.863 			"/>
		</g>
	</g>
	<path style="opacity:0.1;fill:#444444;" d="M409.413,146.726l-34.033-10.761c-3.866-1.222-7.992,0.918-9.216,4.788l-28.021,88.62
		c-1.224,3.871,0.92,8.001,4.786,9.223l34.033,10.761c3.871,1.224,8-0.923,9.224-4.794l28.021-88.62
		C415.431,152.074,413.284,147.95,409.413,146.726z"/>
	<path style="opacity:0.1;fill:#444444;" d="M236.107,436.33c-0.252-0.127-0.51-0.224-0.771-0.306l1.171-2.331
		c1.062-2.115,0.209-4.69-1.905-5.752l-40.296-20.244l0.162-0.323l-1.546-0.777l-1.271,2.529l-10.466-5.258
		c-0.686-0.345-1.52-0.068-1.864,0.616l-7.25,14.431c-0.344,0.685-0.068,1.519,0.618,1.863c0,0,4.873,2.448,10.466,5.258
		l-1.229,2.447l1.546,0.777l0.162-0.323l40.296,20.244c2.115,1.062,4.69,0.21,5.753-1.906l1.17-2.329
		c0.221,0.16,0.454,0.31,0.706,0.436c2.499,1.255,5.545,0.248,6.8-2.252C239.616,440.631,238.606,437.586,236.107,436.33z
		 M236.618,442.256c-0.772,1.537-2.645,2.158-4.183,1.386c-0.256-0.129-0.484-0.289-0.687-0.473l2.696-5.367
		c0.268,0.054,0.533,0.141,0.789,0.269C236.77,438.844,237.391,440.717,236.618,442.256z"/>
	<path style="opacity:0.1;fill:#444444;" d="M402.156,277.092H394c-3.338,0-6.369,1.284-8.653,3.371
		c-3.236,2.333-5.35,6.124-5.35,10.418v31.276c0,7.096,5.751,12.847,12.846,12.847H401c3.338,0,6.368-1.284,8.652-3.37
		c3.236-2.333,5.35-6.125,5.35-10.419v-31.276C415.002,282.843,409.252,277.092,402.156,277.092z"/>
	<g>
		<path style="fill:#B4B4DB;" d="M213.304,130.984L213.304,130.984c1.74,1.324,4.224,0.987,5.548-0.753l12.671-16.651l-6.3-4.795
			l-12.671,16.651C211.227,127.176,211.565,129.66,213.304,130.984z"/>
		<g>
			
				<rect x="218.02" y="103.597" transform="matrix(0.6056 -0.7958 0.7958 0.6056 2.9018 225.3842)" style="fill:#CACAED;" width="21.611" height="12.335"/>
			<path style="fill:#FFFFFF;" d="M272.844,99.813c-9.701,12.747-27.895,15.211-40.643,5.51
				c-12.741-9.696-15.215-27.89-5.515-40.637c4.225-5.551,10.071-9.154,16.373-10.651c8.156-1.929,17.08-0.331,24.263,5.136
				c7.19,5.471,11.109,13.646,11.423,22.021C278.983,87.667,277.068,94.262,272.844,99.813z"/>
			<path style="fill:#4C59E0;" d="M265.148,93.96c-6.466,8.497-18.596,10.142-27.093,3.676c-8.494-6.464-10.141-18.594-3.675-27.09
				c6.466-8.497,18.596-10.142,27.09-3.678C269.967,73.333,271.614,85.463,265.148,93.96z"/>
			<path style="fill:#474E5D;" d="M261.366,91.081c-4.876,6.407-14.025,7.647-20.432,2.771c-6.406-4.875-7.648-14.022-2.772-20.43
				c4.876-6.407,14.023-7.648,20.429-2.773C264.999,75.526,266.242,84.674,261.366,91.081z"/>
			<path style="fill:#CACAED;" d="M258.292,88.742c-3.585,4.711-10.309,5.624-15.02,2.038c-4.71-3.584-5.622-10.308-2.037-15.019
				c3.585-4.71,10.309-5.623,15.018-2.039C260.964,77.308,261.877,84.032,258.292,88.742z"/>
			<path style="fill:#F0F0FC;" d="M255.816,86.858c-2.544,3.343-7.316,3.992-10.66,1.447c-3.342-2.543-3.989-7.316-1.445-10.66
				s7.317-3.991,10.659-1.448C257.714,78.742,258.36,83.515,255.816,86.858z"/>
			<path style="fill:#474E5D;" d="M252.519,84.349c-1.158,1.522-3.33,1.817-4.853,0.658c-1.521-1.157-1.815-3.329-0.657-4.851
				c1.158-1.521,3.33-1.817,4.851-0.66C253.383,80.655,253.677,82.827,252.519,84.349z"/>
			<path style="fill:#8683E4;" d="M247.667,85.006c-1.521-1.157-1.814-3.328-0.656-4.849c1.157-1.521,3.328-1.816,4.848-0.659
				c1.521,1.157,1.817,3.33,0.659,4.851C251.36,85.869,249.187,86.163,247.667,85.006z"/>
			<path style="fill:#FFD23C;" d="M278.746,81.193c-3.428,0.364-6.421-10.709-15.04-17.268c-8.613-6.555-20.083-6.488-20.646-9.889
				c8.156-1.929,17.08-0.331,24.263,5.136C274.513,64.643,278.432,72.818,278.746,81.193z"/>
			<path style="opacity:0.2;fill:#FFFFFF;" d="M249.542,81.713c-0.352,0.463-1.013,0.551-1.475,0.2
				c-0.462-0.352-0.553-1.012-0.201-1.475s1.013-0.551,1.475-0.2C249.804,80.589,249.894,81.25,249.542,81.713z"/>
		</g>
		<path style="fill:#CACAED;" d="M196.697,123.992L196.697,123.992c-0.832-2.257,0.324-4.762,2.581-5.593l21.604-7.961l3.012,8.175
			l-21.604,7.961C200.033,127.405,197.529,126.25,196.697,123.992z"/>
		<path style="fill:#CACAED;" d="M223.966,144.745L223.966,144.745c2.397,0.2,4.503-1.581,4.703-3.979l1.915-22.945l-8.682-0.725
			l-1.915,22.945C219.788,142.439,221.569,144.545,223.966,144.745z"/>
	</g>
	<g style="opacity:0.1;">
		<path style="fill:#444444;" d="M318.508,117.636c-1.908,1.052-2.602,3.452-1.55,5.361l1.397,2.533
			c1.052,1.908,3.452,2.602,5.361,1.55l2.813-1.551l-5.208-9.444L318.508,117.636z"/>
		<path style="fill:#444444;" d="M404.363,77.969l-1.285-2.33c-1.083-1.965-3.554-2.679-5.519-1.596l-2.711,1.495l4.919,8.92
			l-9.197-16.677l-0.984,0.542c-5.969-8.908-15.31-15.326-25.449-18.003c-0.143-1.918-1.683-3.474-3.652-3.559
			c-8.438-0.369-16.995,1.518-24.749,5.457c-7.753,3.938-14.324,9.736-19.004,16.768c-1.115,1.676-0.729,3.896,0.817,5.127
			c-4.004,10.547-3.853,22.897,0.838,33.471l-1.344,0.741l13.763,24.959l5.621-3.1l1.303,2.362c1.027,1.863,3.369,2.539,5.232,1.512
			l8.094-4.464c1.863-1.027,2.541-3.369,1.514-5.232l-13.373-24.251l0.18-0.099l-0.18,0.099l-2.995-5.43
			c-1.027-1.863-3.37-2.541-5.233-1.513l-8.095,4.464c-1.863,1.027-2.54,3.371-1.513,5.233l2.994,5.43l0,0l-1.693-3.07l-0.902,0.497
			c-4.258-9.834-4.24-21.381-0.296-31.079c0.659-0.285,1.248-0.752,1.675-1.394c3.947-5.93,9.508-10.829,16.081-14.169
			c6.574-3.34,13.811-4.94,20.927-4.631c0.685,0.03,1.337-0.122,1.907-0.411c0.122-0.062,0.238-0.134,0.352-0.208
			c9.438,2.294,18.213,8.171,23.802,16.352l-1.262,0.696l-1.302-2.361c-1.027-1.863-3.37-2.54-5.233-1.513l-8.095,4.464
			c-1.863,1.027-2.54,3.371-1.513,5.233l16.367,29.682c1.027,1.863,3.369,2.539,5.232,1.512l8.096-4.464
			c1.863-1.027,2.541-3.369,1.514-5.231l-8.441-15.308l7.139,12.945l5.621-3.1l-4.277-7.757l2.711-1.495
			C404.732,82.405,405.446,79.934,404.363,77.969z M324.358,108.297l4.932,8.943L324.358,108.297L324.358,108.297z"/>
	</g>
	<path style="opacity:0.1;fill:#444444;" d="M125.58,273.707l-56.87-35.881c-1.557-0.982-3.614-0.516-4.596,1.04l-25.003,39.629
		c-0.982,1.556-0.517,3.613,1.04,4.596l56.87,35.881c1.556,0.982,3.614,0.516,4.595-1.04l13.95-22.111l0,0l4.076-6.461l0,0
		l6.976-11.057C127.602,276.746,127.136,274.688,125.58,273.707z"/>
	<g>
		<path style="fill:#B7B7CE;" d="M381.096,320.971c0,7.096,5.751,12.847,12.846,12.847h8.156c7.096,0,12.846-5.751,12.846-12.847
			v-31.276c0-7.095-5.751-12.846-12.846-12.846h-8.156c-7.096,0-12.846,5.752-12.846,12.846V320.971z"/>
		<g>
			<path style="fill:#E1E1EF;" d="M382.252,320.029c0,7.096,5.751,12.847,12.846,12.847h8.156c7.096,0,12.846-5.751,12.846-12.847
				v-31.276c0-7.095-5.751-12.846-12.846-12.846h-8.156c-7.096,0-12.846,5.752-12.846,12.846V320.029z"/>
			<path style="fill:#4C59E0;" d="M395.439,289.692c0,2.064,1.674,3.737,3.738,3.737c2.064,0,3.738-1.673,3.738-3.737
				c0-2.065-1.674-3.738-3.738-3.738C397.112,285.954,395.439,287.627,395.439,289.692z"/>
		</g>
	</g>
	<g>
		<g>
			<path style="fill:#CECDE8;" d="M194.554,408.377c-0.104,0.012-0.166,0.019-0.166,0.019l-12.926-6.494
				c-0.686-0.344-1.52-0.068-1.864,0.616l-7.25,14.431c-0.344,0.685-0.068,1.518,0.618,1.863c0,0,6.466,3.248,13.051,6.557
				L194.554,408.377z"/>
			
				<rect x="181.28" y="409.722" transform="matrix(0.4489 -0.8936 0.8936 0.4489 -272.4969 392.351)" style="fill:#4C59E0;" width="1.132" height="14.754"/>
			
				<rect x="180.331" y="411.611" transform="matrix(0.4489 -0.8936 0.8936 0.4489 -274.7069 392.544)" style="fill:#4C59E0;" width="1.132" height="14.754"/>
			
				<rect x="182.217" y="407.857" transform="matrix(0.4489 -0.8936 0.8936 0.4489 -270.3141 392.1631)" style="fill:#4C59E0;" width="1.131" height="14.754"/>
			
				<rect x="183.153" y="405.993" transform="matrix(0.4489 -0.8936 0.8936 0.4489 -268.1315 391.9741)" style="fill:#4C59E0;" width="1.133" height="14.754"/>
			
				<rect x="184.091" y="404.127" transform="matrix(0.4489 -0.8936 0.8936 0.4489 -265.9482 391.782)" style="fill:#4C59E0;" width="1.132" height="14.754"/>
			
				<rect x="185.027" y="402.262" transform="matrix(0.4489 -0.8936 0.8936 0.4489 -263.7656 391.5928)" style="fill:#4C59E0;" width="1.132" height="14.754"/>
			
				<rect x="185.964" y="400.398" transform="matrix(0.4489 -0.8936 0.8936 0.4489 -261.5832 391.4002)" style="fill:#4C59E0;" width="1.132" height="14.754"/>
		</g>
		<path style="fill:#FFD23C;" d="M236.384,434.363c-0.252-0.127-0.51-0.224-0.771-0.306l1.171-2.33
			c1.062-2.115,0.209-4.69-1.905-5.752l-41.139-20.667l-10.671,21.24l41.139,20.667c2.115,1.062,4.69,0.21,5.753-1.906l1.17-2.329
			c0.221,0.161,0.454,0.31,0.706,0.436c2.499,1.255,5.545,0.247,6.8-2.252C239.892,438.663,238.882,435.618,236.384,434.363z
			 M232.711,441.674c-0.256-0.129-0.484-0.289-0.687-0.473l2.696-5.366c0.268,0.054,0.533,0.141,0.789,0.269
			c1.538,0.772,2.158,2.646,1.385,4.184C236.122,441.826,234.249,442.447,232.711,441.674z"/>
		
			<rect x="176.227" y="415.098" transform="matrix(0.4489 -0.8936 0.8936 0.4489 -267.8284 397.6296)" style="fill:#CECDE8;" width="24.493" height="1.73"/>
	</g>
	<g>
		<g>
			<path style="fill:#FFFFFF;" d="M125.738,274.259l-25.003,39.629c-0.982,1.556-3.04,2.022-4.595,1.04l-56.87-35.881
				c-1.557-0.982-2.022-3.04-1.04-4.596l25.004-39.629c0.982-1.557,3.039-2.022,4.596-1.04l56.87,35.881
				C126.254,270.645,126.72,272.702,125.738,274.259z"/>
			<path style="fill:#4C59E0;" d="M41.715,275.314c0.502,0.317,0.653,0.982,0.336,1.485c-0.317,0.502-0.982,0.653-1.484,0.336
				c-0.503-0.318-0.653-0.982-0.336-1.485C40.548,275.147,41.212,274.996,41.715,275.314z"/>
			<path style="fill:#4C59E0;" d="M66.688,235.732c0.502,0.317,0.653,0.982,0.336,1.484c-0.318,0.504-0.982,0.653-1.485,0.336
				c-0.503-0.318-0.654-0.982-0.336-1.485C65.521,235.565,66.185,235.415,66.688,235.732z"/>
			<path style="fill:#4C59E0;" d="M98.132,310.909c0.502,0.317,0.653,0.981,0.335,1.484c-0.317,0.502-0.982,0.653-1.484,0.336
				c-0.503-0.318-0.653-0.982-0.336-1.484C96.965,310.742,97.629,310.592,98.132,310.909z"/>
			<path style="fill:#4C59E0;" d="M123.106,271.328c0.502,0.317,0.652,0.982,0.336,1.484c-0.318,0.503-0.982,0.653-1.484,0.336
				c-0.503-0.318-0.654-0.981-0.336-1.485C121.938,271.161,122.602,271.011,123.106,271.328z"/>
			
				<rect x="111.432" y="285.877" transform="matrix(0.5336 -0.8457 0.8457 0.5336 -189.4965 231.6197)" style="fill:#CACAED;" width="7.639" height="3.481"/>
			<path style="fill:#8683E4;" d="M115.069,284.645l2.059,1.299l0.346-0.549l-2.059-1.299L115.069,284.645z M116.396,287.103
				l0.346-0.548l-2.059-1.299l-0.346,0.548L116.396,287.103z M115.665,288.263l0.347-0.549l-2.059-1.299l-0.347,0.549
				L115.665,288.263z M114.933,289.423l0.347-0.55l-2.059-1.299l-0.347,0.55L114.933,289.423z M114.202,290.582l0.347-0.549
				l-2.059-1.299l-0.347,0.549L114.202,290.582z"/>
		</g>
		<g>
			<path style="fill:#4C59E0;" d="M88.022,250.382c10.975,6.924,14.259,21.435,7.335,32.41
				c-6.925,10.976-21.436,14.259-32.411,7.334c-10.975-6.924-14.259-21.435-7.334-32.411
				C62.536,246.741,77.047,243.457,88.022,250.382z"/>
			<path style="fill:#E1E1EF;" d="M82.764,266.607c2.014,4.021,0.387,8.914-3.633,10.927c-4.021,2.014-8.913,0.387-10.927-3.634
				c-2.013-4.021-0.386-8.912,3.634-10.926C75.859,260.96,80.75,262.587,82.764,266.607z"/>
			<path style="fill:#8683E4;" d="M82.082,266.949c1.826,3.644,0.351,8.078-3.294,9.903c-3.644,1.825-8.078,0.35-9.904-3.294
				c-1.825-3.644-0.35-8.079,3.294-9.904C75.824,261.83,80.257,263.305,82.082,266.949z"/>
			<path style="fill:#E1E1EF;" d="M78.967,268.509c0.963,1.924,0.185,4.264-1.739,5.227c-1.923,0.964-4.264,0.185-5.227-1.738
				c-0.964-1.923-0.185-4.264,1.739-5.227C75.663,265.808,78.003,266.586,78.967,268.509z"/>
			<g>
				<path style="fill:#E1E1EF;" d="M71.007,272.497c0.187,0.373,0.036,0.829-0.338,1.016c-0.374,0.187-0.829,0.036-1.016-0.338
					c-0.187-0.374-0.036-0.829,0.338-1.017C70.365,271.971,70.819,272.122,71.007,272.497z"/>
				<path style="fill:#E1E1EF;" d="M81.315,267.334c0.188,0.374,0.037,0.828-0.337,1.017c-0.374,0.187-0.829,0.036-1.017-0.339
					c-0.187-0.373-0.036-0.828,0.338-1.016C80.673,266.809,81.128,266.96,81.315,267.334z"/>
			</g>
			<g>
				<path style="fill:#E1E1EF;" d="M77.727,274.731c0.374-0.188,0.829-0.036,1.016,0.338c0.187,0.375,0.036,0.829-0.338,1.016
					c-0.374,0.188-0.829,0.036-1.017-0.338C77.201,275.374,77.352,274.918,77.727,274.731z"/>
				<path style="fill:#E1E1EF;" d="M72.564,264.423c0.374-0.188,0.829-0.036,1.016,0.338c0.187,0.374,0.036,0.829-0.338,1.016
					c-0.374,0.188-0.829,0.036-1.016-0.338C72.038,265.065,72.189,264.61,72.564,264.423z"/>
			</g>
		</g>
	</g>
	<g>
		<g>
			<rect x="380.352" y="63.259" style="fill:#E1E0FE;" width="0" height="18.356"/>
			<path style="fill:#E1E0FE;" d="M336.732,48.118l-2.345,1.293c-19.061,10.511-24.625,37.095-14.114,56.157l19.44-10.72l0,0
				l-16.073,8.863c-9.488-17.205-4.601-41.446,12.604-50.933l2.345-1.293c17.205-9.487,40.313-0.684,49.801,16.521l3.367-1.857
				C381.244,47.088,355.793,37.607,336.732,48.118z"/>
		</g>
		<g>
			<g>
				
					<rect x="323.86" y="99.839" transform="matrix(0.8757 -0.4829 0.4829 0.8757 -14.432 172.1204)" style="fill:#DBDBE6;" width="6.419" height="28.502"/>
				<path style="fill:#5468DA;" d="M324.05,121.913l2.813-1.551l-5.208-9.444l-2.813,1.551c-1.908,1.052-2.602,3.452-1.55,5.361
					l1.397,2.533C319.741,122.272,322.142,122.966,324.05,121.913z"/>
				<path style="fill:#4C59E0;" d="M352.905,119.198c1.027,1.863,0.349,4.204-1.514,5.231l-8.094,4.464
					c-1.863,1.027-4.205,0.351-5.232-1.512L321.697,97.7c-1.027-1.863-0.35-4.206,1.513-5.233l8.094-4.464
					c1.863-1.027,4.206-0.349,5.233,1.513L352.905,119.198z"/>
			</g>
			<g>
				
					<rect x="391.766" y="62.393" transform="matrix(0.8757 -0.4829 0.4829 0.8757 12.0917 200.2562)" style="fill:#DBDBE6;" width="6.419" height="28.502"/>
				<path style="fill:#5468DA;" d="M403.101,78.322l-2.711,1.495l-5.208-9.444l2.711-1.495c1.965-1.083,4.436-0.369,5.519,1.596
					l1.285,2.33C405.78,74.767,405.066,77.238,403.101,78.322z"/>
				<path style="fill:#4C59E0;" d="M385.507,101.22c1.027,1.863,3.369,2.539,5.232,1.512l8.095-4.464
					c1.863-1.027,2.541-3.369,1.514-5.231l-16.367-29.682c-1.027-1.862-3.371-2.54-5.233-1.513l-8.095,4.464
					c-1.863,1.027-2.54,3.371-1.513,5.233L385.507,101.22z"/>
			</g>
		</g>
		<g>
			<g>
				<path style="fill:#9696CC;" d="M362.392,48.875c-0.57,0.29-1.222,0.442-1.907,0.411c-7.117-0.31-14.353,1.291-20.927,4.631
					c-6.573,3.339-12.134,8.239-16.081,14.169c-1.177,1.769-3.567,2.25-5.337,1.071c-1.77-1.177-2.25-3.567-1.072-5.337
					c4.679-7.032,11.25-12.83,19.004-16.768c7.754-3.939,16.311-5.826,24.749-5.457c2.124,0.092,3.772,1.889,3.678,4.013
					C364.435,47.047,363.59,48.266,362.392,48.875z"/>
			</g>
		</g>
	</g>
	<g>
		<g>
			<g>
				<path style="fill:#E1E1EF;" d="M385.273,240.516c-1.224,3.871-5.353,6.017-9.224,4.794l-34.033-10.761
					c-3.866-1.222-6.01-5.353-4.786-9.223l28.021-88.62c1.223-3.87,5.35-6.01,9.216-4.788l34.033,10.761
					c3.871,1.224,6.017,5.348,4.794,9.217L385.273,240.516z"/>
				
					<rect x="336.938" y="164.964" transform="matrix(0.3015 -0.9535 0.9535 0.3015 83.8219 489.0336)" style="fill:#FFFFFF;" width="77.468" height="44.69"/>
			</g>
			<path style="fill:#FFD23C;" d="M384.105,215.269c-0.207,0.654-0.905,1.015-1.558,0.809l-30.164-9.537
				c-0.655-0.207-1.016-0.904-0.81-1.558l0,0c0.207-0.654,0.903-1.015,1.558-0.809l30.164,9.538
				C383.948,213.918,384.312,214.615,384.105,215.269L384.105,215.269z"/>
			<path style="fill:#FFD23C;" d="M382.703,219.705c-0.207,0.654-0.905,1.015-1.558,0.809l-30.164-9.537
				c-0.655-0.207-1.016-0.904-0.81-1.558l0,0c0.207-0.654,0.903-1.016,1.558-0.809l30.164,9.537
				C382.546,218.354,382.909,219.051,382.703,219.705L382.703,219.705z"/>
			<path style="fill:#FFD23C;" d="M385.58,210.607c-0.207,0.654-0.905,1.015-1.558,0.809l-30.164-9.537
				c-0.655-0.207-1.017-0.904-0.81-1.557l0,0c0.207-0.654,0.903-1.016,1.558-0.809l30.164,9.538
				C385.422,209.256,385.786,209.953,385.58,210.607L385.58,210.607z"/>
			<path style="fill:#72D0FF;" d="M393.783,184.662c-0.207,0.653-0.905,1.015-1.558,0.809l-30.164-9.537
				c-0.655-0.207-1.016-0.904-0.81-1.558l0,0c0.207-0.654,0.903-1.016,1.558-0.809l30.164,9.538
				C393.626,183.311,393.99,184.008,393.783,184.662L393.783,184.662z"/>
			<path style="fill:#72D0FF;" d="M392.38,189.097c-0.207,0.654-0.905,1.015-1.558,0.809l-30.164-9.537
				c-0.655-0.207-1.016-0.904-0.81-1.558l0,0c0.207-0.654,0.903-1.015,1.558-0.808l30.164,9.537
				C392.223,187.747,392.587,188.444,392.38,189.097L392.38,189.097z"/>
			<path style="fill:#72D0FF;" d="M395.257,179.999c-0.207,0.654-0.905,1.015-1.558,0.808l-30.164-9.537
				c-0.655-0.207-1.017-0.904-0.81-1.557l0,0c0.207-0.654,0.903-1.016,1.558-0.809l30.164,9.538
				C395.1,178.648,395.464,179.346,395.257,179.999L395.257,179.999z"/>
			<path style="fill:#4C59E0;" d="M383.133,204.827l-24.733-7.82c-1.513-0.478-2.352-2.093-1.873-3.606l2.27-7.181
				c0.478-1.513,2.093-2.352,3.606-1.873l24.733,7.82c1.513,0.478,2.352,2.093,1.873,3.606l-2.27,7.181
				C386.261,204.467,384.646,205.305,383.133,204.827z"/>
			<path style="fill:#4C59E0;" d="M377.353,169.85l-10.102-3.194c-1.139-0.36-1.77-1.575-1.41-2.714l3.194-10.103
				c0.36-1.139,1.575-1.77,2.713-1.41l10.102,3.194c1.139,0.36,1.77,1.575,1.41,2.713l-3.194,10.103
				C379.707,169.579,378.492,170.21,377.353,169.85z"/>
			<path style="fill:#4C59E0;" d="M393.34,174.905l-10.102-3.194c-1.139-0.36-1.77-1.575-1.41-2.714l3.194-10.103
				c0.36-1.139,1.575-1.77,2.713-1.41l10.102,3.194c1.139,0.36,1.77,1.575,1.41,2.713l-3.194,10.103
				C395.693,174.634,394.479,175.265,393.34,174.905z"/>
		</g>
		<path style="fill:#CACAED;" d="M365.783,234.081c-0.778,2.46-3.402,3.824-5.862,3.046c-2.46-0.778-3.823-3.402-3.046-5.862
			c0.778-2.46,3.402-3.824,5.862-3.046C365.197,228.996,366.56,231.621,365.783,234.081z"/>
	</g>
	<g>
		<path style="fill:#4C59E0;" d="M454.637,95.396L454.637,95.396c-1.814-0.756-2.68-2.859-1.924-4.674l9.189-22.044
			c0.756-1.814,2.859-2.68,4.673-1.924l0,0c1.814,0.756,2.68,2.859,1.923,4.674l-9.189,22.044
			C458.554,95.286,456.451,96.152,454.637,95.396z"/>
		<path style="fill:#4C59E0;" d="M446.806,75.322L446.806,75.322c0.756-1.814,2.859-2.68,4.673-1.924l22.044,9.189
			c1.814,0.756,2.68,2.859,1.923,4.674l0,0c-0.756,1.814-2.859,2.68-4.673,1.924l-22.044-9.189
			C446.915,79.24,446.049,77.136,446.806,75.322z"/>
	</g>
	<g>
		<path style="fill:#4C59E0;" d="M50.915,472.648L50.915,472.648c-1.365-0.569-2.017-2.152-1.448-3.517l6.916-16.591
			c0.569-1.365,2.152-2.017,3.517-1.448l0,0c1.365,0.569,2.017,2.152,1.448,3.517l-6.916,16.591
			C53.863,472.566,52.28,473.218,50.915,472.648z"/>
		<path style="fill:#4C59E0;" d="M45.021,457.541L45.021,457.541c0.569-1.365,2.152-2.017,3.517-1.448l16.591,6.916
			c1.365,0.569,2.017,2.152,1.448,3.517l0,0c-0.569,1.365-2.152,2.017-3.517,1.448l-16.591-6.916
			C45.103,460.489,44.452,458.906,45.021,457.541z"/>
	</g>
	<g>
		<path style="fill:#4C59E0;" d="M460.198,420.316L460.198,420.316c-1.012,0.62-2.347,0.3-2.967-0.712l-7.537-12.293
			c-0.62-1.012-0.3-2.347,0.712-2.967l0,0c1.012-0.62,2.347-0.3,2.967,0.712l7.537,12.293
			C461.53,418.361,461.21,419.696,460.198,420.316z"/>
		<path style="fill:#4C59E0;" d="M447.606,417.049L447.606,417.049c-0.62-1.012-0.3-2.347,0.712-2.967l12.293-7.537
			c1.012-0.62,2.347-0.3,2.967,0.712l0,0c0.62,1.012,0.3,2.347-0.712,2.967l-12.293,7.537
			C449.561,418.381,448.226,418.061,447.606,417.049z"/>
	</g>
	<g>
		<path style="fill:#FFD23C;" d="M270.246,18.303c0,0,10.696,1.472,13.549,7.595c2.852,6.123,8.082,2.893,12.836,2.606
			c4.754-0.287,9.033,7.378,9.033,12.34l-5.942,2.503c0,0-0.951-8.689-7.369-7.869c-6.418,0.82-12.836,2.37-14.737-6.011
			c-1.902-8.381-11.647-5.076-11.647-5.076L270.246,18.303z"/>
		<polygon style="fill:#FFD23C;" points="255.651,16.233 269.679,31.96 276.285,11.948 		"/>
	</g>
	<g>
		<path style="fill:#FFD23C;" d="M359.139,422.316c0,0-6.447,8.661-13.186,8.208c-6.739-0.453-6.431,5.685-8.472,9.989
			c-2.041,4.303-10.819,4.356-15.166,1.964l0.672-6.413c0,0,8.071,3.356,10.447-2.662c2.376-6.018,4.112-12.388,12.372-10.013
			c8.26,2.375,10.063-7.757,10.063-7.757L359.139,422.316z"/>
		<polygon style="fill:#FFD23C;" points="367.99,410.526 347.448,415.234 361.796,430.67 		"/>
	</g>
	<g>
		<path style="fill:#FFD23C;" d="M33.911,234.737c0,0-2.538-6.797,0.176-10.436c2.713-3.639-0.863-5.703-2.548-8.424
			c-1.685-2.721,1.486-7.695,4.422-9.276l3.375,2.718c0,0-4.838,3.331-2.307,6.867c2.53,3.535,5.493,6.839,1.14,10.634
			c-4.352,3.796,0.708,8.508,0.708,8.508L33.911,234.737z"/>
		<polygon style="fill:#FFD23C;" points="37.337,244.032 42.171,230.721 28.226,233.19 		"/>
	</g>
	<path style="fill:#31C9AC;" d="M453.122,327.232c0,2.979-2.415,5.394-5.394,5.394c-2.979,0-5.394-2.415-5.394-5.394
		c0-2.979,2.415-5.394,5.394-5.394C450.707,321.838,453.122,324.253,453.122,327.232z"/>
	<path style="fill:#31C9AC;" d="M90.79,93.889c0,2.979-2.415,5.394-5.394,5.394c-2.979,0-5.394-2.415-5.394-5.394
		c0-2.979,2.415-5.394,5.394-5.394C88.375,88.494,90.79,90.909,90.79,93.889z"/>
	<path style="fill:#31C9AC;" d="M419.799,128.384c0,1.49-1.208,2.697-2.697,2.697c-1.49,0-2.697-1.208-2.697-2.697
		c0-1.49,1.208-2.697,2.697-2.697C418.591,125.687,419.799,126.894,419.799,128.384z"/>
	<path style="fill:#31C9AC;" d="M422.56,50.467c0,2.071-1.679,3.75-3.75,3.75s-3.75-1.679-3.75-3.75s1.679-3.75,3.75-3.75
		S422.56,48.396,422.56,50.467z"/>
	<path style="fill:#31C9AC;" d="M283.305,440.895c0,3.162-2.563,5.725-5.725,5.725c-3.162,0-5.725-2.563-5.725-5.725
		c0-3.162,2.563-5.725,5.725-5.725C280.742,435.17,283.305,437.733,283.305,440.895z"/>
</g>
<g id="DESIGNED_BY_FREEPIK">
	<g>
		<g id="XMLID_29_">
			<g id="XMLID_48_">
				<path id="XMLID_56_" style="fill:#A5B7C6;" d="M260.104,472.542c-0.432,0.443-0.803,0.931-1.108,1.453l-0.465-0.241
					c-0.067-0.298-0.349-0.503-0.659-0.466c-0.331,0.039-0.568,0.339-0.529,0.67c0.039,0.331,0.339,0.568,0.67,0.529
					c0.065-0.008,0.127-0.026,0.184-0.052l0.451,0.234c-0.251,0.554-0.433,1.139-0.539,1.744l0.747,0.132
					c0.23-1.306,0.85-2.507,1.792-3.472L260.104,472.542z"/>
				<path id="XMLID_55_" style="fill:#A5B7C6;" d="M265.592,470.24c-0.171,0-0.341,0.006-0.51,0.017l-0.074-0.626
					c0.188-0.149,0.296-0.389,0.266-0.645c-0.046-0.393-0.402-0.674-0.795-0.628c-0.393,0.046-0.674,0.402-0.628,0.795
					c0.03,0.254,0.189,0.461,0.405,0.564l0.073,0.624c-0.714,0.116-1.403,0.332-2.06,0.646l0.327,0.684
					c0.934-0.447,1.942-0.673,2.995-0.673c0.496,0,0.993,0.053,1.475,0.158l0.161-0.741
					C266.692,470.298,266.142,470.24,265.592,470.24z"/>
				<path id="XMLID_54_" style="fill:#A5B7C6;" d="M272.194,472.787c0.331-0.04,0.566-0.341,0.526-0.672
					c-0.04-0.331-0.341-0.566-0.672-0.526c-0.309,0.038-0.535,0.304-0.53,0.609l-0.416,0.363c-0.418-0.43-0.89-0.813-1.408-1.139
					l-0.404,0.641c1.134,0.715,2.021,1.726,2.563,2.925l0.69-0.313c-0.251-0.554-0.567-1.072-0.942-1.545l0.402-0.351
					C272.065,472.792,272.129,472.795,272.194,472.787z"/>
				<path id="XMLID_53_" style="fill:#A5B7C6;" d="M265.044,480.448c-0.386,0.023-0.775,0.035-1.157,0.035
					c-0.88,0-1.733-0.061-2.478-0.179c-0.39-0.062-0.846-0.155-1.27-0.292c1.046,1.861,3.069,3.125,5.388,3.125
					c2.855,0,5.262-1.916,5.95-4.504c-0.682,0.449-1.505,0.825-2.459,1.123C267.839,480.123,266.463,480.363,265.044,480.448z"/>
				<path id="XMLID_49_" style="fill:#A5B7C6;" d="M265.592,471.756c-3.352,0-6.08,2.666-6.08,5.944
					c0,0.425,0.046,0.849,0.137,1.261c0.673,0.483,2.706,0.89,5.348,0.731c2.879-0.173,5.297-0.957,6.672-2.158
					c-0.005-0.195-0.021-0.39-0.045-0.582C271.244,473.989,268.65,471.756,265.592,471.756z M263.432,478.271
					c-1.02,0-1.85-0.83-1.85-1.85c0-1.02,0.83-1.85,1.85-1.85c1.02,0,1.85,0.83,1.85,1.85
					C265.282,477.441,264.452,478.271,263.432,478.271z M268.17,477.362c-0.75,0-1.36-0.61-1.36-1.36s0.61-1.361,1.36-1.361
					c0.75,0,1.361,0.61,1.361,1.361S268.92,477.362,268.17,477.362z"/>
			</g>
			<path id="XMLID_46_" style="fill:#A5B7C6;" d="M281.595,473.623c-0.295-0.116-0.805-0.309-1.382-0.237
				c-0.551,0.068-0.844,0.34-0.844,1.007v0.866h2.228v1.717h-2.228v5.455h-1.932v-5.455h-1.34v-1.717h1.34v-0.888
				c0-1.68,0.896-2.783,2.568-2.783c0.643,0,1.157,0.122,1.59,0.308L281.595,473.623z"/>
			<path id="XMLID_44_" style="fill:#A5B7C6;" d="M286.298,476.955c-0.177-0.03-0.358-0.046-0.526-0.046
				c-0.896,0-1.51,0.548-1.51,1.613v3.908h-1.932v-7.172h1.873v0.785c0.451-0.673,1.14-0.977,2.021-0.977
				c0.414,0,0.848,0.128,1.094,0.337L286.298,476.955z"/>
			<path id="XMLID_41_" style="fill:#A5B7C6;" d="M293.965,478.833c0,0.222-0.015,0.489-0.037,0.651h-5.085
				c0.207,1.036,0.933,1.488,1.843,1.488c0.622,0,1.295-0.252,1.813-0.688l1.133,1.243c-0.814,0.748-1.85,1.088-3.057,1.088
				c-2.198,0-3.723-1.495-3.723-3.753c0-2.258,1.48-3.797,3.626-3.797C292.544,475.066,293.958,476.598,293.965,478.833z
				 M288.851,478.167h3.175c-0.177-0.918-0.733-1.436-1.562-1.436C289.554,476.731,289.021,477.279,288.851,478.167z"/>
			<path id="XMLID_38_" style="fill:#A5B7C6;" d="M301.618,478.833c0,0.222-0.015,0.489-0.037,0.651h-5.085
				c0.207,1.036,0.933,1.488,1.843,1.488c0.622,0,1.295-0.252,1.813-0.688l1.132,1.243c-0.814,0.748-1.85,1.088-3.057,1.088
				c-2.198,0-3.723-1.495-3.723-3.753c0-2.258,1.48-3.797,3.627-3.797C300.197,475.066,301.611,476.598,301.618,478.833z
				 M296.504,478.167h3.175c-0.178-0.918-0.733-1.436-1.562-1.436C297.207,476.731,296.674,477.279,296.504,478.167z"/>
			<path id="XMLID_35_" style="fill:#A5B7C6;" d="M309.964,478.841c0,2.154-1.495,3.775-3.471,3.775
				c-0.962,0-1.643-0.378-2.109-0.933v3.708h-1.924v-10.133h1.887v0.792c0.466-0.585,1.155-0.984,2.139-0.984
				C308.469,475.066,309.964,476.687,309.964,478.841z M304.287,478.841c0,1.132,0.748,1.976,1.843,1.976
				c1.14,0,1.85-0.881,1.85-1.976c0-1.095-0.71-1.976-1.85-1.976C305.035,476.864,304.287,477.708,304.287,478.841z"/>
			<path id="XMLID_32_" style="fill:#A5B7C6;" d="M313.068,472.912c0,0.696-0.54,1.229-1.236,1.229
				c-0.696,0-1.229-0.533-1.229-1.229c0-0.696,0.533-1.243,1.229-1.243C312.527,471.669,313.068,472.216,313.068,472.912z
				 M312.809,482.43h-1.932v-7.172h1.932V482.43z"/>
			<path id="XMLID_30_" style="fill:#A5B7C6;" d="M316.032,477.812l2.701-2.554h2.368l-3.479,3.375l3.501,3.797h-2.376l-2.716-2.901
				v2.901H314.1v-10.658h1.932V477.812z"/>
		</g>
		<g>
			<path style="fill:#A5B7C6;" d="M184.412,482.365v-1.055c-0.527,0.718-1.391,1.23-2.387,1.23c-1.846,0-3.149-1.406-3.149-3.706
				c0-2.256,1.289-3.721,3.149-3.721c0.952,0,1.816,0.469,2.387,1.245v-3.765h1.099v9.77H184.412z M184.412,480.446v-3.208
				c-0.395-0.615-1.245-1.143-2.124-1.143c-1.421,0-2.27,1.172-2.27,2.739c0,1.567,0.85,2.724,2.27,2.724
				C183.168,481.56,184.017,481.062,184.412,480.446z"/>
			<path style="fill:#A5B7C6;" d="M186.932,478.821c0-2.051,1.465-3.706,3.486-3.706c2.139,0,3.398,1.67,3.398,3.794v0.279h-5.727
				c0.088,1.333,1.025,2.446,2.549,2.446c0.805,0,1.626-0.322,2.182-0.893l0.527,0.718c-0.703,0.703-1.655,1.084-2.812,1.084
				C188.44,482.541,186.932,481.032,186.932,478.821z M190.403,476.023c-1.509,0-2.256,1.274-2.314,2.358h4.643
				C192.718,477.326,192.015,476.023,190.403,476.023z"/>
			<path style="fill:#A5B7C6;" d="M194.607,481.428l0.571-0.791c0.469,0.542,1.362,1.011,2.329,1.011c1.084,0,1.67-0.513,1.67-1.216
				c0-1.714-4.38-0.659-4.38-3.281c0-1.098,0.952-2.036,2.636-2.036c1.201,0,2.051,0.454,2.622,1.026l-0.513,0.762
				c-0.424-0.513-1.201-0.894-2.109-0.894c-0.967,0-1.567,0.483-1.567,1.113c0,1.552,4.38,0.527,4.38,3.281
				c0,1.187-0.952,2.138-2.783,2.138C196.306,482.541,195.325,482.19,194.607,481.428z"/>
			<path style="fill:#A5B7C6;" d="M201.477,473.547c0-0.41,0.337-0.747,0.732-0.747c0.41,0,0.747,0.337,0.747,0.747
				c0,0.41-0.337,0.732-0.747,0.732C201.814,474.28,201.477,473.957,201.477,473.547z M201.667,482.365v-7.075h1.099v7.075H201.667z
				"/>
			<path style="fill:#A5B7C6;" d="M204.582,484.182l0.556-0.82c0.586,0.703,1.289,0.967,2.3,0.967c1.172,0,2.27-0.571,2.27-2.124
				v-1.011c-0.513,0.718-1.377,1.26-2.373,1.26c-1.845,0-3.149-1.377-3.149-3.662c0-2.27,1.289-3.677,3.149-3.677
				c0.952,0,1.802,0.469,2.373,1.245v-1.069h1.098v6.87c0,2.344-1.641,3.076-3.369,3.076
				C206.237,485.236,205.417,485.002,204.582,484.182z M209.709,480.329v-3.091c-0.381-0.615-1.23-1.143-2.109-1.143
				c-1.421,0-2.27,1.128-2.27,2.695c0,1.553,0.849,2.695,2.27,2.695C208.478,481.486,209.328,480.945,209.709,480.329z"/>
			<path style="fill:#A5B7C6;" d="M217.413,482.365v-4.629c0-1.245-0.63-1.641-1.582-1.641c-0.865,0-1.685,0.527-2.095,1.099v5.17
				h-1.099v-7.075h1.099v1.025c0.498-0.586,1.464-1.201,2.519-1.201c1.48,0,2.256,0.747,2.256,2.285v4.966H217.413z"/>
			<path style="fill:#A5B7C6;" d="M219.932,478.821c0-2.051,1.465-3.706,3.486-3.706c2.139,0,3.398,1.67,3.398,3.794v0.279h-5.727
				c0.088,1.333,1.025,2.446,2.549,2.446c0.806,0,1.626-0.322,2.183-0.893l0.527,0.718c-0.703,0.703-1.655,1.084-2.812,1.084
				C221.441,482.541,219.932,481.032,219.932,478.821z M223.404,476.023c-1.509,0-2.256,1.274-2.314,2.358h4.643
				C225.718,477.326,225.015,476.023,223.404,476.023z"/>
			<path style="fill:#A5B7C6;" d="M233.35,482.365v-1.055c-0.527,0.718-1.392,1.23-2.388,1.23c-1.846,0-3.149-1.406-3.149-3.706
				c0-2.256,1.289-3.721,3.149-3.721c0.952,0,1.817,0.469,2.388,1.245v-3.765h1.098v9.77H233.35z M233.35,480.446v-3.208
				c-0.396-0.615-1.245-1.143-2.124-1.143c-1.421,0-2.27,1.172-2.27,2.739c0,1.567,0.849,2.724,2.27,2.724
				C232.105,481.56,232.954,481.062,233.35,480.446z"/>
			<path style="fill:#A5B7C6;" d="M239.692,482.365v-9.77h1.098v3.765c0.572-0.776,1.421-1.245,2.388-1.245
				c1.845,0,3.149,1.465,3.149,3.721c0,2.299-1.304,3.706-3.149,3.706c-0.996,0-1.86-0.513-2.388-1.23v1.055H239.692z M242.9,481.56
				c1.436,0,2.285-1.157,2.285-2.724c0-1.568-0.85-2.739-2.285-2.739c-0.864,0-1.728,0.527-2.109,1.143v3.208
				C241.171,481.062,242.036,481.56,242.9,481.56z"/>
			<path style="fill:#A5B7C6;" d="M247.528,484.138c0.161,0.073,0.425,0.117,0.601,0.117c0.483,0,0.805-0.161,1.055-0.747
				l0.469-1.069l-2.959-7.148h1.187l2.358,5.801l2.344-5.801h1.201l-3.545,8.51c-0.425,1.025-1.143,1.421-2.08,1.435
				c-0.234,0-0.601-0.044-0.805-0.103L247.528,484.138z"/>
		</g>
	</g>
</g>
</svg>
