<svg xmlns="http://www.w3.org/2000/svg" viewBox="0 0 64 64"><g id="Layer_4" data-name="Layer 4"><path d="M48.91,61.25a4.25,4.25,0,0,1-2.83-1.1h0L33.17,48.43a1.75,1.75,0,0,0-2.34,0L17.92,60.15A4.24,4.24,0,0,1,10.83,57V7a4.24,4.24,0,0,1,4.24-4.24H48.93A4.24,4.24,0,0,1,53.17,7V57a4.19,4.19,0,0,1-2.52,3.87A4.32,4.32,0,0,1,48.91,61.25Zm-1.15-3A1.74,1.74,0,0,0,50.67,57V7a1.74,1.74,0,0,0-1.74-1.74H15.07A1.74,1.74,0,0,0,13.33,7V57a1.74,1.74,0,0,0,2.91,1.28L29.15,46.58a4.22,4.22,0,0,1,5.7,0Z" id="id_101" style="fill: rgb(155, 162, 163);"></path></g></svg>