<?xml version="1.0" encoding="utf-8"?>
<!-- Generator: Adobe Illustrator 27.5.0, SVG Export Plug-In . SVG Version: 6.00 Build 0)  -->
<svg version="1.1" id="Layer_1" xmlns="http://www.w3.org/2000/svg" xmlns:xlink="http://www.w3.org/1999/xlink" x="0px" y="0px"
	 viewBox="0 0 474.519 390.195" style="enable-background:new 0 0 474.519 390.195;" xml:space="preserve">
<g>
	<g>
		<path style="fill:#C3DADD;" d="M346.294,152.306H179.872c-14.433,0-26.134-11.701-26.134-26.134l0,0
			c0-14.433,11.701-26.134,26.134-26.134h166.423c14.433,0,26.134,11.7,26.134,26.134l0,0
			C372.428,140.605,360.728,152.306,346.294,152.306z"/>
		<path style="fill:#C3DADD;" d="M382.738,282.583H134.452c-14.433,0-26.134-11.7-26.134-26.134l0,0
			c0-14.433,11.701-26.134,26.134-26.134h248.286c14.433,0,26.134,11.701,26.134,26.134l0,0
			C408.872,270.882,397.171,282.583,382.738,282.583z"/>
		<path style="fill:#C3DADD;" d="M436.522,373.091H37.997c-14.433,0-26.134-11.701-26.134-26.134v0
			c0-14.433,11.7-26.134,26.134-26.134h398.525c14.433,0,26.134,11.701,26.134,26.134v0
			C462.656,361.391,450.956,373.091,436.522,373.091z"/>
		<path style="fill:#C3DADD;" d="M357.449,224.232H69.203c-6.307,0-11.42-5.113-11.42-11.419v-0.177
			c0-6.307,5.113-11.419,11.42-11.419h288.245c6.307,0,11.419,5.113,11.419,11.419v0.177
			C368.868,219.12,363.755,224.232,357.449,224.232z"/>
		<path style="fill:#C3DADD;" d="M260.914,92.19H195.26c-6.307,0-11.419-5.113-11.419-11.42v-0.177
			c0-6.307,5.113-11.42,11.419-11.42h65.655c6.307,0,11.42,5.113,11.42,11.42v0.177C272.334,87.077,267.221,92.19,260.914,92.19z"/>
		<path style="fill:#C3DADD;" d="M421.092,315.454H192.273c-7.958,0-14.41-6.452-14.41-14.41v0c0-7.958,6.452-14.41,14.41-14.41
			h228.819c7.958,0,14.41,6.452,14.41,14.41v0C435.502,309.002,429.05,315.454,421.092,315.454z"/>
		<path style="fill:#C3DADD;" d="M157.887,315.454H50.251c-7.958,0-14.41-6.452-14.41-14.41v0c0-7.958,6.452-14.41,14.41-14.41
			h107.636c7.958,0,14.41,6.452,14.41,14.41v0C172.297,309.002,165.846,315.454,157.887,315.454z"/>
		<circle style="fill:#C3DADD;" cx="383.621" cy="212.725" r="11.878"/>
		
			<ellipse transform="matrix(0.0823 -0.9966 0.9966 0.0823 161.843 274.659)" style="fill:#C3DADD;" cx="230.062" cy="49.448" rx="11.877" ry="11.878"/>
		
			<ellipse transform="matrix(0.926 -0.3774 0.3774 0.926 -38.673 54.9946)" style="fill:#C3DADD;" cx="120.982" cy="126.172" rx="22.733" ry="22.733"/>
		
			<ellipse transform="matrix(0.2321 -0.9727 0.9727 0.2321 -190.9268 272.9225)" style="fill:#C3DADD;" cx="77.383" cy="257.379" rx="23.234" ry="23.234"/>
		<path style="fill:#C3DADD;" d="M328.557,196.604H119.888c-10.645,0-19.274-8.63-19.274-19.274l0,0
			c0-10.645,8.629-19.275,19.274-19.275h208.669c10.645,0,19.275,8.629,19.275,19.275l0,0
			C347.832,187.974,339.202,196.604,328.557,196.604z"/>
		
			<ellipse transform="matrix(0.7071 -0.7071 0.7071 0.7071 -102.6039 108.3225)" style="fill:#C3DADD;" cx="79.455" cy="178.015" rx="9.72" ry="9.72"/>
		
			<ellipse transform="matrix(0.1594 -0.9872 0.9872 0.1594 133.5687 512.8884)" style="fill:#C3DADD;" cx="367.943" cy="178.015" rx="16.642" ry="16.642"/>
		<path style="fill:#C3DADD;" d="M304.987,80.682c0,7.279-5.901,13.18-13.18,13.18c-7.279,0-13.18-5.901-13.18-13.18
			c0-7.279,5.901-13.18,13.18-13.18C299.086,67.502,304.987,73.403,304.987,80.682z"/>
	</g>
	<g>
		<g>
			<g>
				<rect x="365.176" y="301.242" style="fill:#2D4C71;" width="9.34" height="58.313"/>
				<rect x="365.936" y="301.242" style="fill:#E3E2D7;" width="7.934" height="3.156"/>
				<rect x="365.176" y="304.756" style="fill:#5282BD;" width="9.34" height="58.313"/>
				<rect x="373.457" y="304.756" style="fill:#5282BD;" width="1.059" height="58.313"/>
			</g>
			<g>
				<rect x="374.516" y="301.242" style="fill:#864E2C;" width="9.34" height="58.313"/>
				<rect x="375.276" y="301.242" style="fill:#E3E2D7;" width="7.934" height="3.156"/>
				<rect x="374.516" y="304.756" style="fill:#B46651;" width="9.34" height="58.313"/>
				<rect x="382.797" y="304.756" style="fill:#9C4E42;" width="1.059" height="58.313"/>
			</g>
			<g>
				<rect x="383.855" y="307.199" style="fill:#18534E;" width="8.44" height="52.694"/>
				<rect x="384.542" y="307.199" style="fill:#E3E2D7;" width="7.169" height="2.852"/>
				<rect x="383.855" y="310.375" style="fill:#49A199;" width="8.44" height="52.694"/>
				<rect x="391.338" y="310.375" style="opacity:0.51;fill:#456EA0;" width="0.957" height="52.694"/>
			</g>
			<g>
				<rect x="392.295" y="305.552" style="fill:#2D4C71;" width="8.688" height="54.247"/>
				<rect x="393.002" y="305.552" style="fill:#E3E2D7;" width="7.381" height="2.936"/>
				<rect x="392.295" y="308.822" style="fill:#5282BD;" width="8.688" height="54.247"/>
				<rect x="399.999" y="308.822" style="fill:#5282BD;" width="0.985" height="54.247"/>
			</g>
			<g>
				<rect x="400.983" y="305.552" style="fill:#864E2C;" width="8.688" height="54.247"/>
				<rect x="401.691" y="305.552" style="fill:#E3E2D7;" width="7.381" height="2.936"/>
				<rect x="400.983" y="308.822" style="fill:#B46651;" width="8.688" height="54.247"/>
				<rect x="408.687" y="308.822" style="fill:#9C4E42;" width="0.985" height="54.247"/>
			</g>
			<g>
				<rect x="409.672" y="311.094" style="fill:#18534E;" width="7.851" height="49.02"/>
				<rect x="410.311" y="311.094" style="fill:#E3E2D7;" width="6.669" height="2.653"/>
				<rect x="409.672" y="314.049" style="fill:#49A199;" width="7.851" height="49.02"/>
				<rect x="416.633" y="314.049" style="opacity:0.51;fill:#456EA0;" width="0.89" height="49.02"/>
			</g>
		</g>
		<g>
			<g>
				<path style="fill:#3B5D6D;" d="M83.809,324.727H67.943l2.991,37.579c0,0.643,5.765,1.165,12.876,1.165
					c7.111,0,12.876-0.521,12.876-1.165l2.99-37.579H83.809z"/>
				<path style="opacity:0.5;fill:#ABAC98;" d="M90.667,324.727c-0.293,2.845-1.024,22.828-1.125,29.966
					c-0.041,2.888-0.101,5.778-0.204,8.665c4.345-0.187,7.348-0.588,7.348-1.052l2.99-37.579H90.667z"/>
				<path style="fill:#54564C;" d="M99.676,324.727c0,0.617-7.104,1.117-15.867,1.117s-15.867-0.5-15.867-1.117
					c0-0.617,7.104-1.117,15.867-1.117S99.676,324.11,99.676,324.727z"/>
			</g>
			<g>
				<polygon style="fill:#507147;" points="85.602,325.827 84.533,256.641 83.403,254.852 83.356,325.827 				"/>
				<g>
					<path style="fill:#5B895D;" d="M65.042,309.057c1.672-0.651,3.487-0.899,5.26-1.096c1.647-0.183,3.315-0.257,4.949-0.541
						c0.917-0.159,1.823-0.425,2.706-0.717c1.145-0.379,2.266-0.857,3.276-1.523c1.896-1.251,3.564-3.521,2.771-5.888
						c-0.709-2.116-2.996-3.418-5.073-3.827c-4.983-0.981-10.336,1.37-13.28,5.436c-1.348,1.861-2.323,4.042-2.864,6.272
						c-0.283,1.163-0.462,2.431-0.371,3.66C63.085,310.013,64.041,309.447,65.042,309.057z"/>
					<path style="fill:#8AB676;" d="M81.895,296.683c-0.507,0.015-1.014,0.042-1.52,0.091c-4.432,0.425-8.761,2.158-12.222,4.968
						c-2.799,2.273-5.167,5.391-5.658,9.009c0.665-0.773,1.582-1.318,2.546-1.693c1.672-0.651,3.487-0.899,5.26-1.096
						c1.647-0.183,3.315-0.257,4.949-0.541c0.917-0.159,1.823-0.425,2.706-0.717c1.145-0.379,2.266-0.857,3.276-1.523
						c1.896-1.251,3.564-3.521,2.771-5.888C83.639,298.202,82.853,297.33,81.895,296.683z"/>
				</g>
				<g>
					<path style="fill:#5B895D;" d="M100.22,318.963c-1.672-0.65-3.487-0.899-5.26-1.096c-1.647-0.183-3.315-0.257-4.949-0.541
						c-0.917-0.159-1.823-0.425-2.706-0.717c-1.145-0.379-2.266-0.857-3.276-1.523c-1.896-1.251-3.564-3.521-2.771-5.888
						c0.709-2.115,2.995-3.418,5.073-3.827c4.983-0.981,10.336,1.37,13.28,5.436c1.348,1.861,2.323,4.042,2.865,6.272
						c0.283,1.163,0.462,2.432,0.371,3.66C102.176,319.919,101.22,319.352,100.22,318.963z"/>
					<path style="fill:#8AB676;" d="M83.367,306.588c0.507,0.015,1.014,0.042,1.52,0.091c4.432,0.425,8.761,2.158,12.222,4.968
						c2.799,2.273,5.167,5.391,5.658,9.009c-0.665-0.773-1.582-1.318-2.546-1.693c-1.672-0.65-3.487-0.899-5.26-1.096
						c-1.647-0.183-3.315-0.257-4.949-0.541c-0.917-0.159-1.823-0.425-2.706-0.717c-1.145-0.379-2.266-0.857-3.276-1.523
						c-1.896-1.251-3.564-3.521-2.771-5.888C81.623,308.108,82.408,307.236,83.367,306.588z"/>
				</g>
				<g>
					<path style="fill:#5B895D;" d="M68.809,290.095c1.426-0.555,2.974-0.767,4.486-0.935c1.404-0.156,2.827-0.219,4.22-0.461
						c0.782-0.136,1.555-0.363,2.308-0.612c0.977-0.323,1.933-0.731,2.794-1.299c1.617-1.067,3.039-3.003,2.363-5.021
						c-0.604-1.804-2.555-2.915-4.326-3.264c-4.25-0.837-8.814,1.168-11.326,4.636c-1.149,1.587-1.981,3.447-2.443,5.349
						c-0.241,0.992-0.394,2.074-0.317,3.121C67.14,290.91,67.955,290.427,68.809,290.095z"/>
					<path style="fill:#8AB676;" d="M83.182,279.541c-0.432,0.013-0.865,0.036-1.296,0.077c-3.78,0.363-7.472,1.84-10.423,4.237
						c-2.387,1.938-4.406,4.598-4.825,7.683c0.567-0.659,1.349-1.124,2.172-1.444c1.426-0.555,2.974-0.767,4.486-0.935
						c1.404-0.156,2.827-0.219,4.22-0.461c0.782-0.136,1.555-0.363,2.308-0.612c0.977-0.323,1.933-0.731,2.794-1.299
						c1.617-1.067,3.039-3.003,2.363-5.021C84.669,280.837,83.999,280.093,83.182,279.541z"/>
				</g>
				<g>
					<path style="fill:#5B895D;" d="M98.81,299.798c-1.426-0.555-2.974-0.767-4.486-0.935c-1.404-0.156-2.827-0.219-4.22-0.461
						c-0.782-0.136-1.555-0.363-2.308-0.612c-0.977-0.323-1.933-0.731-2.794-1.299c-1.617-1.067-3.04-3.003-2.363-5.021
						c0.604-1.804,2.555-2.915,4.326-3.264c4.25-0.837,8.815,1.169,11.326,4.636c1.149,1.587,1.981,3.447,2.443,5.349
						c0.241,0.992,0.394,2.074,0.317,3.121C100.478,300.613,99.663,300.13,98.81,299.798z"/>
					<path style="fill:#8AB676;" d="M84.437,289.244c0.432,0.013,0.865,0.036,1.296,0.077c3.78,0.363,7.472,1.84,10.423,4.237
						c2.387,1.938,4.406,4.598,4.825,7.684c-0.567-0.659-1.349-1.124-2.172-1.444c-1.426-0.555-2.974-0.767-4.486-0.935
						c-1.404-0.156-2.827-0.219-4.22-0.461c-0.782-0.136-1.555-0.363-2.308-0.612c-0.977-0.323-1.933-0.731-2.794-1.299
						c-1.617-1.067-3.04-3.003-2.363-5.021C82.95,290.54,83.619,289.796,84.437,289.244z"/>
				</g>
				<g>
					<path style="fill:#5B895D;" d="M72.1,272.221c1.113-0.433,2.322-0.598,3.502-0.73c1.096-0.122,2.207-0.171,3.295-0.36
						c0.611-0.106,1.214-0.283,1.801-0.477c0.762-0.252,1.509-0.57,2.181-1.014c1.262-0.833,2.373-2.344,1.845-3.92
						c-0.472-1.408-1.994-2.275-3.377-2.548c-3.317-0.653-6.881,0.912-8.841,3.619c-0.897,1.239-1.547,2.691-1.907,4.176
						c-0.188,0.774-0.308,1.619-0.247,2.436C70.797,272.857,71.434,272.48,72.1,272.221z"/>
					<path style="fill:#8AB676;" d="M83.319,263.983c-0.338,0.01-0.675,0.028-1.012,0.06c-2.95,0.283-5.832,1.437-8.136,3.307
						c-1.863,1.513-3.44,3.589-3.767,5.998c0.443-0.514,1.053-0.878,1.695-1.127c1.113-0.433,2.322-0.598,3.502-0.73
						c1.096-0.122,2.207-0.171,3.295-0.36c0.611-0.106,1.214-0.283,1.801-0.477c0.762-0.252,1.509-0.57,2.181-1.014
						c1.262-0.833,2.373-2.344,1.845-3.92C84.48,264.995,83.957,264.414,83.319,263.983z"/>
				</g>
				<g>
					<path style="fill:#5B895D;" d="M95.519,280.781c-1.113-0.433-2.322-0.598-3.502-0.73c-1.096-0.122-2.207-0.171-3.294-0.36
						c-0.611-0.106-1.214-0.283-1.802-0.477c-0.762-0.252-1.509-0.57-2.181-1.014c-1.262-0.833-2.373-2.344-1.845-3.92
						c0.472-1.409,1.994-2.276,3.377-2.548c3.317-0.653,6.881,0.912,8.841,3.619c0.897,1.239,1.546,2.691,1.907,4.176
						c0.188,0.775,0.308,1.619,0.247,2.436C96.821,281.418,96.185,281.04,95.519,280.781z"/>
					<path style="fill:#8AB676;" d="M84.299,272.543c0.338,0.01,0.675,0.028,1.012,0.061c2.95,0.283,5.832,1.437,8.136,3.307
						c1.863,1.513,3.44,3.589,3.767,5.998c-0.443-0.514-1.053-0.878-1.695-1.127c-1.113-0.433-2.322-0.598-3.502-0.73
						c-1.096-0.122-2.207-0.171-3.294-0.36c-0.611-0.106-1.214-0.283-1.802-0.477c-0.762-0.252-1.509-0.57-2.181-1.014
						c-1.262-0.833-2.373-2.344-1.845-3.92C83.138,273.555,83.661,272.974,84.299,272.543z"/>
				</g>
				<g>
					<path style="fill:#5B895D;" d="M95.753,250.944c-0.881,0.807-1.563,1.818-2.203,2.819c-0.594,0.929-1.129,1.904-1.78,2.796
						c-0.365,0.501-0.79,0.964-1.224,1.405c-0.563,0.572-1.179,1.101-1.874,1.508c-1.305,0.764-3.151,1.092-4.331-0.078
						c-1.055-1.046-1.16-2.795-0.792-4.155c0.881-3.264,3.86-5.769,7.154-6.33c1.508-0.257,3.097-0.197,4.588,0.135
						c0.778,0.174,1.588,0.44,2.295,0.855C96.899,250.057,96.28,250.461,95.753,250.944z"/>
					<path style="fill:#8AB676;" d="M83.403,257.365c0.158-0.298,0.324-0.593,0.502-0.881c1.558-2.521,3.867-4.596,6.563-5.836
						c2.181-1.003,4.74-1.499,7.045-0.727c-0.657,0.17-1.253,0.557-1.761,1.022c-0.881,0.807-1.563,1.818-2.203,2.819
						c-0.594,0.929-1.129,1.904-1.78,2.796c-0.365,0.501-0.79,0.964-1.224,1.405c-0.563,0.572-1.179,1.101-1.874,1.508
						c-1.305,0.764-3.151,1.092-4.331-0.078C83.798,258.854,83.508,258.128,83.403,257.365z"/>
				</g>
				<g>
					<path style="fill:#5B895D;" d="M75.117,249.25c0.658,0.603,1.169,1.359,1.646,2.107c0.444,0.695,0.844,1.423,1.33,2.09
						c0.273,0.374,0.591,0.72,0.916,1.05c0.421,0.428,0.881,0.823,1.401,1.127c0.976,0.571,2.356,0.816,3.238-0.058
						c0.788-0.782,0.867-2.089,0.592-3.107c-0.659-2.44-2.886-4.313-5.349-4.732c-1.127-0.192-2.315-0.148-3.43,0.101
						c-0.582,0.13-1.187,0.329-1.715,0.639C74.259,248.587,74.723,248.889,75.117,249.25z"/>
					<path style="fill:#8AB676;" d="M84.349,254.051c-0.118-0.223-0.242-0.443-0.375-0.658c-1.165-1.885-2.891-3.436-4.907-4.363
						c-1.63-0.749-3.543-1.12-5.267-0.543c0.491,0.127,0.936,0.416,1.316,0.764c0.658,0.603,1.169,1.359,1.646,2.107
						c0.444,0.695,0.844,1.423,1.33,2.09c0.273,0.374,0.591,0.72,0.916,1.05c0.421,0.428,0.881,0.823,1.401,1.127
						c0.976,0.571,2.356,0.816,3.238-0.058C84.054,255.164,84.271,254.622,84.349,254.051z"/>
				</g>
			</g>
		</g>
		<g>
			<g>
				<g>
					<path style="fill:#EDEAD3;" d="M132.053,344.12c0,0,1.351-3.535,7.079-2.652c5.727,0.884,5.35,9.934-0.118,13.8
						c-4.615,3.262-13.499,4.761-13.499,4.761v-2.31c0,0,6.645-0.184,11.331-3.677c4.997-3.724,4.184-9.051,1.273-9.805
						c-4.031-1.044-6.473,4.335-6.473,4.335L132.053,344.12z"/>
					<path style="fill:#E2DFCA;" d="M130.38,356.965c-2.716,0.694-4.866,0.755-4.866,0.755v2.31c0,0,1.575-0.266,3.74-0.817
						C129.642,358.47,130.021,357.722,130.38,356.965z"/>
					<path style="fill:#E2DFCA;" d="M133.847,345.536c0.282-1.224,0.539-2.455,0.712-3.695c-1.94,0.807-2.506,2.279-2.506,2.279
						l-0.408,4.453C131.645,348.574,132.431,346.844,133.847,345.536z"/>
					<path style="fill:#EDEAD3;" d="M133.687,339.931l-16.758-0.218h-0.495l-16.758,0.218c0,0,0.728,11.61,6.759,21.856
						c0.005,0.009,0.01,0.018,0.016,0.027c0,0,0,0,0,0l0,0c0.565,0.932,4.929,1.657,10.231,1.657c5.354,0,9.752-0.74,10.247-1.685
						C132.959,351.54,133.687,339.931,133.687,339.931z"/>
					<ellipse style="fill:#BDBDAC;" cx="116.681" cy="339.931" rx="17.005" ry="1.538"/>
				</g>
			</g>
		</g>
		<g>
			<g>
				<path style="fill:#416873;" d="M225.165,260.281c0,0-34.331,7.19-43.559,28.493c-8.327,19.226-22.856,72.718-22.856,72.718
					h34.018c0,0,13.465-57.174,15.946-66.454C211.194,285.759,225.165,260.281,225.165,260.281z"/>
				<path style="fill:#416873;" d="M278.876,263.523c0,0,27.799,3.948,37.027,25.252c8.327,19.226,22.856,72.718,22.856,72.718
					H304.74c0,0-13.466-57.174-15.946-66.454C286.314,285.759,278.876,263.523,278.876,263.523z"/>
				<path style="fill:#5F91A0;" d="M291.526,288.32c-0.749-6.873-1.937-15.454-3.734-22.065
					c-11.304-6.603-31.849-8.096-31.849-8.096h-5.303h-5.431h-5.303c0,0-19.605,1.045-31.137,7.526
					c-1.797,6.61-3.696,15.762-4.445,22.635c-1.574,14.439-0.971,29.061,0.552,43.47c1.053,9.954,2.542,19.835,4.094,29.703h36.24
					h5.431h36.24c1.552-9.867,3.042-19.748,4.094-29.703C292.497,317.382,293.099,302.759,291.526,288.32z"/>
				<path style="fill:#EFCAAC;" d="M265.161,261.727c-4.326-2.258-2.317-24.645-2.317-24.645h-28.271c0,0,2.01,22.387-2.317,24.645
					c-4.327,2.259-6.431,1.643-4.316,8.462c1.72,5.545,8.193,8.279,17.412,8.917c0,0,2.249,0.148,3.357,0.13
					c1.108,0.018,3.357-0.13,3.357-0.13c9.218-0.638,15.691-3.371,17.412-8.917C271.593,263.37,269.488,263.986,265.161,261.727z"/>
				<path style="fill:#EFCAAC;" d="M288.888,214.527c-1.058-1.393-2.883-2.316-4.527-2.649c-3.872-0.783-5.979,4.379-7.007,7.205
					c-1.711,4.704-3.039,9.728-3.857,14.656c-0.122,0.734-0.184,1.608,0.376,2.097c0.372,0.324,0.908,0.365,1.401,0.348
					c7.799-0.286,11.077-9.957,13.632-15.875c0.409-0.948,0.796-1.928,0.866-2.958C289.846,216.27,289.492,215.322,288.888,214.527z
					"/>
				<path style="fill:#EFCAAC;" d="M208.061,217.349c0.07,1.03,0.457,2.01,0.866,2.958c2.555,5.918,5.833,15.589,13.632,15.875
					c0.493,0.018,1.029-0.023,1.401-0.348c0.561-0.489,0.498-1.363,0.377-2.097c-0.817-4.927-2.146-9.952-3.857-14.656
					c-1.028-2.826-3.135-7.988-7.007-7.205c-1.644,0.333-3.469,1.256-4.527,2.649C208.342,215.322,207.988,216.27,208.061,217.349z"
					/>
				<path style="fill:#F6DFC9;" d="M283.459,182.232c-2.083-8.775-6.525-16.721-14.421-21.48
					c-15.075-9.087-41.592-5.165-50.557,11.058c-1.808,3.272-3.49,6.825-4.617,10.388c-4.498,14.213,0.171,31.593,4.375,45.383
					c3.274,10.74,9.16,21.203,20.129,25.486c25.222,9.848,40.4-15.898,44.341-36.762
					C284.791,205.287,286.073,193.242,283.459,182.232z"/>
				<g>
					<g>
						<path style="fill:#1B374F;" d="M272.556,212.826c-2.687-2.683-6.436-3.535-9.921-2.214c-3.027,1.147-5.172,3.845-6.195,6.989
							c0.098-0.059,0.183-0.136,0.229-0.218c1.518-2.699,4.822-4.732,7.719-5.165c1.785-0.267,3.673,0.189,5.338,0.857
							c0.91,0.364,1.818,0.725,2.669,1.233c0.842,0.502,1.6,1.166,2.391,1.752c0.004,0.003,0.008,0.003,0.012,0.005
							C274.252,214.854,273.489,213.758,272.556,212.826z"/>
					</g>
				</g>
				<g>
					<g>
						<path style="fill:#1B374F;" d="M239.069,212.826c-2.687-2.683-6.436-3.535-9.921-2.214c-3.027,1.147-5.172,3.845-6.195,6.989
							c0.098-0.059,0.183-0.136,0.23-0.218c1.518-2.699,4.822-4.732,7.718-5.165c1.785-0.267,3.673,0.189,5.338,0.857
							c0.91,0.364,1.818,0.725,2.668,1.233c0.842,0.502,1.6,1.166,2.391,1.752c0.004,0.003,0.008,0.003,0.012,0.005
							C240.766,214.854,240.003,213.758,239.069,212.826z"/>
					</g>
				</g>
				<g>
					<path style="fill:#492717;" d="M266.757,220.006c0,2.267-0.966,4.104-2.158,4.104c-1.192,0-2.158-1.838-2.158-4.104
						c0-2.267,0.966-4.104,2.158-4.104C265.791,215.901,266.757,217.739,266.757,220.006z"/>
					<path style="fill:#FFFFFF;" d="M266.122,218.398c0,0.444-0.189,0.804-0.423,0.804c-0.233,0-0.423-0.36-0.423-0.804
						c0-0.444,0.19-0.804,0.423-0.804C265.933,217.594,266.122,217.954,266.122,218.398z"/>
				</g>
				<g>
					<path style="fill:#492717;" d="M235.429,220.006c0,2.267-0.966,4.104-2.158,4.104c-1.192,0-2.158-1.838-2.158-4.104
						c0-2.267,0.966-4.104,2.158-4.104C234.463,215.901,235.429,217.739,235.429,220.006z"/>
					<path style="fill:#FFFFFF;" d="M234.794,218.398c0,0.444-0.189,0.804-0.423,0.804c-0.233,0-0.423-0.36-0.423-0.804
						c0-0.444,0.189-0.804,0.423-0.804C234.605,217.594,234.794,217.954,234.794,218.398z"/>
				</g>
				<path style="fill:#F6DFC9;" d="M251.423,234.87c-0.689,0.573-1.421,1.063-2.27,1.2c-0.144,0.047-0.294,0.08-0.444,0.112
					c-0.15-0.032-0.3-0.066-0.445-0.112c-0.848-0.136-1.58-0.627-2.27-1.2c-0.565-0.325-1.162-0.578-1.766-0.817
					c0.605,0.714,1.023,1.551,1.777,2.138c0.723,0.563,1.602,0.902,2.516,0.905c0.007,0.001,0.013,0.003,0.019,0.004
					c0.057,0.006,0.111-0.005,0.168-0.002c0.056-0.003,0.111,0.008,0.168,0.002c0.007-0.001,0.013-0.003,0.019-0.004
					c0.915-0.003,1.793-0.342,2.516-0.905c0.754-0.587,1.173-1.424,1.777-2.138C252.585,234.292,251.988,234.546,251.423,234.87z"/>
				<path style="fill:#FFFFFF;" d="M238.668,241.309c0,0,9.645,2.517,18.514,2.888c0,0-1.996,1.26-8.379,0.589
					C242.419,244.113,238.668,241.309,238.668,241.309z"/>
				<g>
					<path style="fill:#EFCAAC;" d="M207.224,361.595c0.236-0.306,0.368-0.677,0.29-1.081c-0.171-0.891-1.271-1.265-1.977-1.641
						c-2.98-1.588-5.723-3.366-8.193-5.682c-1.052-0.986-2.011-2.287-3.205-3.103c-1.238-0.848-2.986-0.912-4.412-1.223
						c-3.5-0.763-6.983-1.512-10.527-2.051c-2.981-0.454-6.133-1.191-9.087-0.248c-2.949,0.941-5.243,3.172-7.375,5.318
						c-2.222,2.238-4.288,4.648-5.377,7.62c-0.065,0.121-0.591,1.122-0.938,2.091H207.224z"/>
					<path style="fill:#D2A27C;" d="M175.176,361.595c0.444-0.834,0.93-1.644,1.479-2.415c1.007-2.558,2.47-4.957,4.393-6.849
						c1.674-1.646,3.742-2.717,6.06-3.125c1.281-0.225,2.625-0.265,3.91-0.046c1.024,0.175,1.899,0.598,2.85,0.987
						c0.048,0.02,0.132-0.044,0.114-0.097c-0.313-0.923-1.535-1.205-2.383-1.399c-1.243-0.285-2.544-0.339-3.808-0.185
						c-2.436,0.297-4.72,1.3-6.573,2.906c-2.999,2.601-5.008,6.37-6.07,10.223H175.176z"/>
					<path style="fill:#D2A27C;" d="M184.924,361.595c0.07-0.087,0.151-0.184,0.212-0.259c0.62-0.764,1.174-1.595,1.87-2.293
						c0.674-0.677,1.375-1.328,2.138-1.904c0.699-0.528,1.81-1.267,2.739-1.085c0.131,0.026,0.332-0.196,0.156-0.25
						c-0.416-0.124-0.795-0.191-1.227-0.109c-0.495,0.094-0.96,0.335-1.391,0.587c-0.906,0.528-1.693,1.236-2.445,1.961
						c-0.693,0.668-1.282,1.396-1.872,2.155c-0.23,0.296-0.476,0.579-0.718,0.865c-0.027,0.11-0.049,0.221-0.074,0.332H184.924z"/>
					<path style="fill:#D2A27C;" d="M161.04,361.595c0.158-0.943,0.365-1.876,0.685-2.778c0.009-0.075,0.017-0.138,0.022-0.173
						c0.327-2.316,1.351-4.576,2.658-6.499c1.618-2.379,3.96-4.546,6.757-5.409c3.175-0.979,6.07,0.237,9.196,0.605
						c-2.344,0.521-4.563,1.871-6.422,3.335c-3.351,2.637-6.213,6.598-6.975,10.918h0.274c0.097-0.263,0.19-0.535,0.282-0.793
						c0.294-0.835,0.631-1.699,1.096-2.473c1.177-2.684,3.112-5.091,5.287-6.89c1.728-1.429,3.765-2.742,5.935-3.366
						c2.326-0.668,5.409-0.376,7.61,0.68c0.078,0.037,0.275-0.072,0.188-0.161c-0.78-0.792-1.89-0.979-2.936-1.217
						c-1.312-0.298-2.622-0.362-3.952-0.122c-0.037,0.007-0.074,0.018-0.11,0.025c0.034-0.046,0.046-0.099-0.009-0.13
						c-2.23-1.255-5.19-1.825-7.731-1.539c-2.537,0.285-4.822,1.619-6.677,3.322c-3.141,2.885-5.099,6.923-5.503,11.151
						c-0.026,0.277-0.114,0.874-0.148,1.512H161.04z"/>
				</g>
				<g>
					<path style="fill:#EFCAAC;" d="M290.284,361.595c-0.236-0.306-0.368-0.677-0.291-1.081c0.171-0.891,1.271-1.265,1.977-1.641
						c2.98-1.588,5.723-3.366,8.193-5.682c1.052-0.986,2.011-2.287,3.205-3.103c1.238-0.848,2.986-0.912,4.413-1.223
						c3.5-0.763,6.983-1.512,10.527-2.051c2.981-0.454,6.133-1.191,9.087-0.248c2.949,0.941,5.243,3.172,7.375,5.318
						c2.222,2.238,4.288,4.648,5.377,7.62c0.065,0.121,0.591,1.122,0.938,2.091H290.284z"/>
					<path style="fill:#D2A27C;" d="M322.332,361.595c-0.444-0.834-0.93-1.644-1.479-2.415c-1.007-2.558-2.47-4.957-4.393-6.849
						c-1.673-1.646-3.742-2.717-6.06-3.125c-1.281-0.225-2.625-0.265-3.91-0.046c-1.024,0.175-1.899,0.598-2.85,0.987
						c-0.048,0.02-0.132-0.044-0.114-0.097c0.313-0.923,1.535-1.205,2.383-1.399c1.243-0.285,2.544-0.339,3.808-0.185
						c2.436,0.297,4.72,1.3,6.573,2.906c2.999,2.601,5.008,6.37,6.07,10.223H322.332z"/>
					<path style="fill:#D2A27C;" d="M312.585,361.595c-0.07-0.087-0.151-0.184-0.211-0.259c-0.62-0.764-1.174-1.595-1.87-2.293
						c-0.674-0.677-1.375-1.328-2.138-1.904c-0.699-0.528-1.81-1.267-2.739-1.085c-0.131,0.026-0.332-0.196-0.156-0.25
						c0.416-0.124,0.795-0.191,1.227-0.109c0.495,0.094,0.96,0.335,1.391,0.587c0.906,0.528,1.693,1.236,2.445,1.961
						c0.693,0.668,1.282,1.396,1.872,2.155c0.23,0.296,0.476,0.579,0.718,0.865c0.027,0.11,0.049,0.221,0.074,0.332H312.585z"/>
					<path style="fill:#D2A27C;" d="M336.469,361.595c-0.158-0.943-0.365-1.876-0.685-2.778c-0.009-0.075-0.017-0.138-0.022-0.173
						c-0.327-2.316-1.351-4.576-2.658-6.499c-1.618-2.379-3.96-4.546-6.758-5.409c-3.175-0.979-6.069,0.237-9.196,0.605
						c2.344,0.521,4.563,1.871,6.422,3.335c3.351,2.637,6.213,6.598,6.975,10.918h-0.274c-0.097-0.263-0.19-0.535-0.282-0.793
						c-0.294-0.835-0.631-1.699-1.096-2.473c-1.177-2.684-3.112-5.091-5.287-6.89c-1.728-1.429-3.765-2.742-5.935-3.366
						c-2.326-0.668-5.409-0.376-7.61,0.68c-0.078,0.037-0.275-0.072-0.188-0.161c0.78-0.792,1.889-0.979,2.936-1.217
						c1.312-0.298,2.622-0.362,3.952-0.122c0.037,0.007,0.073,0.018,0.11,0.025c-0.034-0.046-0.046-0.099,0.009-0.13
						c2.23-1.255,5.19-1.825,7.731-1.539c2.537,0.285,4.822,1.619,6.677,3.322c3.141,2.885,5.099,6.923,5.503,11.151
						c0.027,0.277,0.115,0.874,0.148,1.512H336.469z"/>
				</g>
				<path style="fill:#1B374F;" d="M297.764,183.411c-3.626-1.696-6.43-4.522-9.033-7.496c-2.779-3.174-5.329-6.542-8.139-9.687
					c-4.708-5.269-10.837-10.322-18.155-10.943c-1.742-0.148-3.788-0.02-5.336,0.838c-1.117-1.19-2.685-1.954-4.277-2.396
					c-5.521-1.531-11.571-0.114-16.713,2.054c-12.08,5.09-21.971,14.127-29.079,25.058c-1.604,2.467-3.124,5.039-4.521,7.63
					c-1.191,2.207-2.616,4.847-2.339,7.441c0.053,0.498,0.796,0.218,0.986,0.018c0.21-0.221,0.408-0.455,0.607-0.688
					c-0.078,0.944-0.068,1.89,0.067,2.829c0.008,0.076,0.023,0.15,0.035,0.225c0.068,0.415,0.153,0.829,0.277,1.24
					c0.732,2.437,2.708,4.055,4.534,5.687c1.992,1.78,3.422,3.823,4.494,6.267c1.036,2.361,1.656,4.865,2.4,7.326
					c0.42,1.391,0.881,2.772,1.335,4.151c0.462,1.403,0.992,2.796,1.852,4.007c0.303,0.427,1.061-0.046,1.071-0.474
					c0.036-1.576-0.124-3.133-0.159-4.705c-0.035-1.566,0.172-3.078,0.58-4.591c0.007-0.027,0.018-0.053,0.026-0.08
					c0.229-0.003,0.459-0.025,0.688-0.066c0.042,0.007,0.067,0.032,0.124,0.023c2.141-0.306,4.258-1.217,6.182-2.168
					c1.456-0.719,2.851-1.568,4.179-2.508c5.479-1.959,10.223-5.79,13.604-10.498c1.839-2.561,3.284-5.406,4.326-8.381
					c0.438-1.25,0.758-2.5,1.024-3.76c-0.334,2.022-0.864,4.025-1.477,5.916c-1.771,5.465-4.81,10.363-8.919,14.377
					c-2.364,2.31-5.024,4.253-7.767,6.086c-0.345,0.231-0.072,0.586,0.273,0.39c4.712-2.675,8.995-6.281,12.197-10.669
					c3.477-4.765,5.733-10.516,6.542-16.353c0.217-1.559,0.458-3.258,0.256-4.83c-0.003-0.019-0.01-0.062-0.015-0.087
					c0.599-0.174,1.208-0.313,1.822-0.427c0.311-0.027,0.62-0.046,0.922-0.058c1.351-0.055,2.69,0.12,3.997,0.458
					c0.031,0.008,0.063,0.021,0.095,0.03c0.127,9.545,5.95,18.405,13.936,23.533c2.376,1.525,4.992,2.733,7.809,3.105
					c0.251,0.033,0.594-0.453,0.255-0.531c-5.035-1.146-9.384-4.154-12.952-7.806c-3.587-3.672-6.279-8.059-7.53-13.064
					c-0.228-0.911-0.396-1.833-0.536-2.759c0.054,0.236,0.091,0.476,0.163,0.706c0.415,1.318,0.955,2.599,1.544,3.848
					c2.655,5.626,6.768,10.99,12.073,14.343c0.905,0.572,1.859,1.057,2.84,1.467c1.038,0.802,2.098,1.571,3.178,2.301
					c1.075,0.726,2.21,1.351,3.346,1.975c0.445,0.244,0.957,0.531,1.485,0.688c-0.009,0.576-0.071,1.155-0.13,1.717
					c-0.232,2.219-1.111,4.395-0.981,6.644c0.03,0.513,0.716,0.352,0.898,0.016c1.24-2.293,2.124-4.727,3.178-7.104
					c0.201-0.454,0.416-0.902,0.631-1.35c0.154-0.258,0.307-0.516,0.461-0.774c0.034,0,0.067,0.004,0.101,0.003
					c0.392-0.01,1.093-0.807,0.457-0.94c1.879-3.137,3.778-6.262,5.728-9.353c1.638-2.598,5.568-5.752,2.804-8.943
					c-0.551-0.635-1.244-1.128-1.936-1.62c1.006,0.418,1.981,0.905,2.888,1.569c0.483,0.353,1.192-0.283,1.124-0.788
					c-0.395-2.931-2.55-5.048-4.778-6.86c1.631,0.142,3.264,0.34,4.858-0.126C297.544,184.407,298.353,183.688,297.764,183.411z"/>
			</g>
			<g>
				<g>
					<path style="fill:#7D8282;" d="M176.447,282.639c-2.512,0-4.488,2.145-4.283,4.648l6.48,79.107h0.946h131.074h0.946
						l6.481-79.107c0.205-2.504-1.771-4.648-4.283-4.648H176.447z"/>
					<path style="fill:#9BA0A0;" d="M179.236,283.555c-2.41,0-4.306,2.104-4.109,4.56l6.217,77.598h0.908h125.752h0.908
						l6.217-77.598c0.197-2.456-1.699-4.56-4.109-4.56H179.236z"/>
					<circle style="fill:#7D8282;" cx="245.128" cy="326.542" r="7.852"/>
					
						<ellipse transform="matrix(0.7071 -0.7071 0.7071 0.7071 -158.7675 268.8344)" style="fill:#BEC0C2;" cx="245.128" cy="326.067" rx="7.377" ry="7.377"/>
					<path style="fill:#BEC0C2;" d="M309.543,284.857h-55.127h-19.992h-55.127c-4.14,0.473-2.839,6.388-2.839,6.388
						c0.266-4.732,3.904-4.85,3.904-4.85h128.117c0,0,3.638,0.118,3.904,4.85C312.382,291.245,313.684,285.33,309.543,284.857z"/>
				</g>
				<g>
					<g>
						<rect x="61.349" y="361.81" style="fill:#72533D;" width="374.811" height="18.63"/>
					</g>
					<g>
						<rect x="61.349" y="361.81" style="fill:#72533D;" width="374.811" height="11.154"/>
					</g>
					<g>
						<rect x="49.991" y="360.858" style="fill:#A4775A;" width="394.891" height="9.442"/>
					</g>
				</g>
			</g>
		</g>
		<g>
			<g>
				<g>
					<g>
						<path style="fill:#FFFAE3;" d="M348.135,129.366c0.743,9.275,8.508,9.272,8.508,9.272h0.026c0,0,7.765,0.003,8.508-9.272
							c0,0-4.344-0.727-8.521-0.68C352.48,128.638,348.135,129.366,348.135,129.366z"/>
					</g>
					<rect x="355.845" y="9.755" style="fill:#231F20;" width="1.576" height="90.072"/>
					<g>
						<path style="fill:#3E6B3E;" d="M386.724,131.253c-2.621-32.731-30.023-32.718-30.023-32.718h-0.092
							c0,0-27.402-0.013-30.023,32.718c0,0,15.331,2.566,30.068,2.399C371.389,133.82,386.724,131.253,386.724,131.253z"/>
					</g>
					<rect x="352.066" y="96.554" style="fill:#808285;" width="9.087" height="2.591"/>
				</g>
			</g>
		</g>
		<g>
			<g>
				<g>
					<g>
						<path style="fill:#ABAC98;" d="M122.988,95.18h-13.327l2.512,31.564c0,0.54,4.842,0.978,10.815,0.978
							c5.973,0,10.815-0.438,10.815-0.978l2.512-31.564H122.988z"/>
						<path style="opacity:0.5;fill:#ABAC98;" d="M129.042,95.18c-0.01,0.629-0.02,1.258-0.027,1.887
							c-0.065,6.305,0.022,12.612-0.105,18.917c-0.078,3.873-0.239,7.749-0.566,11.61c3.26-0.168,5.459-0.486,5.459-0.849
							l2.512-31.564H129.042z"/>
						<path style="fill:#54564C;" d="M136.315,95.179c0,0.518-5.967,0.938-13.327,0.938c-7.36,0-13.327-0.42-13.327-0.938
							c0-0.518,5.967-0.938,13.327-0.938C130.348,94.241,136.315,94.661,136.315,95.179z"/>
					</g>
					<g>
						<path style="fill:#8AB676;" d="M96.785,106.76c0.015-0.012,0.027-0.026,0.042-0.037c0.51-0.391,1.155-0.811,1.446-1.406
							c0.118-0.242,0.143-0.518-0.039-0.736c-0.149-0.178-0.364-0.244-0.59-0.204c-0.303,0.053-0.582,0.236-0.831,0.454
							c0-0.021,0-0.042,0.001-0.063c0.015-0.68,0.042-1.359,0.076-2.037c0.398-0.555,0.868-1.053,1.414-1.45
							c0.476-0.346,0.961-0.677,1.419-1.048c0.402-0.325,0.893-0.717,1.078-1.22c0.147-0.398-0.088-0.802-0.43-1.017
							c-0.336-0.211-0.734-0.145-1.074,0.016c-0.442,0.209-0.819,0.562-1.154,0.911c-0.394,0.411-0.747,0.86-1.083,1.32
							c0.063-0.725,0.135-1.449,0.226-2.172c0.293-0.547,0.639-1.07,1.063-1.557c0.599-0.688,1.299-1.278,2.029-1.821
							c0.32-0.238,0.64-0.481,0.978-0.694c0.283-0.178,0.573-0.345,0.844-0.542c0.501-0.363,0.903-0.802,0.911-1.453
							c0.005-0.408-0.232-0.716-0.64-0.776c-0.455-0.067-0.938,0.094-1.356,0.257c-0.434,0.168-0.853,0.375-1.252,0.615
							c-0.678,0.409-1.307,0.916-1.837,1.507c0.14-0.674,0.288-1.346,0.454-2.014c0.467-0.717,1.022-1.379,1.656-1.968
							c0.735-0.683,1.553-1.254,2.426-1.746c0.477-0.269,0.965-0.518,1.454-0.763c0.32-0.16,0.661-0.252,0.994-0.382
							c0.605-0.235,1.229-0.579,1.338-1.278c0.069-0.442-0.166-0.782-0.586-0.915c-0.48-0.152-1.032-0.076-1.517,0.01
							c-0.452,0.08-0.907,0.195-1.332,0.368c-0.964,0.393-1.912,0.882-2.761,1.498c0.309-0.751,0.643-1.492,1.013-2.213
							c0.686-0.728,1.462-1.372,2.347-1.896c0.533-0.315,1.09-0.59,1.663-0.825c0.391-0.161,0.773-0.307,1.19-0.377
							c0.869-0.146,1.745-0.238,2.608-0.416c0.428-0.089,0.858-0.192,1.267-0.352c0.31-0.121,0.639-0.272,0.859-0.532
							c0.381-0.449,0.253-1.205-0.254-1.501c-0.6-0.351-1.438-0.214-2.084-0.098c-0.804,0.145-1.592,0.385-2.36,0.661
							c-0.983,0.353-1.882,0.858-2.738,1.437c2.21-2.727,5.218-4.885,8.655-5.724c1.949-0.475,4.166-0.429,5.924,0.631
							c0.929,0.56,1.696,1.426,2.205,2.38c0.27,0.505,0.448,1.045,0.456,1.621c0.007,0.428-0.13,0.829-0.224,1.238
							c1.823-1.085,3.884-1.881,6.019-1.932c2.137-0.051,4.406,0.724,5.844,2.355c1.253,1.422,1.792,3.332,1.974,5.182
							c0.021,0.212,0.036,0.426,0.048,0.639c-0.05,1.068-0.21,2.129-0.465,3.168c-0.447-2.017-1.634-3.846-3.505-4.809
							c-0.864-0.445-1.798-0.806-2.754-0.989c-0.776-0.149-1.749-0.23-2.399,0.316c-0.253,0.213-0.487,0.565-0.453,0.909
							c0.034,0.343,0.328,0.575,0.614,0.721c0.737,0.378,1.582,0.45,2.374,0.654c0.436,0.112,0.866,0.367,1.259,0.621
							c0.479,0.309,0.916,0.68,1.301,1.1c0.749,0.817,1.28,1.816,1.585,2.879c0.272,0.951,0.357,1.941,0.289,2.923
							c-0.474,0.869-1.021,1.699-1.619,2.491c0.02-1.044-0.235-2.126-0.565-3.032c-0.605-1.661-1.641-3.344-3.167-4.304
							c-0.689-0.434-1.49-0.676-2.308-0.592c-0.328,0.034-0.731,0.118-0.887,0.448c-0.139,0.294,0.011,0.63,0.171,0.882
							c0.472,0.742,1.22,1.261,1.797,1.911c0.782,0.882,1.386,1.927,1.749,3.049c0.561,1.738,0.496,3.603-0.219,5.239
							c-0.285,0.238-0.576,0.47-0.872,0.693c-0.856,0.646-1.764,1.213-2.708,1.711c0.357-0.765,0.534-1.61,0.585-2.455
							c0.054-0.897-0.001-1.821-0.242-2.689c-0.174-0.626-0.382-1.247-0.661-1.835c-0.243-0.51-0.579-1.116-1.124-1.352
							c-0.485-0.211-1.097,0.01-1.308,0.502c-0.257,0.599-0.056,1.368,0.094,1.968c0.175,0.698,0.436,1.376,0.581,2.081
							c0.08,0.388,0.047,0.809,0.015,1.201c-0.04,0.495-0.131,0.985-0.268,1.462c-0.298,1.031-0.828,1.96-1.526,2.742
							c-0.988,0.327-1.996,0.599-3.009,0.833c0.614-1.168,0.896-2.529,0.975-3.821c0.029-0.481-0.011-0.963-0.106-1.436
							c-0.084-0.419-0.225-0.967-0.614-1.21c-0.409-0.254-0.93,0.009-1.174,0.372c-0.326,0.483-0.362,1.162-0.401,1.725
							c-0.043,0.628-0.022,1.262-0.093,1.888c-0.039,0.342-0.178,0.673-0.312,0.988c-0.166,0.388-0.365,0.762-0.592,1.118
							c-0.216,0.338-0.458,0.656-0.721,0.955c-1.078,0.164-2.161,0.278-3.245,0.383c0.098-0.162,0.195-0.324,0.287-0.489
							c0.341-0.615,0.595-1.26,0.767-1.941c0.106-0.42,0.191-0.85,0.225-1.282c0.027-0.346,0.048-0.824-0.219-1.093
							c-0.267-0.269-0.701-0.156-0.951,0.077c-0.331,0.31-0.479,0.804-0.594,1.229c-0.13,0.478-0.206,0.968-0.323,1.449
							c-0.134,0.554-0.431,1.074-0.747,1.543c-0.17,0.251-0.361,0.486-0.564,0.709c-0.848,0.082-1.695,0.173-2.539,0.285
							c0.517-0.759,0.969-1.71,0.753-2.639c-0.023-0.099-0.146-0.174-0.245-0.139c-1.179,0.419-1.7,1.736-2.43,2.651
							c-0.148,0.186-0.306,0.36-0.469,0.527c-2.484,0.516-5.165,1.422-6.916,3.311c-0.009-0.07-0.017-0.139-0.022-0.2
							c-0.061-0.749,0.016-1.51,0.081-2.256C96.761,107.488,96.776,107.124,96.785,106.76z"/>
					</g>
					<g>
						<path style="fill:#5B895D;" d="M160.954,104.588c-0.019-0.015-0.035-0.034-0.055-0.049c-0.668-0.513-1.513-1.062-1.894-1.842
							c-0.155-0.317-0.187-0.679,0.052-0.964c0.195-0.233,0.477-0.319,0.773-0.267c0.397,0.07,0.762,0.309,1.088,0.595
							c-0.001-0.028,0-0.055-0.001-0.083c-0.02-0.891-0.055-1.78-0.099-2.668c-0.521-0.728-1.137-1.379-1.853-1.899
							c-0.623-0.453-1.259-0.887-1.858-1.372c-0.527-0.426-1.169-0.94-1.412-1.598c-0.192-0.521,0.115-1.05,0.563-1.332
							c0.439-0.277,0.961-0.19,1.407,0.021c0.579,0.273,1.073,0.736,1.512,1.194c0.516,0.538,0.979,1.127,1.418,1.729
							c-0.083-0.949-0.177-1.898-0.296-2.845c-0.384-0.717-0.837-1.402-1.392-2.039c-0.784-0.901-1.701-1.674-2.658-2.385
							c-0.419-0.312-0.839-0.63-1.281-0.908c-0.371-0.234-0.751-0.453-1.106-0.71c-0.657-0.475-1.182-1.05-1.194-1.903
							c-0.007-0.535,0.304-0.938,0.839-1.017c0.596-0.087,1.228,0.123,1.777,0.336c0.569,0.221,1.117,0.491,1.64,0.806
							c0.888,0.535,1.712,1.199,2.406,1.974c-0.183-0.883-0.377-1.763-0.595-2.638c-0.611-0.939-1.339-1.807-2.169-2.579
							c-0.963-0.895-2.035-1.642-3.178-2.288c-0.625-0.353-1.264-0.678-1.905-0.999c-0.42-0.21-0.866-0.33-1.303-0.5
							c-0.792-0.308-1.61-0.758-1.753-1.675c-0.09-0.578,0.217-1.024,0.767-1.198c0.629-0.199,1.352-0.099,1.987,0.013
							c0.592,0.104,1.188,0.255,1.745,0.482c1.262,0.514,2.505,1.155,3.617,1.963c-0.404-0.984-0.842-1.954-1.327-2.899
							c-0.898-0.954-1.915-1.798-3.074-2.483c-0.698-0.413-1.428-0.773-2.179-1.081c-0.513-0.21-1.013-0.402-1.559-0.493
							c-1.138-0.191-2.285-0.312-3.416-0.545c-0.561-0.116-1.124-0.252-1.659-0.461c-0.406-0.159-0.837-0.356-1.126-0.696
							c-0.499-0.589-0.331-1.579,0.332-1.966c0.786-0.459,1.884-0.28,2.729-0.128c1.053,0.19,2.085,0.505,3.091,0.866
							c1.288,0.462,2.466,1.124,3.586,1.882c-2.895-3.572-6.835-6.399-11.337-7.497c-2.553-0.623-5.457-0.562-7.76,0.827
							c-1.217,0.734-2.221,1.869-2.888,3.117c-0.353,0.661-0.586,1.369-0.598,2.123c-0.009,0.56,0.17,1.086,0.294,1.622
							c-2.388-1.421-5.088-2.464-7.885-2.531c-2.8-0.067-5.772,0.949-7.655,3.085c-1.642,1.862-2.347,4.364-2.585,6.788
							c-0.027,0.278-0.047,0.557-0.063,0.837c0.065,1.399,0.276,2.788,0.609,4.15c0.586-2.642,2.14-5.038,4.591-6.3
							c1.132-0.583,2.355-1.055,3.608-1.295c1.017-0.195,2.292-0.301,3.142,0.414c0.331,0.279,0.637,0.741,0.593,1.191
							c-0.044,0.449-0.43,0.753-0.804,0.944c-0.966,0.495-2.073,0.59-3.11,0.856c-0.57,0.147-1.134,0.481-1.648,0.813
							c-0.628,0.405-1.2,0.891-1.705,1.441c-0.981,1.07-1.677,2.379-2.076,3.771c-0.356,1.245-0.467,2.543-0.379,3.829
							c0.621,1.139,1.338,2.226,2.121,3.263c-0.027-1.367,0.308-2.785,0.741-3.971c0.793-2.176,2.15-4.381,4.148-5.638
							c0.903-0.568,1.951-0.886,3.023-0.775c0.43,0.045,0.958,0.155,1.162,0.587c0.182,0.385-0.014,0.825-0.224,1.155
							c-0.618,0.972-1.598,1.651-2.354,2.503c-1.025,1.155-1.816,2.524-2.291,3.994c-0.735,2.276-0.65,4.72,0.286,6.863
							c0.374,0.312,0.755,0.615,1.142,0.908c1.122,0.846,2.31,1.588,3.546,2.241c-0.468-1.002-0.699-2.108-0.766-3.216
							c-0.071-1.176,0.001-2.386,0.317-3.523c0.228-0.82,0.5-1.634,0.866-2.403c0.318-0.668,0.759-1.463,1.472-1.772
							c0.636-0.276,1.437,0.013,1.713,0.658c0.336,0.785,0.074,1.792-0.123,2.578c-0.229,0.914-0.571,1.803-0.761,2.726
							c-0.105,0.509-0.061,1.06-0.02,1.574c0.052,0.649,0.171,1.291,0.352,1.915c0.39,1.35,1.085,2.567,1.999,3.592
							c1.295,0.429,2.614,0.785,3.942,1.091c-0.804-1.53-1.174-3.312-1.277-5.005c-0.038-0.63,0.014-1.262,0.139-1.881
							c0.11-0.549,0.295-1.267,0.805-1.585c0.535-0.333,1.217,0.012,1.538,0.487c0.427,0.633,0.475,1.523,0.525,2.26
							c0.056,0.822,0.029,1.654,0.122,2.473c0.051,0.449,0.233,0.882,0.409,1.294c0.217,0.508,0.479,0.998,0.776,1.465
							c0.283,0.443,0.6,0.859,0.944,1.251c1.412,0.214,2.831,0.365,4.251,0.501c-0.128-0.212-0.256-0.424-0.376-0.641
							c-0.446-0.806-0.78-1.65-1.004-2.543c-0.139-0.55-0.251-1.113-0.295-1.679c-0.036-0.453-0.062-1.08,0.287-1.432
							c0.349-0.353,0.919-0.204,1.245,0.102c0.434,0.406,0.628,1.053,0.779,1.609c0.17,0.626,0.27,1.268,0.423,1.899
							c0.175,0.726,0.564,1.407,0.979,2.021c0.222,0.329,0.472,0.637,0.739,0.929c1.111,0.107,2.22,0.226,3.326,0.374
							c-0.677-0.995-1.269-2.24-0.986-3.457c0.03-0.13,0.192-0.228,0.321-0.182c1.545,0.549,2.227,2.273,3.183,3.472
							c0.194,0.244,0.402,0.471,0.615,0.69c3.253,0.676,6.766,1.863,9.059,4.338c0.012-0.092,0.022-0.182,0.029-0.262
							c0.08-0.981-0.022-1.978-0.107-2.955C160.985,105.541,160.967,105.065,160.954,104.588z"/>
					</g>
					<g>
						<path style="fill:#A6D17A;" d="M108.984,86.061c0.013-0.014,0.023-0.029,0.036-0.043c0.442-0.466,1.014-0.981,1.208-1.615
							c0.079-0.258,0.06-0.534-0.154-0.721c-0.175-0.152-0.398-0.184-0.615-0.109c-0.291,0.1-0.538,0.324-0.75,0.578
							c-0.003-0.021-0.006-0.042-0.009-0.063c-0.091-0.674-0.171-1.349-0.244-2.024c0.306-0.611,0.693-1.176,1.17-1.653
							c0.416-0.416,0.843-0.819,1.237-1.257c0.346-0.384,0.77-0.848,0.874-1.373c0.083-0.416-0.212-0.778-0.584-0.937
							c-0.364-0.156-0.748-0.028-1.059,0.184c-0.404,0.275-0.721,0.683-0.997,1.081c-0.325,0.467-0.604,0.966-0.863,1.473
							c-0.051-0.726-0.093-1.452-0.117-2.18c0.204-0.586,0.463-1.157,0.806-1.704c0.484-0.773,1.083-1.465,1.719-2.116
							c0.279-0.285,0.557-0.575,0.857-0.838c0.252-0.221,0.512-0.431,0.749-0.667c0.438-0.437,0.766-0.933,0.673-1.578
							c-0.059-0.404-0.341-0.671-0.754-0.666c-0.46,0.005-0.911,0.24-1.299,0.466c-0.403,0.234-0.784,0.504-1.14,0.803
							c-0.606,0.51-1.148,1.109-1.578,1.776c0.032-0.688,0.074-1.374,0.134-2.06c0.348-0.781,0.794-1.522,1.328-2.203
							c0.619-0.79,1.338-1.481,2.123-2.104c0.429-0.34,0.872-0.662,1.317-0.981c0.291-0.209,0.614-0.353,0.923-0.533
							c0.561-0.327,1.123-0.764,1.122-1.472c-0.001-0.447-0.286-0.746-0.722-0.812c-0.498-0.075-1.031,0.087-1.497,0.247
							c-0.434,0.15-0.865,0.334-1.258,0.572c-0.891,0.538-1.751,1.17-2.493,1.912c0.187-0.791,0.402-1.574,0.654-2.345
							c0.563-0.827,1.229-1.584,2.021-2.239c0.477-0.395,0.985-0.753,1.514-1.075c0.361-0.22,0.716-0.424,1.117-0.558
							c0.835-0.28,1.686-0.508,2.511-0.819c0.409-0.154,0.818-0.324,1.196-0.545c0.287-0.168,0.589-0.369,0.766-0.659
							c0.306-0.503,0.061-1.23-0.486-1.443c-0.648-0.252-1.454,0.014-2.073,0.229c-0.771,0.269-1.512,0.63-2.228,1.022
							c-0.916,0.502-1.725,1.142-2.479,1.847c1.756-3.039,4.39-5.641,7.653-7.007c1.851-0.774,4.047-1.075,5.95-0.303
							c1.005,0.408,1.898,1.144,2.55,2.006c0.345,0.456,0.606,0.962,0.704,1.53c0.073,0.421,0.001,0.839-0.028,1.258
							c1.631-1.356,3.542-2.465,5.643-2.85c2.103-0.385,4.465,0.026,6.14,1.412c1.46,1.208,2.291,3.01,2.76,4.809
							c0.054,0.206,0.102,0.415,0.147,0.624c0.118,1.063,0.125,2.135,0.036,3.202c-0.757-1.922-2.215-3.543-4.214-4.202
							c-0.923-0.304-1.902-0.514-2.875-0.546c-0.79-0.025-1.764,0.047-2.32,0.688c-0.216,0.249-0.392,0.634-0.305,0.969
							c0.087,0.333,0.414,0.516,0.719,0.616c0.787,0.258,1.633,0.197,2.447,0.274c0.448,0.042,0.912,0.227,1.34,0.416
							c0.522,0.231,1.011,0.528,1.458,0.883c0.867,0.689,1.549,1.594,2.016,2.596c0.417,0.896,0.656,1.862,0.743,2.842
							c-0.332,0.933-0.743,1.838-1.21,2.714c-0.143-1.034-0.565-2.063-1.033-2.906c-0.857-1.546-2.144-3.047-3.801-3.756
							c-0.748-0.321-1.577-0.435-2.372-0.224c-0.319,0.085-0.704,0.232-0.806,0.582c-0.091,0.312,0.109,0.62,0.307,0.844
							c0.582,0.659,1.402,1.054,2.074,1.606c0.91,0.748,1.671,1.687,2.204,2.738c0.826,1.628,1.054,3.481,0.604,5.209
							c-0.245,0.28-0.495,0.554-0.753,0.821c-0.745,0.772-1.552,1.474-2.407,2.114c0.233-0.812,0.275-1.673,0.193-2.517
							c-0.087-0.895-0.285-1.799-0.66-2.619c-0.27-0.591-0.572-1.172-0.94-1.709c-0.32-0.466-0.747-1.012-1.322-1.16
							c-0.512-0.132-1.082,0.181-1.213,0.701c-0.16,0.632,0.158,1.36,0.401,1.929c0.281,0.662,0.646,1.291,0.899,1.964
							c0.14,0.371,0.173,0.792,0.203,1.184c0.038,0.495,0.025,0.993-0.036,1.486c-0.133,1.065-0.511,2.065-1.079,2.947
							c-0.925,0.478-1.877,0.904-2.842,1.293c0.423-1.25,0.49-2.638,0.365-3.927c-0.046-0.48-0.161-0.95-0.329-1.401
							c-0.148-0.401-0.374-0.92-0.796-1.099c-0.443-0.187-0.917,0.154-1.102,0.551c-0.247,0.529-0.176,1.205-0.126,1.767
							c0.056,0.626,0.176,1.25,0.203,1.879c0.015,0.344-0.07,0.693-0.154,1.025c-0.103,0.409-0.242,0.81-0.41,1.197
							c-0.16,0.368-0.35,0.72-0.563,1.056c-1.039,0.33-2.091,0.613-3.146,0.886c0.072-0.175,0.142-0.351,0.207-0.529
							c0.24-0.661,0.391-1.337,0.454-2.037c0.039-0.431,0.056-0.869,0.022-1.301c-0.027-0.346-0.082-0.822-0.387-1.046
							c-0.306-0.224-0.717-0.044-0.927,0.225c-0.279,0.358-0.348,0.869-0.395,1.306c-0.053,0.493-0.052,0.989-0.092,1.482
							c-0.046,0.568-0.257,1.128-0.497,1.641c-0.128,0.274-0.28,0.537-0.446,0.788c-0.825,0.213-1.647,0.436-2.463,0.679
							c0.392-0.831,0.689-1.84,0.331-2.725c-0.038-0.094-0.172-0.149-0.264-0.099c-1.099,0.598-1.408,1.98-1.985,2.998
							c-0.117,0.207-0.246,0.403-0.381,0.594c-2.372,0.899-4.879,2.213-6.312,4.353c-0.02-0.068-0.038-0.135-0.053-0.194
							c-0.177-0.73-0.22-1.494-0.273-2.241C109.074,86.783,109.031,86.422,108.984,86.061z"/>
					</g>
				</g>
				<g>
					<g>
						<path style="fill:#ABAC98;" d="M237.26,95.18h-13.327l2.512,31.564c0,0.54,4.842,0.978,10.815,0.978
							s10.815-0.438,10.815-0.978l2.512-31.564H237.26z"/>
						<path style="opacity:0.5;fill:#ABAC98;" d="M243.314,95.18c-0.01,0.629-0.02,1.258-0.027,1.887
							c-0.065,6.305,0.022,12.612-0.105,18.917c-0.078,3.873-0.239,7.749-0.566,11.61c3.26-0.168,5.459-0.486,5.459-0.849
							l2.512-31.564H243.314z"/>
						<path style="fill:#54564C;" d="M250.587,95.179c0,0.518-5.967,0.938-13.327,0.938c-7.36,0-13.327-0.42-13.327-0.938
							c0-0.518,5.967-0.938,13.327-0.938C244.62,94.241,250.587,94.661,250.587,95.179z"/>
					</g>
					<g>
						<path style="fill:#8AB676;" d="M211.057,106.76c0.015-0.012,0.027-0.026,0.042-0.037c0.51-0.391,1.155-0.811,1.446-1.406
							c0.118-0.242,0.143-0.518-0.039-0.736c-0.149-0.178-0.364-0.244-0.59-0.204c-0.303,0.053-0.582,0.236-0.831,0.454
							c0-0.021,0-0.042,0.001-0.063c0.015-0.68,0.042-1.359,0.076-2.037c0.398-0.555,0.868-1.053,1.415-1.45
							c0.475-0.346,0.961-0.677,1.418-1.048c0.402-0.325,0.893-0.717,1.078-1.22c0.147-0.398-0.088-0.802-0.43-1.017
							c-0.335-0.211-0.734-0.145-1.074,0.016c-0.442,0.209-0.819,0.562-1.154,0.911c-0.394,0.411-0.747,0.86-1.083,1.32
							c0.063-0.725,0.135-1.449,0.226-2.172c0.293-0.547,0.639-1.07,1.063-1.557c0.599-0.688,1.299-1.278,2.029-1.821
							c0.32-0.238,0.64-0.481,0.978-0.694c0.283-0.178,0.573-0.345,0.844-0.542c0.501-0.363,0.903-0.802,0.911-1.453
							c0.005-0.408-0.232-0.716-0.64-0.776c-0.455-0.067-0.938,0.094-1.356,0.257c-0.434,0.168-0.853,0.375-1.252,0.615
							c-0.678,0.409-1.307,0.916-1.837,1.507c0.14-0.674,0.288-1.346,0.454-2.014c0.466-0.717,1.023-1.379,1.656-1.968
							c0.735-0.683,1.553-1.254,2.426-1.746c0.477-0.269,0.965-0.518,1.454-0.763c0.32-0.16,0.661-0.252,0.995-0.382
							c0.605-0.235,1.229-0.579,1.338-1.278c0.069-0.442-0.166-0.782-0.586-0.915c-0.48-0.152-1.032-0.076-1.517,0.01
							c-0.452,0.08-0.907,0.195-1.332,0.368c-0.964,0.393-1.912,0.882-2.761,1.498c0.309-0.751,0.643-1.492,1.013-2.213
							c0.686-0.728,1.462-1.372,2.347-1.896c0.533-0.315,1.09-0.59,1.663-0.825c0.391-0.161,0.773-0.307,1.19-0.377
							c0.868-0.146,1.745-0.238,2.608-0.416c0.428-0.089,0.858-0.192,1.267-0.352c0.31-0.121,0.639-0.272,0.859-0.532
							c0.381-0.449,0.253-1.205-0.254-1.501c-0.6-0.351-1.439-0.214-2.084-0.098c-0.804,0.145-1.592,0.385-2.36,0.661
							c-0.983,0.353-1.882,0.858-2.738,1.437c2.21-2.727,5.218-4.885,8.655-5.724c1.949-0.475,4.166-0.429,5.924,0.631
							c0.929,0.56,1.696,1.426,2.205,2.38c0.27,0.505,0.448,1.045,0.456,1.621c0.007,0.428-0.13,0.829-0.224,1.238
							c1.823-1.085,3.885-1.881,6.019-1.932c2.137-0.051,4.406,0.724,5.844,2.355c1.253,1.422,1.792,3.332,1.973,5.182
							c0.021,0.212,0.036,0.426,0.048,0.639c-0.05,1.068-0.21,2.129-0.465,3.168c-0.447-2.017-1.634-3.846-3.505-4.809
							c-0.864-0.445-1.798-0.806-2.754-0.989c-0.776-0.149-1.749-0.23-2.399,0.316c-0.253,0.213-0.487,0.565-0.453,0.909
							c0.034,0.343,0.328,0.575,0.614,0.721c0.737,0.378,1.582,0.45,2.374,0.654c0.435,0.112,0.865,0.367,1.258,0.621
							c0.479,0.309,0.916,0.68,1.301,1.1c0.749,0.817,1.28,1.816,1.585,2.879c0.272,0.951,0.356,1.941,0.289,2.923
							c-0.474,0.869-1.021,1.699-1.619,2.491c0.02-1.044-0.235-2.126-0.565-3.032c-0.605-1.661-1.641-3.344-3.167-4.304
							c-0.689-0.434-1.49-0.676-2.308-0.592c-0.329,0.034-0.732,0.118-0.887,0.448c-0.139,0.294,0.011,0.63,0.171,0.882
							c0.472,0.742,1.22,1.261,1.797,1.911c0.782,0.882,1.387,1.927,1.749,3.049c0.561,1.738,0.496,3.603-0.218,5.239
							c-0.285,0.238-0.576,0.47-0.872,0.693c-0.857,0.646-1.764,1.213-2.708,1.711c0.357-0.765,0.534-1.61,0.585-2.455
							c0.054-0.897-0.001-1.821-0.242-2.689c-0.174-0.626-0.382-1.247-0.661-1.835c-0.243-0.51-0.579-1.116-1.124-1.352
							c-0.485-0.211-1.097,0.01-1.308,0.502c-0.257,0.599-0.056,1.368,0.094,1.968c0.175,0.698,0.436,1.376,0.581,2.081
							c0.08,0.388,0.047,0.809,0.015,1.201c-0.04,0.495-0.131,0.985-0.268,1.462c-0.298,1.031-0.828,1.96-1.526,2.742
							c-0.988,0.327-1.996,0.599-3.009,0.833c0.614-1.168,0.896-2.529,0.975-3.821c0.029-0.481-0.011-0.963-0.106-1.436
							c-0.084-0.419-0.225-0.967-0.614-1.21c-0.408-0.254-0.93,0.009-1.174,0.372c-0.326,0.483-0.363,1.162-0.401,1.725
							c-0.043,0.628-0.022,1.262-0.093,1.888c-0.039,0.342-0.178,0.673-0.312,0.988c-0.166,0.388-0.365,0.762-0.592,1.118
							c-0.216,0.338-0.458,0.656-0.721,0.955c-1.077,0.164-2.161,0.278-3.245,0.383c0.098-0.162,0.195-0.324,0.287-0.489
							c0.341-0.615,0.595-1.26,0.767-1.941c0.106-0.42,0.191-0.85,0.225-1.282c0.027-0.346,0.048-0.824-0.219-1.093
							c-0.267-0.269-0.701-0.156-0.951,0.077c-0.331,0.31-0.479,0.804-0.594,1.229c-0.13,0.478-0.207,0.968-0.323,1.449
							c-0.134,0.554-0.43,1.074-0.747,1.543c-0.17,0.251-0.361,0.486-0.564,0.709c-0.848,0.082-1.695,0.173-2.539,0.285
							c0.517-0.759,0.969-1.71,0.753-2.639c-0.023-0.099-0.146-0.174-0.245-0.139c-1.179,0.419-1.7,1.736-2.43,2.651
							c-0.148,0.186-0.307,0.36-0.469,0.527c-2.484,0.516-5.165,1.422-6.916,3.311c-0.009-0.07-0.017-0.139-0.022-0.2
							c-0.061-0.749,0.016-1.51,0.081-2.256C211.033,107.488,211.047,107.124,211.057,106.76z"/>
					</g>
					<g>
						<path style="fill:#5B895D;" d="M275.225,104.588c-0.019-0.015-0.035-0.034-0.055-0.049c-0.668-0.513-1.513-1.062-1.894-1.842
							c-0.155-0.317-0.187-0.679,0.052-0.964c0.195-0.233,0.477-0.319,0.773-0.267c0.397,0.07,0.762,0.309,1.088,0.595
							c-0.001-0.028,0-0.055-0.001-0.083c-0.02-0.891-0.055-1.78-0.099-2.668c-0.521-0.728-1.137-1.379-1.853-1.899
							c-0.623-0.453-1.259-0.887-1.858-1.372c-0.527-0.426-1.17-0.94-1.412-1.598c-0.192-0.521,0.115-1.05,0.563-1.332
							c0.439-0.277,0.961-0.19,1.407,0.021c0.579,0.273,1.073,0.736,1.512,1.194c0.516,0.538,0.979,1.127,1.418,1.729
							c-0.083-0.949-0.177-1.898-0.296-2.845c-0.384-0.717-0.837-1.402-1.392-2.039c-0.784-0.901-1.701-1.674-2.658-2.385
							c-0.419-0.312-0.839-0.63-1.281-0.908c-0.371-0.234-0.751-0.453-1.106-0.71c-0.657-0.475-1.182-1.05-1.194-1.903
							c-0.007-0.535,0.304-0.938,0.839-1.017c0.596-0.087,1.228,0.123,1.777,0.336c0.569,0.221,1.117,0.491,1.64,0.806
							c0.888,0.535,1.712,1.199,2.406,1.974c-0.183-0.883-0.377-1.763-0.595-2.638c-0.611-0.939-1.339-1.807-2.17-2.579
							c-0.962-0.895-2.035-1.642-3.178-2.288c-0.625-0.353-1.264-0.678-1.905-0.999c-0.419-0.21-0.866-0.33-1.303-0.5
							c-0.793-0.308-1.61-0.758-1.753-1.675c-0.09-0.578,0.217-1.024,0.767-1.198c0.629-0.199,1.352-0.099,1.988,0.013
							c0.592,0.104,1.188,0.255,1.745,0.482c1.262,0.514,2.505,1.155,3.617,1.963c-0.404-0.984-0.842-1.954-1.327-2.899
							c-0.898-0.954-1.915-1.798-3.074-2.483c-0.698-0.413-1.428-0.773-2.179-1.081c-0.513-0.21-1.013-0.402-1.559-0.493
							c-1.138-0.191-2.285-0.312-3.416-0.545c-0.561-0.116-1.124-0.252-1.659-0.461c-0.406-0.159-0.837-0.356-1.126-0.696
							c-0.499-0.589-0.331-1.579,0.332-1.966c0.786-0.459,1.884-0.28,2.729-0.128c1.053,0.19,2.085,0.505,3.091,0.866
							c1.288,0.462,2.466,1.124,3.586,1.882c-2.895-3.572-6.835-6.399-11.337-7.497c-2.553-0.623-5.457-0.562-7.76,0.827
							c-1.217,0.734-2.221,1.869-2.888,3.117c-0.353,0.661-0.586,1.369-0.598,2.123c-0.009,0.56,0.17,1.086,0.294,1.622
							c-2.388-1.421-5.088-2.464-7.885-2.531c-2.8-0.067-5.772,0.949-7.655,3.085c-1.642,1.862-2.347,4.364-2.585,6.788
							c-0.027,0.278-0.047,0.557-0.063,0.837c0.065,1.399,0.276,2.788,0.609,4.15c0.586-2.642,2.14-5.038,4.591-6.3
							c1.132-0.583,2.355-1.055,3.607-1.295c1.017-0.195,2.292-0.301,3.143,0.414c0.331,0.279,0.637,0.741,0.593,1.191
							c-0.044,0.449-0.43,0.753-0.805,0.944c-0.966,0.495-2.073,0.59-3.11,0.856c-0.57,0.147-1.134,0.481-1.648,0.813
							c-0.628,0.405-1.2,0.891-1.705,1.441c-0.981,1.07-1.677,2.379-2.076,3.771c-0.356,1.245-0.467,2.543-0.379,3.829
							c0.621,1.139,1.338,2.226,2.121,3.263c-0.027-1.367,0.308-2.785,0.74-3.971c0.793-2.176,2.15-4.381,4.148-5.638
							c0.903-0.568,1.951-0.886,3.023-0.775c0.43,0.045,0.958,0.155,1.162,0.587c0.182,0.385-0.014,0.825-0.224,1.155
							c-0.618,0.972-1.598,1.651-2.354,2.503c-1.025,1.155-1.816,2.524-2.291,3.994c-0.735,2.276-0.65,4.72,0.286,6.863
							c0.374,0.312,0.755,0.615,1.142,0.908c1.122,0.846,2.31,1.588,3.546,2.241c-0.468-1.002-0.699-2.108-0.766-3.216
							c-0.071-1.176,0.001-2.386,0.317-3.523c0.228-0.82,0.5-1.634,0.866-2.403c0.318-0.668,0.759-1.463,1.472-1.772
							c0.635-0.276,1.437,0.013,1.713,0.658c0.336,0.785,0.074,1.792-0.123,2.578c-0.229,0.914-0.571,1.803-0.761,2.726
							c-0.105,0.509-0.061,1.06-0.02,1.574c0.052,0.649,0.171,1.291,0.352,1.915c0.39,1.35,1.085,2.567,1.999,3.592
							c1.295,0.429,2.614,0.785,3.942,1.091c-0.804-1.53-1.174-3.312-1.277-5.005c-0.038-0.63,0.014-1.262,0.138-1.881
							c0.11-0.549,0.295-1.267,0.805-1.585c0.535-0.333,1.217,0.012,1.538,0.487c0.427,0.633,0.475,1.523,0.525,2.26
							c0.056,0.822,0.029,1.654,0.122,2.473c0.051,0.449,0.233,0.882,0.409,1.294c0.217,0.508,0.479,0.998,0.776,1.465
							c0.283,0.443,0.6,0.859,0.944,1.251c1.411,0.214,2.831,0.365,4.251,0.501c-0.128-0.212-0.256-0.424-0.376-0.641
							c-0.446-0.806-0.78-1.65-1.004-2.543c-0.139-0.55-0.251-1.113-0.295-1.679c-0.036-0.453-0.062-1.08,0.287-1.432
							c0.35-0.353,0.919-0.204,1.245,0.102c0.434,0.406,0.628,1.053,0.779,1.609c0.17,0.626,0.271,1.268,0.423,1.899
							c0.175,0.726,0.564,1.407,0.979,2.021c0.222,0.329,0.472,0.637,0.739,0.929c1.111,0.107,2.22,0.226,3.326,0.374
							c-0.677-0.995-1.269-2.24-0.986-3.457c0.03-0.13,0.192-0.228,0.321-0.182c1.545,0.549,2.227,2.273,3.183,3.472
							c0.194,0.244,0.402,0.471,0.615,0.69c3.253,0.676,6.766,1.863,9.059,4.338c0.012-0.092,0.022-0.182,0.029-0.262
							c0.08-0.981-0.022-1.978-0.107-2.955C275.257,105.541,275.238,105.065,275.225,104.588z"/>
					</g>
					<g>
						<path style="fill:#A6D17A;" d="M223.255,86.061c0.013-0.014,0.023-0.029,0.036-0.043c0.442-0.466,1.014-0.981,1.208-1.615
							c0.079-0.258,0.06-0.534-0.154-0.721c-0.175-0.152-0.398-0.184-0.615-0.109c-0.291,0.1-0.538,0.324-0.75,0.578
							c-0.003-0.021-0.006-0.042-0.009-0.063c-0.091-0.674-0.171-1.349-0.244-2.024c0.306-0.611,0.693-1.176,1.17-1.653
							c0.416-0.416,0.844-0.819,1.237-1.257c0.346-0.384,0.77-0.848,0.874-1.373c0.083-0.416-0.212-0.778-0.584-0.937
							c-0.365-0.156-0.747-0.028-1.059,0.184c-0.404,0.275-0.721,0.683-0.997,1.081c-0.325,0.467-0.604,0.966-0.863,1.473
							c-0.051-0.726-0.093-1.452-0.117-2.18c0.204-0.586,0.464-1.157,0.806-1.704c0.484-0.773,1.083-1.465,1.719-2.116
							c0.279-0.285,0.557-0.575,0.857-0.838c0.252-0.221,0.512-0.431,0.749-0.667c0.439-0.437,0.766-0.933,0.673-1.578
							c-0.058-0.404-0.341-0.671-0.754-0.666c-0.46,0.005-0.911,0.24-1.299,0.466c-0.403,0.234-0.784,0.504-1.14,0.803
							c-0.606,0.51-1.148,1.109-1.579,1.776c0.032-0.688,0.074-1.374,0.134-2.06c0.349-0.781,0.794-1.522,1.328-2.203
							c0.619-0.79,1.338-1.481,2.123-2.104c0.429-0.34,0.872-0.662,1.317-0.981c0.291-0.209,0.614-0.353,0.923-0.533
							c0.561-0.327,1.123-0.764,1.122-1.472c-0.001-0.447-0.286-0.746-0.722-0.812c-0.498-0.075-1.031,0.087-1.497,0.247
							c-0.434,0.15-0.865,0.334-1.258,0.572c-0.891,0.538-1.751,1.17-2.493,1.912c0.187-0.791,0.402-1.574,0.654-2.345
							c0.564-0.827,1.23-1.584,2.021-2.239c0.477-0.395,0.985-0.753,1.514-1.075c0.362-0.22,0.716-0.424,1.117-0.558
							c0.835-0.28,1.686-0.508,2.511-0.819c0.409-0.154,0.818-0.324,1.196-0.545c0.287-0.168,0.589-0.369,0.766-0.659
							c0.306-0.503,0.061-1.23-0.486-1.443c-0.648-0.252-1.454,0.014-2.073,0.229c-0.771,0.269-1.512,0.63-2.228,1.022
							c-0.916,0.502-1.725,1.142-2.479,1.847c1.756-3.039,4.39-5.641,7.653-7.007c1.851-0.774,4.047-1.075,5.95-0.303
							c1.005,0.408,1.898,1.144,2.55,2.006c0.345,0.456,0.606,0.962,0.704,1.53c0.073,0.421,0.002,0.839-0.028,1.258
							c1.631-1.356,3.542-2.465,5.643-2.85c2.103-0.385,4.465,0.026,6.141,1.412c1.46,1.208,2.291,3.01,2.76,4.809
							c0.054,0.206,0.102,0.415,0.148,0.624c0.118,1.063,0.125,2.135,0.036,3.202c-0.757-1.922-2.215-3.543-4.214-4.202
							c-0.923-0.304-1.902-0.514-2.875-0.546c-0.79-0.025-1.764,0.047-2.32,0.688c-0.216,0.249-0.392,0.634-0.305,0.969
							c0.087,0.333,0.414,0.516,0.719,0.616c0.787,0.258,1.633,0.197,2.447,0.274c0.448,0.042,0.912,0.227,1.34,0.416
							c0.522,0.231,1.011,0.528,1.458,0.883c0.867,0.689,1.549,1.594,2.015,2.596c0.417,0.896,0.656,1.862,0.743,2.842
							c-0.332,0.933-0.743,1.838-1.21,2.714c-0.143-1.034-0.565-2.063-1.033-2.906c-0.857-1.546-2.144-3.047-3.801-3.756
							c-0.748-0.321-1.577-0.435-2.372-0.224c-0.319,0.085-0.704,0.232-0.806,0.582c-0.091,0.312,0.109,0.62,0.307,0.844
							c0.582,0.659,1.402,1.054,2.074,1.606c0.911,0.748,1.671,1.687,2.204,2.738c0.826,1.628,1.054,3.481,0.604,5.209
							c-0.245,0.28-0.495,0.554-0.753,0.821c-0.745,0.772-1.552,1.474-2.406,2.114c0.233-0.812,0.275-1.673,0.193-2.517
							c-0.087-0.895-0.285-1.799-0.66-2.619c-0.27-0.591-0.572-1.172-0.94-1.709c-0.32-0.466-0.747-1.012-1.322-1.16
							c-0.512-0.132-1.082,0.181-1.213,0.701c-0.16,0.632,0.158,1.36,0.401,1.929c0.281,0.662,0.646,1.291,0.899,1.964
							c0.14,0.371,0.173,0.792,0.203,1.184c0.038,0.495,0.025,0.993-0.036,1.486c-0.133,1.065-0.511,2.065-1.079,2.947
							c-0.925,0.478-1.877,0.904-2.842,1.293c0.424-1.25,0.49-2.638,0.365-3.927c-0.046-0.48-0.161-0.95-0.329-1.401
							c-0.148-0.401-0.374-0.92-0.796-1.099c-0.443-0.187-0.917,0.154-1.102,0.551c-0.247,0.529-0.176,1.205-0.126,1.767
							c0.056,0.626,0.176,1.25,0.204,1.879c0.015,0.344-0.07,0.693-0.154,1.025c-0.103,0.409-0.242,0.81-0.41,1.197
							c-0.16,0.368-0.35,0.72-0.563,1.056c-1.039,0.33-2.091,0.613-3.146,0.886c0.072-0.175,0.142-0.351,0.207-0.529
							c0.24-0.661,0.391-1.337,0.454-2.037c0.039-0.431,0.056-0.869,0.022-1.301c-0.027-0.346-0.082-0.822-0.387-1.046
							c-0.306-0.224-0.717-0.044-0.927,0.225c-0.279,0.358-0.348,0.869-0.395,1.306c-0.053,0.493-0.053,0.989-0.092,1.482
							c-0.046,0.568-0.257,1.128-0.497,1.641c-0.128,0.274-0.28,0.537-0.446,0.788c-0.825,0.213-1.647,0.436-2.463,0.679
							c0.392-0.831,0.689-1.84,0.331-2.725c-0.038-0.094-0.172-0.149-0.264-0.099c-1.099,0.598-1.408,1.98-1.985,2.998
							c-0.117,0.207-0.246,0.403-0.381,0.594c-2.372,0.899-4.879,2.213-6.313,4.353c-0.02-0.068-0.038-0.135-0.053-0.194
							c-0.177-0.73-0.22-1.494-0.272-2.241C223.346,86.783,223.303,86.422,223.255,86.061z"/>
					</g>
				</g>
				<g>
					<g>
						<path style="fill:#ABAC98;" d="M183.158,95.18h-13.327l2.512,31.564c0,0.54,4.842,0.978,10.815,0.978
							c5.973,0,10.815-0.438,10.815-0.978l2.512-31.564H183.158z"/>
						<path style="opacity:0.5;fill:#ABAC98;" d="M188.917,95.179c-0.246,2.39-0.86,19.174-0.945,25.169
							c-0.035,2.426-0.085,4.853-0.172,7.278c3.649-0.157,6.172-0.494,6.172-0.883l2.512-31.564H188.917z"/>
						<path style="fill:#54564C;" d="M196.485,95.179c0,0.518-5.967,0.938-13.327,0.938c-7.36,0-13.327-0.42-13.327-0.938
							c0-0.518,5.967-0.938,13.327-0.938C190.518,94.241,196.485,94.661,196.485,95.179z"/>
					</g>
					<g>
						<polygon style="fill:#507147;" points="184.664,96.103 183.766,37.991 182.817,36.489 182.777,96.103 						"/>
						<g>
							<path style="fill:#5B895D;" d="M167.394,82.018c1.404-0.546,2.929-0.755,4.418-0.921c1.383-0.154,2.784-0.216,4.157-0.454
								c0.771-0.134,1.531-0.357,2.273-0.602c0.962-0.318,1.904-0.72,2.752-1.279c1.593-1.051,2.993-2.957,2.328-4.945
								c-0.595-1.777-2.516-2.871-4.261-3.214c-4.186-0.824-8.681,1.151-11.154,4.566c-1.132,1.563-1.951,3.395-2.406,5.268
								c-0.237,0.977-0.388,2.042-0.312,3.074C165.751,82.82,166.554,82.345,167.394,82.018z"/>
							<path style="fill:#8AB676;" d="M181.55,71.624c-0.426,0.013-0.852,0.035-1.277,0.076c-3.723,0.357-7.359,1.813-10.265,4.173
								c-2.351,1.909-4.34,4.528-4.752,7.567c0.559-0.649,1.329-1.107,2.139-1.422c1.404-0.546,2.929-0.755,4.418-0.921
								c1.383-0.154,2.784-0.216,4.157-0.454c0.771-0.134,1.531-0.357,2.273-0.602c0.962-0.318,1.904-0.72,2.752-1.279
								c1.593-1.051,2.993-2.957,2.328-4.945C183.014,72.9,182.355,72.167,181.55,71.624z"/>
						</g>
						<g>
							<path style="fill:#5B895D;" d="M196.942,90.338c-1.405-0.546-2.929-0.755-4.418-0.921c-1.383-0.154-2.784-0.216-4.157-0.454
								c-0.77-0.134-1.531-0.357-2.273-0.602c-0.962-0.318-1.904-0.72-2.752-1.28c-1.593-1.051-2.994-2.957-2.328-4.945
								c0.595-1.777,2.516-2.871,4.261-3.215c4.186-0.824,8.681,1.151,11.154,4.566c1.132,1.563,1.951,3.395,2.406,5.268
								c0.237,0.977,0.388,2.042,0.312,3.074C198.585,91.14,197.782,90.665,196.942,90.338z"/>
							<path style="fill:#8AB676;" d="M182.786,79.944c0.426,0.013,0.852,0.035,1.277,0.076c3.723,0.357,7.359,1.813,10.266,4.173
								c2.351,1.909,4.34,4.528,4.752,7.567c-0.559-0.649-1.329-1.107-2.139-1.422c-1.405-0.546-2.929-0.755-4.418-0.921
								c-1.383-0.154-2.784-0.216-4.157-0.454c-0.77-0.134-1.531-0.357-2.273-0.602c-0.962-0.318-1.904-0.72-2.752-1.28
								c-1.593-1.051-2.994-2.957-2.328-4.945C181.321,81.22,181.981,80.487,182.786,79.944z"/>
						</g>
						<g>
							<path style="fill:#5B895D;" d="M170.558,66.09c1.198-0.466,2.498-0.644,3.768-0.785c1.18-0.131,2.374-0.184,3.545-0.387
								c0.657-0.114,1.306-0.304,1.938-0.514c0.821-0.271,1.623-0.614,2.347-1.091c1.358-0.896,2.553-2.522,1.985-4.218
								c-0.508-1.515-2.146-2.448-3.634-2.741c-3.57-0.703-7.404,0.982-9.513,3.894c-0.965,1.333-1.664,2.895-2.052,4.493
								c-0.202,0.833-0.331,1.742-0.266,2.621C169.157,66.775,169.841,66.369,170.558,66.09z"/>
							<path style="fill:#8AB676;" d="M182.631,57.226c-0.363,0.011-0.726,0.03-1.089,0.065c-3.175,0.305-6.276,1.546-8.755,3.559
								c-2.005,1.628-3.701,3.862-4.053,6.454c0.476-0.554,1.133-0.944,1.824-1.213c1.198-0.466,2.498-0.644,3.768-0.785
								c1.18-0.131,2.374-0.184,3.545-0.387c0.657-0.114,1.306-0.304,1.938-0.514c0.821-0.271,1.623-0.614,2.347-1.091
								c1.358-0.896,2.553-2.522,1.985-4.218C183.88,58.315,183.317,57.69,182.631,57.226z"/>
						</g>
						<g>
							<path style="fill:#5B895D;" d="M195.757,74.24c-1.198-0.466-2.498-0.644-3.768-0.785c-1.18-0.131-2.374-0.184-3.545-0.387
								c-0.657-0.114-1.306-0.305-1.939-0.514c-0.82-0.271-1.623-0.614-2.347-1.091c-1.358-0.896-2.553-2.522-1.985-4.218
								c0.508-1.515,2.146-2.448,3.634-2.741c3.57-0.703,7.404,0.982,9.513,3.894c0.965,1.333,1.664,2.895,2.052,4.493
								c0.202,0.833,0.331,1.742,0.266,2.622C197.159,74.925,196.474,74.519,195.757,74.24z"/>
							<path style="fill:#8AB676;" d="M183.685,65.376c0.363,0.011,0.726,0.03,1.089,0.065c3.175,0.305,6.276,1.546,8.755,3.559
								c2.005,1.628,3.701,3.862,4.053,6.454c-0.477-0.553-1.133-0.944-1.824-1.213c-1.198-0.466-2.498-0.644-3.768-0.785
								c-1.18-0.131-2.374-0.184-3.545-0.387c-0.657-0.114-1.306-0.305-1.939-0.514c-0.82-0.271-1.623-0.614-2.347-1.091
								c-1.358-0.896-2.553-2.522-1.985-4.218C182.436,66.464,182.998,65.84,183.685,65.376z"/>
						</g>
						<g>
							<path style="fill:#5B895D;" d="M173.322,51.078c0.935-0.364,1.95-0.503,2.941-0.613c0.921-0.102,1.853-0.144,2.767-0.302
								c0.513-0.089,1.02-0.238,1.513-0.401c0.64-0.212,1.267-0.479,1.832-0.852c1.06-0.7,1.993-1.969,1.549-3.292
								c-0.396-1.183-1.675-1.911-2.836-2.14c-2.786-0.549-5.779,0.766-7.426,3.04c-0.754,1.041-1.299,2.26-1.602,3.507
								c-0.158,0.651-0.258,1.36-0.208,2.046C172.229,51.612,172.763,51.295,173.322,51.078z"/>
							<path style="fill:#8AB676;" d="M182.746,44.158c-0.283,0.009-0.567,0.024-0.85,0.051c-2.478,0.238-4.899,1.207-6.834,2.778
								c-1.565,1.271-2.889,3.014-3.164,5.038c0.372-0.432,0.884-0.737,1.424-0.947c0.935-0.364,1.95-0.503,2.941-0.613
								c0.921-0.102,1.853-0.144,2.767-0.302c0.513-0.089,1.02-0.238,1.513-0.401c0.64-0.212,1.267-0.479,1.832-0.852
								c1.06-0.7,1.993-1.969,1.549-3.292C183.721,45.008,183.282,44.52,182.746,44.158z"/>
						</g>
						<g>
							<path style="fill:#5B895D;" d="M192.993,58.267c-0.935-0.364-1.95-0.502-2.941-0.613c-0.921-0.102-1.853-0.144-2.767-0.303
								c-0.513-0.089-1.019-0.238-1.513-0.401c-0.641-0.212-1.267-0.479-1.832-0.852c-1.06-0.7-1.993-1.969-1.549-3.292
								c0.396-1.183,1.675-1.911,2.837-2.14c2.786-0.549,5.779,0.766,7.426,3.039c0.754,1.041,1.299,2.26,1.602,3.507
								c0.158,0.651,0.258,1.36,0.208,2.046C194.087,58.802,193.553,58.485,192.993,58.267z"/>
							<path style="fill:#8AB676;" d="M183.569,51.348c0.283,0.008,0.567,0.024,0.85,0.051c2.478,0.238,4.899,1.207,6.834,2.778
								c1.565,1.271,2.889,3.014,3.164,5.038c-0.372-0.432-0.885-0.737-1.424-0.947c-0.935-0.364-1.95-0.502-2.941-0.613
								c-0.921-0.102-1.853-0.144-2.767-0.303c-0.513-0.089-1.019-0.238-1.513-0.401c-0.641-0.212-1.267-0.479-1.832-0.852
								c-1.06-0.7-1.993-1.969-1.549-3.292C182.594,52.198,183.033,51.71,183.569,51.348z"/>
						</g>
						<g>
							<path style="fill:#5B895D;" d="M193.189,33.206c-0.74,0.678-1.313,1.527-1.85,2.367c-0.499,0.781-0.948,1.599-1.495,2.348
								c-0.307,0.421-0.664,0.809-1.029,1.18c-0.473,0.481-0.99,0.925-1.574,1.267c-1.096,0.642-2.647,0.917-3.638-0.065
								c-0.886-0.878-0.974-2.347-0.665-3.49c0.74-2.742,3.242-4.845,6.009-5.317c1.267-0.216,2.601-0.166,3.854,0.114
								c0.654,0.146,1.334,0.369,1.927,0.718C194.152,32.461,193.632,32.8,193.189,33.206z"/>
							<path style="fill:#8AB676;" d="M182.817,38.6c0.133-0.251,0.272-0.498,0.421-0.74c1.309-2.118,3.248-3.861,5.513-4.902
								c1.832-0.842,3.981-1.259,5.917-0.611c-0.552,0.143-1.052,0.468-1.479,0.858c-0.74,0.678-1.313,1.527-1.85,2.367
								c-0.499,0.781-0.948,1.599-1.495,2.348c-0.307,0.421-0.664,0.809-1.029,1.18c-0.473,0.481-0.99,0.925-1.574,1.267
								c-1.096,0.642-2.647,0.917-3.638-0.065C183.148,39.85,182.904,39.24,182.817,38.6z"/>
						</g>
						<g>
							<path style="fill:#5B895D;" d="M175.857,31.783c0.553,0.507,0.981,1.141,1.383,1.77c0.373,0.584,0.709,1.195,1.117,1.756
								c0.229,0.315,0.496,0.605,0.769,0.882c0.354,0.36,0.74,0.691,1.177,0.947c0.82,0.48,1.979,0.686,2.72-0.049
								c0.662-0.657,0.728-1.755,0.497-2.609c-0.553-2.05-2.424-3.622-4.492-3.975c-0.947-0.161-1.945-0.124-2.881,0.085
								c-0.488,0.109-0.997,0.276-1.441,0.537C175.137,31.227,175.526,31.48,175.857,31.783z"/>
							<path style="fill:#8AB676;" d="M183.611,35.816c-0.099-0.187-0.203-0.373-0.315-0.553c-0.979-1.583-2.428-2.886-4.121-3.665
								c-1.37-0.629-2.976-0.941-4.424-0.456c0.413,0.107,0.787,0.349,1.106,0.642c0.553,0.507,0.981,1.141,1.383,1.77
								c0.373,0.584,0.709,1.195,1.117,1.756c0.229,0.315,0.496,0.605,0.769,0.882c0.354,0.36,0.74,0.691,1.177,0.947
								c0.82,0.48,1.979,0.686,2.72-0.049C183.364,36.751,183.546,36.295,183.611,35.816z"/>
						</g>
					</g>
				</g>
			</g>
			<rect x="77.201" y="126.949" style="fill:#976B51;" width="207.273" height="7.039"/>
		</g>
	</g>
</g>
</svg>
